<svg width="64" height="34" viewBox="0 0 64 34" fill="none" xmlns="http://www.w3.org/2000/svg">
<path d="M5.81818 0H43.6364L52.3636 11.3333H58.1818C61.4109 11.3333 64 13.855 64 17V25.5H58.1818C58.1818 27.7543 57.2623 29.9163 55.6257 31.5104C53.989 33.1045 51.7692 34 49.4545 34C47.1399 34 44.9201 33.1045 43.2834 31.5104C41.6468 29.9163 40.7273 27.7543 40.7273 25.5H23.2727C23.2727 27.7543 22.3533 29.9163 20.7166 31.5104C19.0799 33.1045 16.8601 34 14.5455 34C12.2308 34 10.011 33.1045 8.37434 31.5104C6.73766 29.9163 5.81818 27.7543 5.81818 25.5H0V5.66667C0 2.52167 2.58909 0 5.81818 0ZM4.36364 4.25V11.3333H27.6364V4.25H4.36364ZM32 4.25V11.3333H46.9527L41.4545 4.25H32ZM14.5455 21.25C13.3881 21.25 12.2782 21.6978 11.4599 22.4948C10.6416 23.2918 10.1818 24.3728 10.1818 25.5C10.1818 26.6272 10.6416 27.7082 11.4599 28.5052C12.2782 29.3022 13.3881 29.75 14.5455 29.75C15.7028 29.75 16.8127 29.3022 17.631 28.5052C18.4494 27.7082 18.9091 26.6272 18.9091 25.5C18.9091 24.3728 18.4494 23.2918 17.631 22.4948C16.8127 21.6978 15.7028 21.25 14.5455 21.25ZM49.4545 21.25C48.2972 21.25 47.1873 21.6978 46.369 22.4948C45.5507 23.2918 45.0909 24.3728 45.0909 25.5C45.0909 26.6272 45.5507 27.7082 46.369 28.5052C47.1873 29.3022 48.2972 29.75 49.4545 29.75C50.6119 29.75 51.7218 29.3022 52.5401 28.5052C53.3584 27.7082 53.8182 26.6272 53.8182 25.5C53.8182 24.3728 53.3584 23.2918 52.5401 22.4948C51.7218 21.6978 50.6119 21.25 49.4545 21.25Z" fill="#691D35"/>
</svg>
