<svg width="64" height="64" viewBox="0 0 64 64" fill="none" xmlns="http://www.w3.org/2000/svg">
<path d="M32 0C20.4208 0 11 9.57038 11 21.3334C11 24.8646 11.8691 28.3659 13.5212 31.4714L30.8516 63.3125C31.0823 63.737 31.522 64 32 64C32.478 64 32.9177 63.737 33.1484 63.3125L50.4852 31.4609C52.1309 28.3659 53 24.8645 53 21.3333C53 9.57038 43.5792 0 32 0ZM32 32C26.2104 32 21.5001 27.2149 21.5001 21.3334C21.5001 15.4519 26.2104 10.6667 32 10.6667C37.7896 10.6667 42.4999 15.4519 42.4999 21.3334C42.4999 27.2149 37.7896 32 32 32Z" fill="#691D35"/>
</svg>
