<svg width="40" height="40" viewBox="0 0 40 40" fill="none" xmlns="http://www.w3.org/2000/svg">
<circle cx="20" cy="20" r="20" fill="white"/>
<g clip-path="url(#clip0)">
<path d="M23.0053 16.3878L21.7366 15.1203L15.3928 21.4628C15.143 21.7127 14.9448 22.0094 14.8096 22.3359C14.6744 22.6624 14.6049 23.0123 14.605 23.3657C14.605 23.7191 14.6747 24.069 14.81 24.3955C14.9452 24.7219 15.1435 25.0186 15.3934 25.2684C15.6434 25.5182 15.94 25.7164 16.2665 25.8516C16.5931 25.9868 16.943 26.0563 17.2964 26.0562C17.6498 26.0562 17.9997 25.9865 18.3261 25.8512C18.6526 25.716 18.9492 25.5177 19.1991 25.2678L26.8116 17.6565C27.6526 16.8153 28.1251 15.6744 28.125 14.4848C28.1248 13.2953 27.6522 12.1545 26.8109 11.3134C25.9697 10.4723 24.8288 9.99988 23.6392 10C22.4497 10.0001 21.3089 10.4728 20.4678 11.314L12.4753 19.3053L12.4578 19.3215C10.0141 21.7653 10.0141 25.7253 12.4578 28.1678C14.9016 30.6103 18.8616 30.6103 21.3053 28.1678L21.3216 28.1503L21.3228 28.1515L26.7791 22.6965L25.5103 21.429L20.0541 26.8828L20.0378 26.899C18.2978 28.639 15.4678 28.639 13.7278 26.899C13.3128 26.4831 12.9839 25.9893 12.7601 25.446C12.5363 24.9026 12.4219 24.3205 12.4235 23.7329C12.4251 23.1453 12.5427 22.5638 12.7696 22.0217C12.9964 21.4796 13.328 20.9877 13.7453 20.574L13.7441 20.5728L21.7378 12.5815C22.7866 11.5315 24.4941 11.5315 25.5441 12.5815C26.5941 13.6315 26.5928 15.3378 25.5441 16.3865L17.9316 23.9978C17.7612 24.1545 17.5369 24.2393 17.3055 24.2345C17.074 24.2297 16.8534 24.1357 16.6896 23.9722C16.5259 23.8086 16.4317 23.588 16.4267 23.3566C16.4217 23.1252 16.5063 22.9008 16.6628 22.7303L23.0066 16.3865L23.0053 16.3878Z" fill="#691D35"/>
</g>
<defs>
<clipPath id="clip0">
<rect x="10" y="10" width="20" height="20" fill="white"/>
</clipPath>
</defs>
</svg>
