<svg width="30" height="30" viewBox="0 0 30 30" fill="none" xmlns="http://www.w3.org/2000/svg">
<circle cx="15" cy="15" r="15" fill="white"/>
<path d="M18.6195 5.98979C18.5034 5.87338 18.3655 5.78103 18.2136 5.71801C18.0617 5.655 17.8989 5.62256 17.7345 5.62256C17.5701 5.62256 17.4073 5.655 17.2554 5.71801C17.1036 5.78103 16.9656 5.87338 16.8495 5.98979L8.53951 14.2998C8.44681 14.3923 8.37326 14.5022 8.32308 14.6232C8.2729 14.7441 8.24707 14.8738 8.24707 15.0048C8.24707 15.1358 8.2729 15.2654 8.32308 15.3864C8.37326 15.5074 8.44681 15.6173 8.53951 15.7098L16.8495 24.0198C17.3395 24.5098 18.1295 24.5098 18.6195 24.0198C19.1095 23.5298 19.1095 22.7398 18.6195 22.2498L11.3795 14.9998L18.6295 7.74979C19.1095 7.26979 19.1095 6.46979 18.6195 5.98979Z" fill="#C88C1C"/>
</svg>
