<svg width="30" height="31" viewBox="0 0 40 41" fill="none" xmlns="http://www.w3.org/2000/svg">
<g clip-path="url(#clip0)">
<path d="M20 0.173706C9 0.173706 0 9.17371 0 20.1737C0 31.1737 9 40.1737 20 40.1737C31 40.1737 40 31.1737 40 20.1737C40 9.17371 31 0.173706 20 0.173706ZM10.2 10.9737C10.4 10.0737 10.8 9.47371 11.5 8.87371C12.2 8.37371 13 8.07371 13.8 8.07371H16.2C16.2 7.77371 16.3 7.57371 16.5 7.37371C16.7 7.27371 16.9 7.17371 17.2 7.17371H22.8C23.1 7.17371 23.3 7.27371 23.5 7.47371C23.7 7.67371 23.8 7.87371 23.8 8.17371H26.2C27.1 8.17371 27.9 8.47371 28.5 8.97371C29.2 9.47371 29.6 10.1737 29.8 11.0737L31.3 17.4737H29.4L28 11.4737C27.9 11.0737 27.7 10.6737 27.3 10.4737C27 10.1737 26.6 10.0737 26.1 10.0737H23.7C23.7 10.3737 23.6 10.5737 23.4 10.7737C23.2 10.9737 23 11.0737 22.7 11.0737H17.1C16.8 11.0737 16.6 10.9737 16.4 10.7737C16.2 10.5737 16.1 10.3737 16.1 10.0737H13.7C13.3 10.0737 12.9 10.1737 12.5 10.4737C12.2 10.7737 11.9 11.0737 11.8 11.4737L10.4 17.4737H8.7L10.2 10.9737ZM33.1 22.0737H32.9L31.2 31.6737C31.1 32.0737 30.9 32.4737 30.6 32.7737C30.2 33.0737 29.8 33.1737 29.4 33.1737H10.6C10.2 33.1737 9.8 33.0737 9.4 32.7737C9 32.4737 8.8 32.0737 8.8 31.6737L7.1 22.0737H6.9C6.4 22.0737 5.9 21.8737 5.6 21.5737C5.2 21.1737 5 20.6737 5 20.1737C5 19.6737 5.2 19.1737 5.5 18.8737C5.9 18.4737 6.3 18.3737 6.8 18.3737H33.1C33.6 18.3737 34.1 18.5737 34.4 18.8737C34.8 19.1737 35 19.6737 35 20.1737C35 20.6737 34.8 21.1737 34.5 21.4737C34.1 21.8737 33.6 22.0737 33.1 22.0737Z" fill="white"/>
<path d="M12.2 22.2737C12 22.0737 11.8 22.0737 11.5 22.0737C11.2 22.0737 11 22.1737 10.9 22.3737C10.7 22.5737 10.7 22.7737 10.7 23.0737L11.2 29.0737C11.2 29.2737 11.3 29.4737 11.5 29.6737C11.7 29.8737 11.9 29.8737 12.1 29.8737H12.2C12.5 29.8737 12.7 29.7737 12.8 29.5737C13 29.3737 13 29.1737 13 28.8737L12.5 22.8737C12.5 22.6737 12.4 22.4737 12.2 22.2737Z" fill="white"/>
<path d="M17.2 22.0737C16.9 22.0737 16.7 22.1737 16.5 22.3737C16.3 22.5737 16.2 22.7737 16.2 23.0737V29.0737C16.2 29.3737 16.3 29.5737 16.5 29.7737C16.7 29.9737 16.9 30.0737 17.2 30.0737C17.5 30.0737 17.7 29.9737 17.9 29.7737C18.1 29.5737 18.2 29.3737 18.2 29.0737V23.0737C18.2 22.7737 18.1 22.5737 17.9 22.3737C17.7 22.0737 17.4 22.0737 17.2 22.0737Z" fill="white"/>
<path d="M22.8 22.0737C22.5 22.0737 22.3001 22.1737 22.1001 22.3737C21.9001 22.5737 21.8 22.7737 21.8 23.0737V29.0737C21.8 29.3737 21.9001 29.5737 22.1001 29.7737C22.3001 29.9737 22.5 30.0737 22.8 30.0737C23.1001 30.0737 23.3001 29.9737 23.5001 29.7737C23.7001 29.5737 23.8001 29.3737 23.8001 29.0737V23.0737C23.8001 22.7737 23.7001 22.5737 23.5001 22.3737C23.3001 22.0737 23.1001 22.0737 22.8 22.0737Z" fill="white"/>
<path d="M28.5 22.0737C28.2 22.0737 28 22.1737 27.8 22.2737C27.6 22.4737 27.5 22.6737 27.5 22.8737L27 28.8737C27 29.1737 27.1 29.3737 27.2 29.5737C27.4 29.7737 27.6 29.8737 27.8 29.8737H28C28.2 29.8737 28.5 29.7737 28.6 29.6737C28.8 29.4737 28.9 29.2737 28.9 29.0737L29.4 23.0737C29.4 22.7737 29.3 22.5737 29.2 22.3737C29 22.1737 28.8 22.0737 28.5 22.0737Z" fill="white"/>
</g>
<defs>
<clipPath id="clip0">
<rect y="0.173706" width="40" height="40" fill="white"/>
</clipPath>
</defs>
</svg>
