<svg width="45" height="45" viewBox="0 0 45 45" fill="none" xmlns="http://www.w3.org/2000/svg">
<path d="M28.1134 22.5L43.8255 6.7879C44.5712 6.04352 44.9906 5.03341 44.9915 3.97977C44.9925 2.92613 44.5748 1.91527 43.8304 1.16958C43.086 0.423888 42.0759 0.00443965 41.0223 0.00350915C39.9686 0.00257865 38.9578 0.420242 38.2121 1.16462L22.5 16.8767L6.7879 1.16462C6.04221 0.418927 5.03083 0 3.97626 0C2.92169 0 1.91031 0.418927 1.16462 1.16462C0.418927 1.91031 0 2.92169 0 3.97626C0 5.03083 0.418927 6.04221 1.16462 6.7879L16.8767 22.5L1.16462 38.2121C0.418927 38.9578 0 39.9692 0 41.0237C0 42.0783 0.418927 43.0897 1.16462 43.8354C1.91031 44.5811 2.92169 45 3.97626 45C5.03083 45 6.04221 44.5811 6.7879 43.8354L22.5 28.1233L38.2121 43.8354C38.9578 44.5811 39.9692 45 41.0237 45C42.0783 45 43.0897 44.5811 43.8354 43.8354C44.5811 43.0897 45 42.0783 45 41.0237C45 39.9692 44.5811 38.9578 43.8354 38.2121L28.1134 22.5Z" fill="white" fill-opacity="0.5"/>
</svg>
