<svg width="30" height="30" viewBox="0 0 30 30" fill="none" xmlns="http://www.w3.org/2000/svg">
<circle cx="15" cy="15" r="15" fill="white"/>
<path d="M23 7.8C23 7.32 22.7333 7 22.3333 7L7.66667 7C7.26667 7 7 7.32 7 7.8V9.4C7 9.88 7.26667 10.2 7.66667 10.2L22.3333 10.2C22.7333 10.2 23 9.88 23 9.4V7.8Z" fill="#481120"/>
<path d="M18 14.2004C18 13.7204 17.8167 13.4004 17.5417 13.4004L7.45833 13.4004C7.18333 13.4004 7 13.7204 7 14.2004V15.8004C7 16.2804 7.18333 16.6004 7.45833 16.6004H17.5417C17.8167 16.6004 18 16.2804 18 15.8004V14.2004Z" fill="#481120"/>
<path d="M23 20.6008C23 20.1208 22.7333 19.8008 22.3333 19.8008L7.66667 19.8008C7.26667 19.8008 7 20.1208 7 20.6008V22.2008C7 22.6808 7.26667 23.0008 7.66667 23.0008H22.3333C22.7333 23.0008 23 22.6808 23 22.2008V20.6008Z" fill="#481120"/>
</svg>
