<svg width="40" height="41" viewBox="0 0 40 41" fill="none" xmlns="http://www.w3.org/2000/svg">
<path d="M19.9995 0.173752C8.99951 0.173752 -0.000488281 9.17375 -0.000488281 20.1738C-0.000488281 31.1738 8.99951 40.1738 19.9995 40.1738C30.9995 40.1738 39.9995 31.1738 39.9995 20.1738C39.9995 9.07375 30.9995 0.173752 19.9995 0.173752ZM9.29951 19.0738C9.29951 18.4738 9.49951 17.9738 9.89951 17.9738H23.2995C23.6995 17.9738 23.8995 18.3738 23.8995 19.0738V21.1738C23.8995 21.7738 23.6995 22.2738 23.2995 22.2738H9.89951C9.49951 22.2738 9.29951 21.8738 9.29951 21.1738V19.0738ZM30.6995 29.7738C30.6995 30.3738 30.2995 30.8738 29.7995 30.8738H10.1995C9.69951 30.8738 9.29951 30.4738 9.29951 29.7738V27.6738C9.29951 27.0738 9.69951 26.5738 10.1995 26.5738H29.7995C30.2995 26.5738 30.6995 26.9738 30.6995 27.6738V29.7738ZM30.6995 12.6738C30.6995 13.2738 30.2995 13.7738 29.7995 13.7738H10.1995C9.69951 13.7738 9.29951 13.3738 9.29951 12.6738V10.5738C9.29951 9.97375 9.69951 9.47375 10.1995 9.47375H29.7995C30.2995 9.47375 30.6995 9.87375 30.6995 10.5738V12.6738Z" fill="white"/>
</svg>
