<svg width="30" height="30" viewBox="0 0 30 30" fill="none" xmlns="http://www.w3.org/2000/svg">
<circle cx="15" cy="15" r="15" fill="white"/>
<path d="M22 6.45998C22 6.00997 21.75 5.70996 21.375 5.70996L7.625 5.70996C7.25 5.70996 7 6.00997 7 6.45998V7.96003C7 8.41004 7.25 8.71005 7.625 8.71005L21.375 8.71005C21.75 8.71005 22 8.41004 22 7.96003V6.45998Z" fill="#481120"/>
<path d="M17.3125 12.4658C17.3125 12.0158 17.1406 11.7158 16.8828 11.7158L7.42969 11.7158C7.17187 11.7158 7 12.0158 7 12.4658V13.9659C7 14.4159 7.17187 14.7159 7.42969 14.7159L16.8828 14.7159C17.1406 14.7159 17.3125 14.4159 17.3125 13.9659V12.4658Z" fill="#481120"/>
<path d="M22 18.4571C22 18.007 21.75 17.707 21.375 17.707L7.625 17.707C7.25 17.707 7 18.007 7 18.4571V19.9571C7 20.4071 7.25 20.7071 7.625 20.7071L21.375 20.7071C21.75 20.7071 22 20.4071 22 19.9571V18.4571Z" fill="#481120"/>
</svg>
