<svg width="30" height="30" viewBox="0 0 30 30" fill="none" xmlns="http://www.w3.org/2000/svg">
<path d="M30 1.5C30 0.6 29.5 0 28.75 0L1.25 0C0.5 0 0 0.6 0 1.5L0 4.5C0 5.4 0.5 6 1.25 6L28.75 6C29.5 6 30 5.4 30 4.5V1.5Z" fill="white"/>
<path d="M20.625 13.5C20.625 12.6 20.2813 12 19.7656 12L0.859375 12C0.34375 12 0 12.6 0 13.5L0 16.5C0 17.4 0.34375 18 0.859375 18L19.7656 18C20.2813 18 20.625 17.4 20.625 16.5V13.5Z" fill="white"/>
<path d="M30 25.5C30 24.6 29.5 24 28.75 24L1.25 24C0.5 24 0 24.6 0 25.5L0 28.5C0 29.4 0.5 30 1.25 30L28.75 30C29.5 30 30 29.4 30 28.5V25.5Z" fill="white"/>
</svg>
