<svg width="45" height="46" viewBox="0 0 45 46" fill="none" xmlns="http://www.w3.org/2000/svg">
<circle cx="22.5" cy="23" r="22.5" fill="white"/>
<g clip-path="url(#clip0)">
<path d="M19.8633 24.7578C19.8633 26.2117 21.0461 27.3945 22.5 27.3945C23.9539 27.3945 25.1367 26.2117 25.1367 24.7578C25.1367 23.304 23.9539 22.1211 22.5 22.1211C21.0461 22.1211 19.8633 23.304 19.8633 24.7578Z" fill="#783349"/>
<path d="M22.5 29.1523C19.5921 29.1523 17.2266 31.5178 17.2266 34.4258V38H27.7734V34.4258C27.7734 31.5178 25.4079 29.1523 22.5 29.1523Z" fill="#783349"/>
<path d="M15.4688 26.5156C15.4688 25.0618 14.2859 23.8789 12.832 23.8789C11.3782 23.8789 10.1953 25.0618 10.1953 26.5156C10.1953 27.9695 11.3782 29.1523 12.832 29.1523C14.2859 29.1523 15.4688 27.9695 15.4688 26.5156Z" fill="#783349"/>
<path d="M34.8047 26.5156C34.8047 25.0618 33.6218 23.8789 32.168 23.8789C30.7141 23.8789 29.5312 25.0618 29.5312 26.5156C29.5312 27.9695 30.7141 29.1523 32.168 29.1523C33.6218 29.1523 34.8047 27.9695 34.8047 26.5156Z" fill="#783349"/>
<path d="M11.9531 8L10.616 11.1524L7.5 11.5918L9.74739 13.7266L9.23058 16.8477L11.9531 15.4247L14.6757 16.8477L14.1589 13.7266L16.3477 11.5918L13.323 11.1524L11.9531 8Z" fill="#783349"/>
<path d="M23.8699 11.1524L22.5 8L21.1629 11.1524L18.1055 11.5918L20.2943 13.7266L19.7775 16.8477L22.5 15.4247L25.2225 16.8477L24.7057 13.7266L26.8945 11.5918L23.8699 11.1524Z" fill="#783349"/>
<path d="M33.0469 8L31.7097 11.1524L28.6523 11.5918L30.8411 13.7266L30.3243 16.8477L33.0469 15.4247L35.7694 16.8477L35.2526 13.7266L37.5 11.5918L34.4167 11.1524L33.0469 8Z" fill="#783349"/>
<path d="M32.168 30.9102C30.9998 30.9102 29.9306 31.3022 29.0568 31.9449C29.3509 32.7192 29.5312 33.5496 29.5312 34.4258V38H37.5V36.1836C37.5 33.2711 35.0805 30.9102 32.168 30.9102Z" fill="#783349"/>
<path d="M7.5 36.1836V38H15.4688V34.4258C15.4688 33.5496 15.6491 32.7192 15.9432 31.9449C15.0694 31.3022 14.0002 30.9102 12.832 30.9102C9.91951 30.9102 7.5 33.2711 7.5 36.1836Z" fill="#783349"/>
</g>
<defs>
<clipPath id="clip0">
<rect x="7.5" y="8" width="30" height="30" fill="white"/>
</clipPath>
</defs>
</svg>
