<svg width="172" height="56" viewBox="0 0 172 56" fill="none" xmlns="http://www.w3.org/2000/svg">
<g>
<path d="M147.863 37.5101C144.522 38.2947 141.247 39.2755 138.037 40.3217C137.906 40.1255 137.709 39.9948 137.513 39.864L136.137 38.6871C136.137 38.6871 135.417 38.2947 134.827 37.0524C134.631 36.4639 134.565 35.8101 134.499 35.2216C134.434 34.8293 134.434 34.437 134.434 34.1101C134.434 34.1101 134.368 29.5985 134.368 26.3946L133.582 25.6753L133.648 33.3908C133.648 34.6985 133.91 36.7255 134.827 37.9678V38.0332C134.827 38.0332 134.893 38.0986 134.958 38.164C135.024 38.2947 135.155 38.3601 135.286 38.4255C135.744 38.8178 136.53 39.4717 137.382 39.7986C137.447 39.9294 137.513 40.1255 137.513 40.2563V40.8448C137.513 41.0409 137.513 41.1717 137.447 41.3025C137.447 41.3025 137.447 41.3025 137.447 41.3679C137.382 41.4986 137.316 41.6294 137.185 41.7602C136.989 41.9563 136.661 42.1525 136.334 42.1525L133.189 42.0871C132.6 42.0871 132.076 42.0871 131.552 42.0871C130.897 42.0871 130.176 42.1525 129.455 42.1525C128.669 42.2179 127.818 42.2179 127.032 42.2833C126.901 42.2833 126.77 42.2179 126.639 42.2179C126.835 42.6756 127.294 43.0025 127.818 43.0025C128.669 43.0025 129.455 42.9371 130.241 42.8717C130.635 42.8717 130.962 42.8717 131.29 42.8063C130.176 43.1987 129.062 43.6564 127.949 44.0487C127.621 43.9179 127.359 43.7218 127.032 43.591C126.049 43.0025 125.132 42.414 124.215 41.7602C124.215 41.6948 124.28 41.564 124.28 41.4332V40.714C124.28 40.5832 124.28 40.4525 124.215 40.3217C124.215 40.3217 124.215 39.6025 122.97 39.014C122.97 39.014 122.119 38.9486 121.856 37.5755C121.856 37.5101 121.856 37.4447 121.856 37.314C121.856 37.1832 121.856 37.0524 121.856 36.9216C121.791 36.3332 121.791 35.5485 121.791 34.6985L121.856 22.7983C121.856 21.1637 122.184 21.0983 122.839 20.9676C123.429 20.8368 123.822 20.3137 123.822 19.7252V19.2021C123.822 18.6791 123.494 18.2214 122.97 18.0252C123.036 18.156 123.036 18.2868 123.036 18.4829V19.006C123.036 19.5945 122.643 20.1175 122.053 20.2483C121.398 20.3791 121.07 20.4445 121.07 22.0791L121.005 33.9793C121.005 36.987 121.267 38.2947 121.988 38.6217C121.988 38.6217 122.643 39.1448 123.494 39.5371C123.56 39.6678 123.56 39.7986 123.56 39.9948V40.714C123.56 41.0409 123.429 41.3679 123.167 41.6294C122.905 41.891 122.577 41.9563 122.25 41.9563L110 41.8909C109.869 41.8909 109.738 41.8256 109.541 41.8256C109.738 42.2833 110.196 42.6102 110.72 42.6102L122.97 42.6756C123.298 42.6756 123.625 42.5448 123.887 42.3487C124.018 42.2179 124.149 42.0217 124.215 41.8256C125.132 42.4794 126.18 43.0679 127.228 43.6564C127.425 43.7871 127.687 43.9179 127.883 44.0487C114.389 49.1487 99.7149 54.5757 78.4904 53.8565C62.703 53.3334 52.5493 48.6911 46.7847 43.0025C56.1523 53.0065 73.6428 55.2296 79.735 55.4258C102.335 56.2104 117.205 50.5219 130.176 45.2256C135.548 47.6449 141.378 48.9526 146.88 49.1488C162.209 49.6718 171.249 44.8987 171.38 40.3871C171.511 35.8755 166.009 35.8755 164.174 35.8101C161.096 35.6793 158.148 35.8755 155.265 36.2024C155.2 32.0177 155.134 26.5253 155.134 26.5253C155.134 24.8253 155.724 21.3599 158.213 20.706C158.803 20.5753 159.196 20.0522 159.13 19.4637V18.9406C159.13 18.3521 158.737 17.8944 158.213 17.7637C158.279 17.8944 158.279 18.0906 158.279 18.2214V18.7445C158.279 19.3329 157.886 19.856 157.362 19.9868C154.872 20.6406 154.283 24.0407 154.283 25.8061L154.479 40.1255C154.479 41.0409 154.152 41.6294 153.824 41.9563C153.497 42.3487 152.973 42.5448 152.449 42.5448C151.925 42.5448 151.466 42.2833 151.007 41.9563L151.073 42.0217C151.794 42.741 152.449 43.264 153.235 43.264C153.759 43.264 154.283 43.0679 154.61 42.6756C154.938 42.3487 155.265 41.8256 155.265 40.8448C155.265 40.8448 155.265 39.2101 155.2 37.0524C158.017 36.6601 160.965 36.4639 164.109 36.5293C170.332 36.7255 170.267 39.5371 170.201 40.3217C170.005 46.2064 153.104 48.6257 147.208 48.4295C140.461 48.2334 134.893 46.9256 130.307 45.0948C132.207 44.3102 134.106 43.5256 136.006 42.741C136.334 42.741 136.661 42.741 136.989 42.741C137.513 42.741 137.971 42.3486 138.168 41.8909C141.705 40.5179 145.243 39.2755 148.846 38.2947L147.863 37.5101Z" fill="#C4C4C4"/>
<path d="M12.7204 41.3038C12.7204 41.3038 12.6549 40.4537 11.5413 39.7344C11.5413 39.7344 9.83805 38.9498 9.31399 37.3804C9.31399 37.2496 9.24848 37.1843 9.24848 37.1189C9.24848 37.0535 9.18297 36.9227 9.18297 36.8573C9.05195 36.138 8.98645 35.4187 8.98645 34.8302V30.1876L8.33138 28.749C8.33138 31.43 8.33138 34.0456 8.33138 34.0456C8.33138 35.5495 8.59341 37.9689 9.96907 39.1459C9.96907 39.1459 11.9998 40.2576 12.0653 40.5845C12.1308 40.7153 12.1308 40.8461 12.1308 40.9768V41.5653C12.1308 41.8923 11.9998 42.2192 11.7378 42.4808C11.4757 42.7423 11.2137 42.8731 10.8207 42.8731L1.51857 42.9385C1.32205 42.9385 1.12552 42.8731 0.994507 42.8077C1.06001 43.0039 1.12553 43.1347 1.25654 43.3309C1.51857 43.5924 1.7806 43.7232 2.17365 43.7232L11.4757 43.6578C11.8033 43.6578 12.1308 43.527 12.3929 43.2655C12.6549 43.0039 12.7859 42.677 12.7859 42.35V41.7615C12.7859 41.5653 12.7859 41.4346 12.7204 41.3038Z" fill="#C4C4C4"/>
<path d="M19.3371 29.9913L13.8345 19.529C13.7035 19.2674 13.5069 19.1366 13.3104 19.0059L19.2716 30.2528L19.3371 29.9913Z" fill="#C4C4C4"/>
<path d="M24.5123 27.7031L17.503 42.7427C17.3065 43.2004 16.8479 43.462 16.3894 43.462H15.8653C15.6688 43.462 15.4723 43.3966 15.2758 43.3312L15.3413 43.462C15.5378 43.9197 15.9963 44.1812 16.5204 44.1812H17.0445C17.503 44.1812 17.9616 43.9197 18.1581 43.462L24.5778 29.7956L24.5123 27.7031Z" fill="#C4C4C4"/>
<path d="M37.2198 40.8445C37.2198 40.8445 36.9577 40.1907 36.0406 39.6676C36.0406 39.6676 34.7305 39.0791 34.5995 38.0983C34.534 37.4445 34.4685 36.5944 34.4685 35.4829L34.4029 24.1058C34.4029 22.2096 34.4684 21.9481 35.7131 21.6211C36.3027 21.4904 36.6957 20.9673 36.6957 20.3788V19.9211C36.6957 19.398 36.3682 19.0057 35.9751 18.8096C36.0406 18.9403 36.0406 19.0711 36.0406 19.2019V19.6596C36.0406 20.248 35.6476 20.7711 35.058 20.9019C33.8134 21.2288 33.7479 21.425 33.7479 23.3866L33.8134 34.7636C33.8134 37.9022 34.1409 39.0137 34.8615 39.3406C34.8615 39.3406 36.6302 39.9945 36.6957 40.3868C36.7612 40.5176 36.7612 40.6483 36.7612 40.7791V41.4984C36.7612 42.2176 36.2372 42.7407 35.5166 42.7407L22.9391 42.8061C22.7426 42.8061 22.5461 42.7407 22.415 42.6753C22.6116 43.1984 23.0701 43.5907 23.5942 43.5907L36.1717 43.5253C36.8922 43.5253 37.4163 42.9368 37.4163 42.283V41.5637C37.4163 41.3022 37.3508 41.0407 37.2198 40.8445Z" fill="#C4C4C4"/>
<path d="M51.763 38.033C50.3218 36.2022 49.7978 33.2599 49.7322 30.6444C49.6012 26.3944 50.3873 21.2289 55.1039 21.0982C56.414 21.0328 57.4621 21.4251 58.3137 22.1443C57.3966 21.0328 56.152 20.3789 54.3833 20.3789C53.0076 20.4443 51.894 20.902 51.0424 21.8174C49.6012 23.3212 48.9462 26.1328 49.0772 29.9252C49.1427 32.9329 49.7977 36.3984 51.763 38.033Z" fill="#C4C4C4"/>
<path d="M67.878 38.5568C70.0397 36.2029 71.1534 33.2606 71.0879 29.9259C70.9569 26.6566 69.7122 23.7143 67.3539 21.5565C67.2884 21.4912 67.2229 21.4912 67.2229 21.4258C69.1226 23.3873 70.3018 26.0028 70.4328 29.2067C70.6948 37.7068 63.0304 42.4799 55.235 42.7415C50.6495 42.8722 45.9984 41.4991 42.9196 38.5568C45.9984 41.9568 51.0425 43.5915 55.9556 43.4607C60.7376 43.2646 65.1267 41.4991 67.878 38.5568Z" fill="#C4C4C4"/>
<path d="M98.6665 41.9564C99.3216 42.6756 99.9767 43.2641 100.763 43.2641C101.287 43.2641 101.811 43.0679 102.138 42.6756C102.466 42.3487 102.794 41.8256 102.794 40.8448L102.859 26.5254C102.859 24.8254 103.514 21.3599 106.003 20.7715C106.593 20.6407 106.986 20.1176 106.986 19.5291V19.006C106.986 18.4829 106.658 18.0253 106.2 17.8291C106.265 17.9599 106.265 18.0906 106.265 18.2868V18.8099C106.265 19.3984 105.872 19.9214 105.283 20.0522C102.794 20.6407 102.138 24.1061 102.138 25.8061V40.1256C102.138 41.041 101.745 41.6295 101.483 41.9564C101.156 42.2833 100.632 42.4795 100.108 42.4795C99.3216 42.4795 98.6665 41.891 98.0115 41.1717L81.307 25.3484C81.307 28.487 81.307 33.0639 81.307 33.0639C81.307 34.6332 81.569 37.1178 83.0102 38.2294C82.9447 38.2294 82.8792 38.164 82.8792 38.0986C83.2722 38.6871 84.0583 39.2756 84.7789 39.4717C84.7789 39.4717 84.9099 39.5371 84.9754 39.6025C85.0409 39.7333 85.0409 39.864 85.0409 39.9948V40.5833C85.0409 40.9102 84.9099 41.2371 84.6479 41.4987C84.3859 41.7602 84.0583 41.891 83.7308 41.891C82.8792 41.891 82.0276 41.8256 81.176 41.8256C80.3899 41.8256 79.6693 41.7602 79.0142 41.7602C78.3592 41.7602 77.6386 41.7602 76.918 41.8256C76.1319 41.8256 75.2803 41.891 74.4942 41.891C74.3632 41.891 74.1667 41.8256 74.0356 41.8256C74.2322 42.2833 74.6907 42.6102 75.2148 42.6102C76.0664 42.6102 76.8525 42.5448 77.6386 42.5448C78.3592 42.5448 79.0797 42.4795 79.7348 42.4795C80.3899 42.4795 81.176 42.4795 81.9621 42.5448C82.8137 42.6102 83.6653 42.6102 84.4514 42.6102C84.7789 42.6102 85.1065 42.4795 85.3685 42.2179C85.6305 41.9564 85.7615 41.6948 85.7615 41.3025V40.7141C85.7615 40.3217 85.565 39.9948 85.303 39.7986C85.303 39.7986 85.303 39.7986 85.2375 39.7986C84.9099 39.4717 84.3204 39.2102 83.9273 38.9486C83.6653 38.7525 83.3377 38.4909 83.0102 38.2948C82.0931 37.0525 81.9621 35.0909 81.9621 33.7832C81.9621 33.7832 81.9621 29.2062 81.9621 26.0677L98.6665 41.9564Z" fill="#C4C4C4"/>
<path d="M10.6241 40.9755C7.4142 40.2563 6.82463 36.5293 6.82463 34.0446L6.75912 22.9945H6.82463L15.6682 42.2178H16.1922L25.4943 22.3406H25.6253L25.6909 34.7639C25.6909 37.9024 25.5598 40.6486 22.8085 40.7793V41.4986L35.386 41.4332V40.714C32.5692 40.5832 32.4381 37.837 32.4381 34.6985L32.3726 23.3214C32.3726 21.4252 32.3726 20.1175 34.5999 19.5944V19.1367C33.0932 19.1367 31.39 19.2675 30.0144 19.3329C28.6387 19.3329 27.0665 19.2021 25.5598 19.2021L19.1401 32.9984L11.8687 19.2675C10.362 19.2675 8.65884 19.4636 7.21767 19.4636C5.84201 19.4636 4.26983 19.3329 2.76316 19.3329V19.7906C4.46636 20.2483 5.44897 20.8367 5.44897 24.7599L5.51448 34.0446C5.51448 36.4639 4.53186 40.2563 1.453 41.0409V41.6294L10.7551 41.564L10.6241 40.9755Z" fill="white"/>
<path d="M121.332 19.0719V18.5488C119.563 18.5488 117.729 18.6795 116.025 18.6795C114.322 18.6795 112.488 18.5488 110.719 18.4834V19.0719C111.964 19.3988 112.685 19.7257 112.619 22.0796L112.554 34.0452C112.554 37.1837 112.357 39.9299 109.606 40.0606V40.7799L121.856 40.8453V40.126C119.366 39.9952 119.235 37.1837 119.235 34.1105L119.301 22.2104C119.432 20.2488 119.89 19.3988 121.332 19.0719Z" fill="white"/>
<path d="M74.2316 40.0604V40.5835C75.8038 40.5835 77.3759 40.4527 78.8171 40.4527C80.2583 40.4527 81.9615 40.5835 83.5336 40.5835V39.995C80.3238 39.2757 79.7997 35.4834 79.7997 33.0641V22.4063L98.5349 40.2565C98.8624 40.5835 99.452 41.1719 99.7796 41.1719H99.8451C100.107 41.1719 100.566 40.9104 100.566 40.0604V25.7409C100.566 23.2563 101.614 19.5293 104.693 18.7447V18.1562C103.12 18.1562 101.548 18.287 100.107 18.287C98.7314 18.287 96.9627 18.1562 95.3905 18.1562V18.7447C98.6004 19.4639 99.1245 23.2563 99.1245 25.6756V31.4295L84.1232 18.0908C82.6165 18.0908 80.9133 18.2216 79.5377 18.2216C78.162 18.2216 76.5898 18.0908 75.1487 18.0908V18.6139C78.162 19.2024 78.3585 21.4255 78.3585 24.1717V32.9333C78.3585 35.5488 77.3759 39.3411 74.2316 40.0604Z" fill="white"/>
<path d="M62.8989 19.9217L62.0473 19.5294C59.6235 18.4178 56.8066 17.8948 53.9898 18.0255C46.653 18.2871 39.7746 22.5372 40.0367 30.2527C40.2987 37.9682 47.439 41.7605 54.7759 41.499C62.1128 41.2374 68.9911 36.9874 68.7945 29.2719C68.6635 24.891 66.3053 21.7525 62.8989 19.9217ZM54.8414 40.3874C50.6489 40.5182 47.8321 37.3143 47.5701 29.9911C47.308 22.6679 49.9283 19.2679 54.1208 19.1371C56.6101 19.0717 58.6409 20.1833 59.8855 22.6025L60.2785 23.4525C60.9336 25.0218 61.3267 26.9834 61.3922 29.468C61.5887 36.8566 58.9684 40.2566 54.8414 40.3874Z" fill="white"/>
<path d="M156.836 18.8102V18.2871C155.264 18.2871 153.692 18.4833 152.251 18.4833C150.875 18.4833 149.107 18.3525 147.534 18.4179V19.0064C150.744 19.7256 151.334 23.4526 151.399 25.8718L151.465 31.6258L136.267 18.5486C134.76 18.5486 133.057 18.7448 131.681 18.7448C130.306 18.7448 128.734 18.614 127.292 18.6794V19.2025C130.371 19.7256 130.502 22.0141 130.568 24.6949L130.699 33.4566C130.699 35.8758 129.716 39.6682 126.703 40.4528V40.9759C128.275 40.9759 129.847 40.7797 131.288 40.7797C132.664 40.7797 134.433 40.9105 136.005 40.8451V40.2567C132.795 39.5374 132.206 35.8104 132.14 33.3912L132.009 22.7333L147.927 37.5105L148.91 38.4259L151.006 40.3221C151.334 40.649 151.923 41.2375 152.251 41.2375H152.316C152.578 41.2375 153.037 40.9759 153.037 40.1259L152.84 25.8065C152.775 23.3872 153.758 19.6602 156.836 18.8102Z" fill="white"/>
<path d="M40.9539 6.19237C41.2815 6.06159 41.609 5.93082 42.0021 5.86543C43.6398 5.53848 44.8189 6.38855 45.0809 7.8925C45.4085 9.46185 44.6224 10.4427 43.2467 10.7042C42.5261 10.835 41.9366 10.9004 41.8711 10.5735L40.9539 6.19237ZM39.8403 11.6197C40.2334 11.5543 40.6919 11.4235 41.2815 11.2928C42.3951 11.0966 42.7882 11.0312 43.7708 10.835C45.474 10.5081 46.7841 9.39646 46.3911 7.63095C45.998 5.73466 44.0983 5.08077 42.4606 5.40771C41.347 5.60388 40.6264 5.86543 39.9058 5.99621C39.5128 6.0616 39.1197 6.12698 38.7267 6.12698L38.7922 6.32316C39.7093 6.19238 39.7748 6.38854 39.9713 7.10782L40.5609 10.1811C40.6919 10.9004 40.6919 11.0966 39.8403 11.3581V11.6197Z" fill="white"/>
<path d="M49.6007 9.46C50.3867 9.26383 50.4523 9.00229 50.3867 8.34839L49.7972 5.20969C49.6662 4.62119 49.4696 4.35963 48.6835 4.4904L48.618 4.22885C49.2076 4.09807 49.8627 4.03268 50.4522 3.9019C51.6314 3.70574 52.745 3.44417 53.9242 3.18262C53.9242 3.37879 53.9897 3.57497 54.0552 3.77114C54.1207 4.09808 54.1862 4.42503 54.3172 4.68658L54.1207 4.75198C53.6621 3.96731 53.0071 3.64035 51.8279 3.9019L50.8453 4.09808L51.2383 6.05976L51.6969 5.99437C52.352 5.86359 52.876 5.47126 52.9415 4.68658L53.1381 4.62119C53.2036 5.01353 53.2691 5.40586 53.3346 5.79819C53.4001 6.19053 53.5311 6.58288 53.5966 6.97521L53.4001 7.04061C53.0726 6.25593 52.483 6.12515 51.7624 6.25592L51.3039 6.32132L51.7624 8.74071C52.0899 8.74071 52.4175 8.74073 52.876 8.67534C54.0552 8.47917 54.9068 7.75988 55.3653 6.58287L55.5619 6.64826C55.3653 7.30216 55.2343 7.89066 55.1033 8.54455C54.1862 8.67533 53.2691 8.87149 52.2865 9.06766C51.1073 9.26383 50.1247 9.5254 49.6662 9.59079L49.6007 9.46Z" fill="white"/>
<path d="M59.7542 2.65955C60.0163 2.52877 60.2128 2.46338 60.4748 2.39799C61.3264 2.26721 61.7195 2.79033 61.8505 3.44423C61.9815 4.16351 61.5885 4.752 60.8024 4.88278C60.6058 4.94817 60.2783 4.88278 60.0818 4.81739L59.7542 2.65955ZM59.0992 6.71369C59.2302 7.43298 59.1647 7.62913 58.2475 7.8253V8.02148C58.7716 7.8907 59.3612 7.8253 59.8852 7.75991C60.4093 7.69452 60.9334 7.62914 61.4574 7.56375V7.36759C60.5403 7.43298 60.4093 7.30219 60.2783 6.51751L60.0818 5.07896C60.4748 5.14435 60.8679 5.14435 61.3264 5.07896C62.309 4.94818 63.2261 4.29428 63.0951 3.31344C62.8986 2.20182 61.785 1.87487 60.6058 2.00565C60.0163 2.07104 59.4267 2.26721 58.9026 2.3326C58.3131 2.39799 57.8545 2.46339 57.527 2.46339V2.65955C58.3786 2.59416 58.5096 2.72494 58.6406 3.44423L59.0992 6.71369Z" fill="white"/>
<path d="M65.7157 1.41863C66.2397 1.41863 66.7638 1.35324 67.2878 1.35324C67.8119 1.28785 68.336 1.22247 68.9255 1.15708V1.35324C68.0084 1.48402 67.9429 1.68019 68.0084 2.39948L68.2705 5.14582C68.336 5.73432 68.86 6.32283 70.1047 6.25744C71.5458 6.12666 71.8734 5.21121 71.8079 4.62271L71.6114 2.59564C71.5458 1.48402 71.2838 1.22246 70.4322 1.28785V1.09169C70.6942 1.09169 71.1528 1.09168 71.6114 1.02629C72.0044 1.02629 72.3319 0.960897 72.725 0.895508V1.09169C71.9389 1.22247 71.8734 1.35325 71.9389 2.13792L72.1354 4.42655C72.2664 5.79973 71.4148 6.64977 69.8426 6.78055C68.0084 6.91133 67.0913 6.12666 67.0258 5.2766L66.7638 2.53024C66.6983 1.94174 66.6328 1.6148 65.6501 1.68019L65.7157 1.41863Z" fill="white"/>
<path d="M75.6732 0.699182C76.2628 0.699182 76.7869 0.699182 77.3764 0.699182C77.9005 0.699182 78.4245 0.633789 78.9486 0.633789V0.829969C78.097 0.895358 77.9005 1.09152 77.9005 1.74542L77.966 5.27644C77.966 5.73416 78.228 5.86494 79.0141 5.93033V6.12649C78.4901 6.12649 77.966 6.12649 77.4419 6.12649C76.9179 6.12649 76.3283 6.19188 75.8042 6.19188V5.99572C76.5248 5.93033 76.7869 5.73417 76.7869 5.34183L76.7213 1.81081C76.7213 1.15692 76.4593 0.895342 75.7387 0.895342L75.6732 0.699182Z" fill="white"/>
<path d="M86.2855 2.46461C86.089 1.61455 85.2374 0.960639 84.3203 0.89525C83.7962 0.89525 83.3377 1.09142 83.2721 1.61454C83.2066 2.79155 86.7441 2.79154 86.6786 4.81861C86.613 5.79945 85.7614 6.38797 84.4513 6.32258C83.8617 6.32258 83.2721 6.06102 82.6171 5.99563C82.5516 5.99563 82.2895 6.06103 82.1585 6.06103C82.093 5.47252 82.0275 4.81861 81.8965 4.16472H82.093C82.2895 5.01478 83.3377 5.86485 84.2548 5.93024C85.0409 5.93024 85.6304 5.79945 85.6304 5.14556C85.6959 3.77238 82.093 3.77239 82.1585 1.94148C82.224 0.895254 82.9446 0.50293 84.3203 0.50293C85.0409 0.50293 85.6959 0.829876 86.1545 0.829876H86.482C86.482 1.02604 86.4165 1.15682 86.4165 1.35298C86.4165 1.67993 86.4165 2.00688 86.4165 2.33382L86.2855 2.46461Z" fill="white"/>
<path d="M94.6053 6.84443C95.4569 6.97521 95.719 6.90982 95.85 5.86359L96.243 3.05186C96.3085 2.33257 96.1775 2.1364 95.3914 2.00562V1.80946C96.112 1.80946 96.7671 1.80945 97.4877 1.61328L96.8981 5.92898C96.7671 7.0406 96.9636 7.10599 97.7497 7.17138V7.36756C97.2257 7.30217 96.7016 7.17137 96.1775 7.10598C95.6535 7.04059 95.1294 6.97521 94.6053 6.90982V6.84443Z" fill="white"/>
<path d="M104.562 4.75219C104.431 5.40609 104.103 5.86381 103.448 5.73303C102.924 5.66764 102.662 5.07912 102.793 4.16367C102.924 3.44439 103.186 2.92128 103.776 2.98667C104.3 3.18284 104.759 3.70596 104.562 4.75219ZM100.959 8.08703C103.514 8.54476 105.217 7.89088 105.676 5.40609C105.872 4.22908 105.414 3.11744 103.972 2.85588C102.859 2.65972 101.876 3.11744 101.745 4.16367C101.549 5.07912 102.138 5.99457 103.186 6.12535C103.579 6.19074 104.038 6.19076 104.431 6.05998C103.907 7.56393 102.924 8.15243 101.09 7.82548L100.959 8.08703Z" fill="white"/>
<path d="M108.427 9.19909C109.279 9.39526 109.541 9.32987 109.737 8.28364L110.327 5.47189C110.458 4.7526 110.327 4.55645 109.541 4.42567L109.606 4.29489C110.261 4.36027 110.982 4.36027 111.703 4.22949L110.851 8.4798C110.654 9.52603 110.851 9.65681 111.637 9.78759V9.91837C111.113 9.7876 110.589 9.65682 110.13 9.59143C109.606 9.46065 109.082 9.39526 108.558 9.32987L108.427 9.19909Z" fill="white"/>
<path d="M114.716 10.5716V10.3754C116.091 9.59075 117.925 8.74069 118.253 7.17135C118.384 6.38667 118.122 5.86356 117.598 5.79817C117.074 5.66739 116.812 5.99435 116.681 6.32129C116.812 6.51746 116.943 6.84441 116.943 7.04058C116.877 7.30214 116.615 7.49829 116.222 7.4329C115.895 7.36751 115.633 7.10597 115.698 6.64824C115.895 5.73279 116.812 5.34045 117.794 5.60201C118.843 5.79817 119.629 6.45206 119.432 7.49829C119.17 8.87147 117.401 9.32919 116.222 10.0485L117.598 10.31C118.45 10.5062 118.712 10.3754 119.301 9.9831L119.432 10.1139C119.105 10.5062 118.712 10.8985 118.384 11.3563L114.716 10.5716Z" fill="white"/>
</g>
</svg>
