<svg width="150" height="75" viewBox="0 0 150 75" fill="none" xmlns="http://www.w3.org/2000/svg">
<path fill-rule="evenodd" clip-rule="evenodd" d="M5.63895 49.0695C4.50265 48.8887 3.04169 48.8887 1.90539 49.0695C-0.204887 49.6121 -0.529539 47.6227 0.76909 46.5375C5.47662 41.8352 18.9499 44.3672 24.7937 45.4524C27.2286 45.8141 29.8259 46.7184 32.2608 46.7184C32.5855 46.7184 32.9102 46.7184 33.2348 46.7184C34.6958 46.7184 34.5334 48.1653 33.7218 49.0695C32.9101 49.793 31.4492 50.3355 30.4752 50.5164C30.1506 50.5164 29.8259 50.6973 29.6636 50.6973C28.5273 56.123 29.0143 66.6127 31.7739 71.315C32.2608 72.0385 32.0985 72.7619 31.4492 73.1236C29.8259 74.3896 25.7677 75.113 24.3067 73.1236C21.3848 69.1447 22.0341 55.5804 23.3328 50.6973C21.7095 50.5164 20.2485 50.5164 18.6252 50.3355C16.3526 50.1547 14.08 49.9738 11.9698 49.793C11.9698 50.1547 11.8074 50.5164 11.8074 50.6973C10.6711 56.123 11.1581 66.6127 13.9177 71.315C14.4047 72.0385 14.2424 72.7619 13.593 73.1236C11.9698 74.3896 7.91155 75.113 6.45059 73.1236C3.04169 68.9639 3.52868 53.9527 5.63895 49.0695ZM34.2088 15.7917C33.2348 17.6003 32.5855 19.7706 32.2608 21.76C33.3971 21.9409 34.3711 22.1218 35.5074 22.3026C37.9423 22.6643 40.5396 23.3878 42.9745 23.2069C43.2992 23.2069 43.6238 23.2069 43.9485 23.026C45.4095 23.026 45.2471 24.4729 44.4355 25.3772C43.6238 26.2815 42.3252 26.6432 41.1889 27.0049C38.1047 27.7283 34.6958 27.5475 31.6115 27.3666C31.6115 30.6221 32.2608 35.1435 35.1828 36.5904C37.78 38.0372 41.0266 36.4095 42.9745 34.4201C43.4615 33.8775 43.7862 33.1541 44.2732 32.6115C45.4095 31.1646 46.8704 30.4412 48.656 30.8029C50.117 31.1646 50.9286 32.2498 51.091 33.8775C54.1752 30.8029 56.6101 23.2069 57.9088 18.8663C58.3957 17.4195 59.2074 15.9726 60.6684 15.6109C61.6423 15.2492 63.1033 15.2492 64.0772 15.7917C65.2135 16.3343 65.0512 17.6003 64.7266 18.8663C64.2396 22.4835 64.4019 25.7389 64.7266 28.4518C65.0512 31.7072 66.0252 34.7818 67.4861 36.9521C68.1355 37.8564 68.4601 38.7607 67.4861 39.4841C66.6745 40.0267 65.3759 40.3884 64.4019 40.3884C62.7786 40.3884 61.48 40.2075 60.6684 38.3989C59.2074 35.5052 58.5581 30.0795 58.3957 26.4623C57.4218 28.8135 56.4478 31.3455 55.1492 33.5158C53.0389 37.1329 49.9547 40.931 45.7341 40.2075C44.5978 40.0267 43.7862 39.4841 43.2992 38.2181C41.5136 39.665 38.267 40.5692 36.1567 40.5692C30.4752 40.7501 26.0924 37.6755 24.4691 31.5263C24.1444 29.7178 23.9821 27.9092 23.9821 26.1006C23.1704 26.1006 22.3588 26.1006 21.5471 26.2815C19.4369 26.6432 19.1122 24.6538 20.5732 23.5686C21.7095 22.6643 22.8458 22.1218 24.1444 21.76C24.6314 19.228 25.443 16.5152 26.904 14.5257C25.2807 14.3449 23.1704 13.9832 21.5471 14.5257C19.4369 15.0683 19.1122 13.0789 20.4108 11.9937C25.1184 7.29143 37.1307 9.82344 42.9745 10.9086C45.4095 11.2703 48.0067 12.1746 50.4416 12.1746C50.7663 12.1746 51.091 12.1746 51.4156 12.1746C52.8766 12.1746 52.7142 13.6214 51.9026 14.5257C51.091 15.2492 49.63 15.7917 48.656 15.9726C44.4355 17.0577 38.4293 16.3343 34.2088 15.7917ZM46.7081 8.73829C49.7923 10.366 53.0389 5.12114 50.117 3.49342C46.8704 1.68484 43.4615 7.11057 46.7081 8.73829ZM36.6437 7.11057C40.7019 8.91915 44.2732 2.40828 40.5396 0.418844C36.4814 -1.75145 32.5855 5.12114 36.6437 7.11057ZM121.379 26.8241C119.594 30.6221 117.483 34.9626 114.561 37.6755C111.477 40.5692 107.257 42.5587 104.984 37.4947C103.198 33.1541 103.361 20.494 106.12 16.696C107.419 14.8875 111.315 15.6109 112.776 16.696C113.425 17.0577 113.587 17.7812 113.1 18.5046C111.315 22.1218 110.179 29.1752 110.99 33.1541C111.802 36.7712 114.237 33.1541 115.373 31.7072C117.97 27.9092 119.594 23.2069 121.542 19.0472C122.516 17.0577 123.49 15.7917 125.762 15.6109C126.574 15.6109 127.385 15.6109 128.035 15.9726C129.009 16.5152 128.846 17.6003 128.684 18.5046C127.385 23.7495 127.548 32.9732 130.307 37.6755C130.632 38.3989 130.632 38.9415 129.983 39.4841C128.359 40.5692 124.626 41.2927 123.327 39.4841C121.217 36.7712 120.892 30.4412 121.379 26.8241ZM89.7252 21.76C88.5889 22.8452 87.1279 24.6538 86.3163 26.1006C85.9916 26.6432 86.1539 26.8241 86.6409 26.6432C90.5368 25.7389 92.3224 29.7178 94.108 32.7924C95.2443 34.9627 96.7053 36.9521 98.9779 37.3138C99.4649 37.3138 99.9519 37.3138 100.439 37.3138C100.926 37.1329 101.413 37.1329 101.737 37.6755C102.062 38.0372 101.9 38.7607 101.575 39.1224C101.088 39.8458 100.114 40.3884 99.3026 40.5692C97.8416 41.1118 96.056 41.2927 94.595 41.1118C91.5108 40.7501 89.4005 39.1224 87.9396 36.0478C87.1279 34.4201 85.8293 30.2603 84.3683 29.5369C84.0437 29.3561 83.8813 29.3561 83.5567 29.3561C83.0697 29.3561 82.5827 29.3561 82.258 28.8135C81.9334 28.2709 82.2581 27.5475 82.5827 27.0049C84.8553 22.8452 89.2382 16.696 93.7834 15.7917C96.543 15.2492 98.9779 16.8769 98.3286 20.3132C97.8416 22.6643 95.569 24.8346 93.2964 25.0155C91.5108 24.8346 90.0498 23.5686 89.7252 21.76ZM79.3361 60.2827C78.3622 62.8147 77.2259 65.3467 75.7649 67.517C73.4923 71.1342 70.2457 74.7513 66.0252 74.0279C60.506 73.1236 63.5903 63.3573 69.1094 64.4424C70.5704 64.8042 71.382 65.8893 71.5444 67.517C74.7909 64.4424 77.2259 56.8464 78.6868 52.5058C79.1738 50.8781 80.1478 49.6121 81.6087 49.2504C82.745 48.8887 84.206 48.8887 85.18 49.4313C86.3163 49.9738 86.1539 51.059 85.9916 52.1441C85.0176 57.2081 85.8293 66.6127 88.9135 70.5916C89.5628 71.4959 90.0498 72.4002 88.9135 73.1236C87.9395 73.6662 86.6409 74.0279 85.6669 74.0279C83.8813 74.0279 82.745 73.847 81.7711 72.0385C79.9855 69.5064 79.4985 64.0807 79.3361 60.2827ZM109.854 55.5804C108.718 56.6656 107.257 58.4741 106.445 59.921C106.12 60.4636 106.283 60.6444 106.77 60.4636C110.666 59.5593 112.451 63.5381 114.237 66.6127C115.373 68.783 116.834 70.7725 119.107 71.1342C119.594 71.1342 120.081 71.1342 120.568 71.1342C121.055 70.9533 121.542 70.9533 121.866 71.4959C122.191 71.8576 122.029 72.581 121.704 72.9427C121.217 73.6662 120.243 74.2087 119.431 74.3896C117.97 74.9322 116.185 75.113 114.724 74.9322C111.64 74.5705 109.529 72.9427 108.068 69.8682C107.257 68.2404 105.958 64.0807 104.497 63.3573C104.172 63.1764 104.01 63.1764 103.685 63.1764C103.198 63.1764 102.711 63.1764 102.387 62.6339C102.062 62.0913 102.387 61.3679 102.711 60.8253C104.984 56.6656 109.367 50.5164 113.912 49.6121C116.672 49.0695 119.107 50.6973 118.457 54.1335C117.97 56.4847 115.698 58.655 113.425 58.8358C111.64 58.655 110.179 57.389 109.854 55.5804ZM91.3484 52.1441C91.0238 51.4207 91.0238 50.8781 91.6731 50.3355C93.2964 49.2504 97.03 48.527 98.3286 50.3355C100.764 53.7718 100.439 63.5381 99.7895 67.8787C99.6272 69.3256 99.1402 71.315 98.4909 72.581C97.8416 73.6662 96.8676 74.0279 95.7313 74.2087C94.9197 74.3896 93.7834 74.2087 92.9717 73.4853C92.1601 72.7619 92.8094 71.315 92.9717 70.4107C94.2704 65.5276 93.9457 56.4847 91.3484 52.1441ZM141.021 60.4636C139.235 64.2616 137.125 68.6022 134.203 71.315C131.444 73.847 127.385 76.1982 125.113 71.6767C123.003 67.517 123.003 53.7718 125.924 50.1547C126.411 49.6121 127.061 49.4313 127.71 49.2504C129.171 49.0695 131.931 49.4312 132.742 50.6973C133.067 51.2398 132.905 51.6015 132.58 52.1441C131.119 55.3996 130.307 59.7401 130.47 63.3573C130.47 68.783 131.768 69.8682 135.015 64.985C137.612 61.187 139.235 56.4847 141.183 52.325C142.157 50.3355 143.131 49.0695 145.404 48.8887C146.216 48.8887 147.027 48.8887 147.676 49.2504C148.813 49.793 148.488 50.8781 148.163 52.1441C146.865 57.2081 147.189 66.6127 149.787 70.9533C150.111 71.6767 150.111 72.2193 149.462 72.7619C147.839 73.847 144.105 74.5705 142.807 72.7619C140.859 70.5916 140.534 64.2616 141.021 60.4636ZM51.091 61.0061C51.091 64.6233 51.2533 70.7724 53.0389 73.3045C54.3375 75.113 58.2334 74.3896 59.6944 73.3045C60.3437 72.9427 60.3437 72.2193 60.019 71.4959C57.2594 66.9744 57.0971 57.5698 58.3957 52.1441C58.5581 51.7824 58.5581 51.2398 58.5581 50.8781C58.5581 50.5164 58.3957 50.1547 58.2334 49.9738C57.2594 49.0695 55.4738 49.0695 54.4999 49.4313C53.2012 49.793 52.5519 50.6973 51.9026 51.9633C49.63 49.793 46.3834 48.8887 43.4615 49.2504C38.4293 49.793 35.5074 54.1335 34.3711 59.3784C33.3971 63.5381 33.5595 71.4959 37.6177 73.6662C40.0526 74.9322 42.6499 73.1236 44.4355 71.4959C47.1951 68.783 49.3053 64.6233 51.091 61.0061ZM50.4416 55.0378C48.9807 58.4741 47.6821 62.2721 45.5718 65.1659C38.5917 75.113 38.9163 52.6867 45.2471 52.8676C47.0327 53.0484 48.9807 53.591 50.4416 55.0378Z" fill="white"/>
<path fill-rule="evenodd" clip-rule="evenodd" d="M70.8949 46.8993L73.6545 46.5376C75.2778 46.1759 75.6024 47.6227 74.7908 48.7079L73.0052 51.2399L73.8168 54.3144C74.1415 55.5804 73.4922 56.6656 72.0312 56.3039L69.2716 55.5805L66.6744 57.7507C65.8627 58.655 64.4017 58.4742 64.5641 56.8465L64.7264 53.591L62.6161 52.1442C61.3175 51.2399 61.8045 50.1547 62.9408 49.6121L65.8627 48.3461L66.8367 44.729C67.1613 43.463 68.2976 43.1013 69.1093 44.1864L70.8949 46.8993ZM69.9209 15.0683C69.1093 15.7918 69.4339 16.5152 69.7586 16.8769C73.1675 23.0261 74.1415 31.1647 72.6805 39.3033C71.8689 44.0056 74.4661 43.1013 76.0894 40.7501C80.31 34.7818 80.7969 25.7389 79.336 19.4089C79.0113 17.9621 78.1997 15.4301 77.0634 14.5258C74.9531 12.8981 71.3819 13.8023 69.9209 15.0683Z" fill="#FFED00"/>
</svg>
