<svg width="160" height="51" viewBox="0 0 160 51" fill="none" xmlns="http://www.w3.org/2000/svg">
<path d="M69.1488 50.3848C65.3321 47.6974 60.687 46.5162 56.4561 46.6934C52.1956 46.8705 50.2724 50.06 50.2724 50.06C48.3493 46.6934 44.5326 44.6557 38.6448 44.6852C29.1178 44.8033 19.6796 49.174 12.2238 49.174C5.03416 49.174 -0.173116 44.6852 0.00440461 36.6821C0.300273 22.6841 12.1646 10.0446 21.011 4.37447C26.1 1.09646 30.3605 0.151441 33.1712 0.446758C35.2127 0.683011 37.6684 3.01602 36.1003 6.47122C33.8221 11.5507 30.7155 11.1077 30.8043 8.6861C30.8635 7.12092 31.9286 6.11684 32.6978 5.58527C33.2008 5.23089 34.0884 5.1423 34.5322 5.1423C34.976 4.75838 35.3311 1.98241 31.6623 2.89789C28.0231 3.81337 23.6147 7.3867 19.4429 11.9936C15.2416 16.6006 8.73252 25.342 7.13483 34.5263C6.39516 38.7789 6.89813 46.5457 16.9872 46.4571C25.5378 46.3685 38.1714 40.7575 49.7694 40.8461C54.2666 40.8756 58.2017 42.0864 61.2491 43.9764C64.267 45.8369 67.8766 48.5243 69.1488 50.3848ZM71.8708 24.9876H73.6164C73.6164 24.9876 64.8291 37.6862 59.8585 37.0956C57.0774 36.7707 57.9058 33.345 57.9058 33.345C57.9058 33.345 54.0004 37.8929 50.4499 36.9774C47.1954 36.1506 49.296 30.7463 49.296 30.7463C48.941 30.8939 41.8993 38.8084 36.9879 36.9184C31.8398 34.9397 34.5026 28.3247 35.479 26.3165C36.3074 24.6332 37.2246 23.009 37.2246 23.009C37.2246 23.009 36.4258 23.2452 35.9524 23.3338C35.4494 23.4519 34.7097 23.5996 34.7097 23.5996C34.7097 23.5996 32.254 27.5568 30.7747 29.5355C29.2954 31.5141 22.9342 38.3064 19.2063 36.9479C15.4783 35.5894 16.3955 30.3919 18.4962 26.2279C21.8987 19.4947 29.9759 11.2258 34.8281 12.4662C39.7395 13.7065 35.6861 21.68 35.6861 21.68C35.6861 21.68 36.6625 21.7982 38.9998 20.2034C42.3727 17.9 46.8108 11.7279 51.6334 12.4366C53.9116 12.7615 56.0123 15.0945 53.1127 19.4947C52.1956 20.9122 50.6275 22.1821 49.444 20.9122C48.7043 20.1444 49.3552 18.7269 50.1245 17.7523C51.2192 16.3643 52.7281 16.5711 52.7281 16.5711C52.7281 16.5711 53.527 14.7401 51.5151 14.7696C49.8878 14.7991 45.716 18.6087 43.3787 22.4774C41.2188 26.0212 37.9643 32.0456 41.2484 33.3746C44.2367 34.5854 49.947 27.8226 52.5802 24.2788C55.2134 20.735 61.2195 12.7024 66.2789 12.3776C68.0245 12.2594 69.06 13.8541 69.06 13.8541L69.6518 12.9387H74.6815C74.6815 12.9387 65.1842 28.7972 64.4445 29.9784C63.8528 30.9234 63.0835 33.0202 65.2433 31.8389C67.4032 30.7167 71.8708 24.9876 71.8708 24.9876ZM32.7274 23.3633C32.6387 23.3338 31.3664 22.9794 30.1238 22.1821C28.8811 21.3847 28.319 20.2034 28.2598 20.1444C28.2302 20.0558 28.1711 20.1148 28.1119 20.2034C28.0527 20.2625 27.7864 20.6169 26.0112 23.2452C24.2064 25.8735 21.5436 31.2778 24.0585 32.1933C25.6562 32.7839 28.3486 29.9784 29.7983 28.1179C31.1593 26.4051 32.757 23.7472 32.8162 23.5996C32.905 23.4224 32.8162 23.3929 32.7274 23.3633ZM34.7393 14.9468C33.4079 13.9427 30.035 16.2757 30.035 18.6678C30.0054 21.1189 33.0825 21.7982 33.4671 21.8277C33.4671 21.8277 33.8221 21.9163 33.9405 21.621C34.0292 21.4438 34.4435 20.6759 34.9169 19.4652C35.3902 18.2544 35.982 15.8623 34.7393 14.9468ZM60.4503 28.1475C62.4918 25.3715 68.1133 15.5965 68.1133 15.5965C68.1133 15.5965 68.0245 14.9173 67.3736 14.8877C66.6043 14.8582 65.3025 15.124 62.7285 18.343C60.1544 21.5619 58.1425 24.1312 56.6928 26.789C55.0951 29.7126 54.385 31.7503 55.3022 32.3114C55.5685 32.4591 55.9531 32.4886 56.2785 32.4C56.8703 32.2524 57.6691 31.6617 58.7342 30.4214C59.2076 29.8308 59.7698 29.063 60.4503 28.1475ZM83.1138 12.9977H78.3207L75.6283 17.3684H80.4214L83.1138 12.9977ZM145.956 45.5712C145.483 45.5712 145.069 45.7483 144.743 46.0732C144.418 46.398 144.24 46.8115 144.24 47.284C144.24 47.7565 144.418 48.1699 144.743 48.5243C145.069 48.8492 145.483 49.0264 145.956 49.0264C146.43 49.0264 146.844 48.8492 147.199 48.5243C147.524 48.1699 147.702 47.7565 147.702 47.284C147.702 46.8115 147.524 46.398 147.199 46.0732C146.844 45.7483 146.459 45.5712 145.956 45.5712ZM147.968 47.3135C147.968 47.8746 147.791 48.3471 147.376 48.731C146.992 49.1149 146.489 49.3217 145.956 49.3217C145.394 49.3217 144.921 49.1149 144.536 48.731C144.151 48.3471 143.944 47.8746 143.944 47.3135C143.944 46.7524 144.151 46.2799 144.536 45.896C144.921 45.5121 145.394 45.3054 145.956 45.3054C146.518 45.3054 146.992 45.5121 147.376 45.896C147.791 46.2799 147.968 46.7524 147.968 47.3135ZM146.489 46.8705C146.489 46.7229 146.43 46.6048 146.341 46.5457C146.252 46.4866 146.075 46.4571 145.867 46.4571H145.542V47.2545H145.897C146.075 47.2545 146.193 47.2249 146.252 47.2249C146.4 47.1659 146.489 47.0477 146.489 46.8705ZM145.157 46.2208H145.927C146.193 46.2208 146.4 46.2504 146.518 46.3094C146.755 46.398 146.873 46.6048 146.873 46.8705C146.873 47.0773 146.814 47.2249 146.666 47.3135C146.607 47.3726 146.489 47.4021 146.341 47.4316C146.518 47.4612 146.637 47.5202 146.725 47.6384C146.814 47.7565 146.844 47.8746 146.844 47.9927V48.2881C146.844 48.3471 146.844 48.3767 146.873 48.4062V48.4357H146.518V48.1109C146.518 47.8451 146.459 47.6974 146.311 47.6088C146.222 47.5498 146.075 47.5202 145.897 47.5202H145.572V48.4062H145.187V46.2208H145.157ZM153.856 5.1423C150.305 7.41623 145.394 9.48345 140.69 9.01094C139.506 10.2513 138.234 11.6688 136.932 13.234C145.098 14.8582 152.258 9.77877 156.075 5.46714C158.442 2.77976 159.625 0.387695 159.625 0.387695C159.625 0.387695 157.347 2.89789 153.856 5.1423ZM139.832 42.2341C139.151 43.3267 138.382 45.394 140.631 44.0946C143.353 42.5294 147.258 36.6231 147.258 36.6231H149.004C149.004 36.6231 146.696 40.285 143.678 43.6221C140.926 46.6638 137.554 49.4693 135.157 49.174C132.376 48.8492 133.263 45.2168 133.263 45.2168C133.263 45.2168 129.269 49.4398 126.547 49.1445C122.849 48.731 123.973 44.1536 123.973 44.1536C123.973 44.1536 119.772 49.2921 116.932 49.1445C112.434 48.8787 113.559 43.4153 114.831 39.6058C115.511 37.5681 116.103 35.9438 116.103 35.9438C116.103 35.9438 115.659 36.062 114.713 36.2096C114.21 36.2982 113.292 36.3277 113.292 36.3277C113.292 36.3277 111.428 39.6058 109.949 41.5844C108.47 43.563 102.109 50.3553 98.3806 48.9968C94.9189 47.727 96.0728 42.4703 98.0847 38.2768C101.014 32.1638 109.269 23.3929 114.002 24.5151C118.943 25.6963 114.121 34.7035 114.121 34.7035C114.121 34.7035 114.121 34.733 114.18 34.7626C114.269 34.7921 114.535 34.8216 115.127 34.7035C116.074 34.5263 116.932 34.1719 116.932 34.1719C116.932 34.1719 121.873 23.8063 127.376 17.014C132.849 10.2217 143.767 -1.44327 148.057 1.36224C149.122 2.04147 148.619 4.43354 147.228 7.35717C146.607 7.56389 145.956 7.74108 145.305 7.85921C146.252 6.14637 146.873 4.69932 147.051 3.69524C147.702 0.180973 139.506 7.56389 133.648 15.5374C127.79 23.4815 124.269 30.6872 124.269 30.6872C124.269 30.6872 125.453 30.008 127.287 28.5314C129.21 26.9957 131.843 24.5741 134.713 21.5914C136.636 19.6128 138.915 17.1026 141.045 14.2971C141.666 14.2676 142.287 14.2085 142.909 14.0904C140.542 17.2798 138.057 20.1739 135.926 22.3297C133.589 24.6923 131.074 27.232 128.855 29.0629C125.364 31.9866 122.671 33.6699 122.671 33.6699C122.671 33.6699 117.553 43.9764 120.334 44.6261C121.961 45.01 125.216 40.0487 125.216 40.0487C125.216 40.0487 129.447 33.6108 131.962 30.7167C135.423 26.7595 138.412 24.4855 141.4 24.456C143.145 24.4265 144.181 26.287 144.181 26.287L145.009 25.0171H150.039C149.98 25.1057 140.571 41.0528 139.832 42.2341ZM111.488 35.9734C111.399 35.9438 110.304 35.4418 109.18 34.4968C108.055 33.5518 107.464 32.4591 107.434 32.4C107.375 32.3114 107.345 32.3705 107.286 32.4591C107.227 32.5182 107.02 32.6953 105.245 35.3532C103.44 37.9815 100.688 43.4449 103.203 44.3604C104.801 44.951 107.464 42.1455 108.913 40.3145C110.274 38.6017 111.517 36.4163 111.606 36.2391C111.635 36.0324 111.576 36.0029 111.488 35.9734ZM114.032 31.5141C114.505 30.3033 115.097 27.9112 113.854 26.9957C112.523 25.9916 109.15 28.3247 109.15 30.7167C109.121 33.1678 111.517 34.2605 112.109 34.4377C112.434 34.5263 112.553 34.5263 112.701 34.2605C112.789 34.0538 113.559 32.7249 114.032 31.5141ZM142.968 28.1475C143.086 27.9703 143.116 27.7931 143.116 27.7931C143.116 27.7931 143.027 27.1139 142.376 27.0843C141.607 27.0548 140.542 27.2024 137.761 30.2737C134.979 33.345 133.293 36.0029 131.843 38.6607C130.246 41.5844 129.595 43.7402 130.512 44.3013C130.778 44.4489 131.163 44.4785 131.488 44.3899C132.11 44.2422 132.82 43.6516 133.885 42.4113C134.388 41.8206 134.95 41.0233 135.601 40.1078C137.435 37.6271 142.051 29.7422 142.968 28.1475ZM153.856 5.1423C150.305 7.41623 145.394 9.48345 140.69 9.01094C139.506 10.2513 138.234 11.6688 136.932 13.234C145.098 14.8582 152.258 9.77877 156.075 5.46714C158.442 2.77976 159.625 0.387695 159.625 0.387695C159.625 0.387695 157.347 2.89789 153.856 5.1423ZM130.867 11.0782C126.991 9.09954 124.18 6.67794 121.222 5.17182C118.411 3.72477 116.606 3.13414 114.328 3.42946C113.943 3.48852 113.381 3.66571 113.381 3.66571C113.381 3.66571 114.565 7.65249 109.919 14.3562C105.215 21.1485 100.925 21.0894 99.712 19.2289C98.4398 17.2503 100.067 13.2635 102.819 9.69017C105.689 5.96918 110.748 2.86836 110.748 2.86836C110.748 2.86836 109.15 1.89381 105.186 4.13822C101.339 6.32356 94.6822 11.4916 88.5578 20.233C82.4037 28.9743 81.1906 33.788 80.303 37.5681C79.4154 41.3481 80.2143 45.394 84.4452 45.394C88.6465 45.394 93.5579 38.9856 94.9189 36.7707C97.493 32.6363 99.1498 26.2574 95.6586 27.1434C93.9426 27.5864 92.552 29.4764 91.6644 31.3074C90.7768 33.1974 90.3921 34.9988 90.3921 34.9988C90.3921 34.9988 88.9424 35.5304 86.9897 36.9774C85.0369 38.4245 83.7647 39.842 83.7647 39.842C83.7647 39.842 83.7647 36.8298 86.1908 31.9275C88.6169 27.0253 93.055 24.7809 95.5403 24.5741C97.8184 24.3969 100.748 26.3165 98.2622 33.4041C95.7769 40.4917 88.4098 49.0854 80.6581 49.2035C73.5276 49.3217 68.8233 40.1964 78.7645 24.3379C89.7412 6.76653 102.671 1.39177 106.842 0.801141C111.044 0.210508 112.405 2.04147 112.405 2.04147C112.405 2.04147 115.926 0.417229 120.364 0.712545C125.482 1.06693 129.447 4.66979 134.654 7.20951C133.323 8.44984 132.021 9.8083 130.867 11.0782ZM111.813 4.19728C111.813 4.19728 108.825 5.37855 105.333 9.21767C101.842 13.0568 99.8303 17.3684 101.339 18.4906C101.901 18.9336 103.233 18.9926 105.659 16.8368C107.552 15.1535 109.446 12.9387 110.748 9.77877C112.316 5.96918 111.813 4.22681 111.813 4.19728Z" fill="white"/>
</svg>
