<svg width="64" height="64" viewBox="0 0 64 64" fill="none" xmlns="http://www.w3.org/2000/svg">
<path d="M26.375 33.875H37.625V37.625H26.375V33.875Z" fill="#691D35"/>
<path d="M51.9224 37.6245H41.375V39.4995C41.375 40.5356 40.5361 41.3745 39.5 41.3745H24.5C23.4639 41.3745 22.625 40.5356 22.625 39.4995V37.6245H12.0776C9.65332 37.6245 7.50928 36.0791 6.7417 33.7793L0 13.5508V54.4995C0 57.6011 2.52344 60.1245 5.625 60.1245H58.375C61.4766 60.1245 64 57.6011 64 54.4995V13.5522L57.2578 33.7793C56.4907 36.0791 54.3467 37.6245 51.9224 37.6245Z" fill="#691D35"/>
<path d="M39.5 3.875H24.5C21.3984 3.875 18.875 6.39844 18.875 9.5V11.375H3.22607L10.2979 32.5933C10.5542 33.3604 11.27 33.875 12.0776 33.875H22.625V32C22.625 30.9639 23.4639 30.125 24.5 30.125H39.5C40.5361 30.125 41.375 30.9639 41.375 32V33.875H51.9224C52.73 33.875 53.4458 33.3604 53.7021 32.5933L60.7744 11.375H45.125V9.5C45.125 6.39844 42.6016 3.875 39.5 3.875ZM22.625 11.375V9.5C22.625 8.46533 23.4653 7.625 24.5 7.625H39.5C40.5347 7.625 41.375 8.46533 41.375 9.5V11.375H22.625Z" fill="#691D35"/>
</svg>
