<svg width="30" height="31" viewBox="0 0 40 41" fill="none" xmlns="http://www.w3.org/2000/svg">
<g clip-path="url(#clip0)">
<path d="M20 0.173737C9 0.173737 0 9.17374 0 20.1737C0 31.1737 9 40.1737 20 40.1737C31 40.1737 40 31.1737 40 20.1737C40 9.17374 31 0.173737 20 0.173737ZM20 32.6737C13.1 32.6737 7.5 27.0737 7.5 20.1737C7.5 13.2737 13.1 7.67374 20 7.67374C26.9 7.67374 32.5 13.2737 32.5 20.1737C32.5 27.0737 26.9 32.6737 20 32.6737Z" fill="white"/>
<path d="M24.0999 26.0737L18.7 20.6737V12.6737H21.1999V19.6737L25.7999 24.2737L24.0999 26.0737Z" fill="white"/>
</g>
<defs>
<clipPath id="clip0">
<rect y="0.173737" width="40" height="40" fill="white"/>
</clipPath>
</defs>
</svg>
