<svg width="30" height="19" viewBox="0 0 30 19" fill="none" xmlns="http://www.w3.org/2000/svg">
<path d="M28.667 14.3037C28.0144 13.4991 27.2772 12.7807 26.5641 12.0859C26.3136 11.8417 26.0544 11.5892 25.8048 11.3384C25.8047 11.3384 25.8047 11.3383 25.8046 11.3382C25.4689 11.0013 25.3045 10.7622 25.2873 10.5855C25.2705 10.4119 25.3858 10.1543 25.651 9.77354C26.0476 9.20084 26.4704 8.62716 26.8794 8.07242C27.2429 7.57929 27.6187 7.06933 27.979 6.55649L28.0598 6.44134C28.7627 5.44049 29.4893 4.40557 29.8788 3.14441C29.99 2.78282 30.1055 2.24773 29.8269 1.77798C29.5482 1.30812 29.0316 1.16886 28.6675 1.10508C28.4897 1.07373 28.3209 1.07114 28.1639 1.07114L23.6049 1.06698C22.8167 1.05348 22.2699 1.43786 21.9719 2.20975C21.7334 2.82622 21.4518 3.54066 21.1255 4.21839C20.5011 5.52676 19.7078 7.0337 18.558 8.28926L18.5069 8.34521C18.4286 8.43117 18.3007 8.57176 18.235 8.60401C18.1104 8.52347 17.9667 8.06283 17.9733 7.82151C17.9734 7.81554 17.9735 7.80963 17.9735 7.80373L17.9695 2.38391C17.9695 2.35636 17.9676 2.32881 17.964 2.3015C17.8618 1.52828 17.6624 0.753137 16.473 0.511635C16.4348 0.503858 16.396 0.5 16.3572 0.5H11.6149C10.7227 0.5 10.2508 0.920368 9.87247 1.37612C9.76295 1.50899 9.47198 1.86178 9.62022 2.29306C9.77022 2.72947 10.2172 2.81658 10.3639 2.84515C10.8807 2.94607 11.1479 3.24659 11.2307 3.82111C11.3942 4.93741 11.4143 6.1316 11.2938 7.57742C11.2603 7.96559 11.1978 8.26063 11.097 8.50599C11.0691 8.57393 11.0446 8.61601 11.0275 8.64079C11.0002 8.62945 10.9577 8.60775 10.8989 8.56633C10.5358 8.31066 10.2621 7.9132 9.99739 7.52895C8.94023 5.9933 8.05101 4.29724 7.27857 2.3431C6.96046 1.54233 6.36245 1.09507 5.5958 1.0835C4.13517 1.05848 2.78429 1.05908 1.46733 1.08543C0.846171 1.09652 0.410583 1.29769 0.172456 1.68346C-0.0659627 2.06995 -0.0572322 2.56272 0.198472 3.14833C2.02637 7.33031 3.68611 10.3725 5.57987 13.0127C6.91329 14.8714 8.25556 16.1616 9.80403 17.0731C11.431 18.0307 13.2658 18.5001 15.3944 18.5C15.6364 18.5 15.8827 18.4939 16.1322 18.4817C17.4455 18.4201 17.9798 17.8827 18.0381 16.5667C18.0708 15.8712 18.1461 15.3078 18.4071 14.8183C18.4801 14.6812 18.5625 14.5894 18.6274 14.5725C18.6964 14.5548 18.8188 14.5983 18.955 14.6893C19.2038 14.8555 19.4181 15.081 19.5943 15.2789C19.7729 15.4801 19.9533 15.6879 20.128 15.8888C20.4997 16.3167 20.884 16.7591 21.2866 17.1811C22.1974 18.1362 23.2473 18.5743 24.4084 18.4825L28.5806 18.4845C28.5807 18.4845 28.5808 18.4845 28.5808 18.4845C28.5941 18.4845 28.6073 18.4841 28.6206 18.4832C29.1018 18.4502 29.5179 18.1761 29.7622 17.7309C30.0564 17.1949 30.052 16.5159 29.7501 15.9139C29.4351 15.2881 29.0264 14.7495 28.667 14.3037ZM28.7215 17.1263C28.664 17.2312 28.593 17.2503 28.5564 17.2549L24.3851 17.2529C24.385 17.2529 24.3849 17.2529 24.3847 17.2529C24.3682 17.2529 24.3518 17.2535 24.3354 17.255C23.5136 17.3254 22.8151 17.0282 22.1397 16.3198C21.7565 15.9182 21.3816 15.4868 21.0191 15.0695C20.8424 14.8661 20.6598 14.6558 20.4763 14.4491C20.2487 14.1934 19.9674 13.8995 19.6059 13.658C19.0648 13.2966 18.6163 13.3075 18.3354 13.3803C18.0575 13.4524 17.6625 13.658 17.3593 14.2273C16.9664 14.9639 16.8798 15.7586 16.8445 16.5093C16.8241 16.9685 16.7487 17.0898 16.7171 17.1206C16.6758 17.1609 16.5378 17.232 16.0772 17.2536C13.8637 17.3607 12.0062 16.9528 10.3976 16.0059C8.99824 15.1822 7.77292 13.999 6.54157 12.2826C4.70025 9.71573 3.08013 6.74319 1.28861 2.6444C1.22369 2.49592 1.20365 2.40326 1.19785 2.35365C1.24356 2.33821 1.33285 2.3179 1.48942 2.31494C2.79302 2.28896 4.12978 2.28824 5.57723 2.31308C5.77539 2.31609 6.00104 2.37728 6.1719 2.80741C6.97897 4.84921 7.91126 6.62612 9.02221 8.23983C9.31717 8.66816 9.68432 9.20132 10.2239 9.58117C10.7182 9.92938 11.1192 9.91274 11.3687 9.83751C11.6183 9.76221 11.9647 9.55302 12.1981 8.98465C12.3486 8.6183 12.4396 8.20577 12.4846 7.68454C12.6134 6.13805 12.5905 4.85229 12.4129 3.63953C12.2877 2.77064 11.8516 2.14295 11.1647 1.82242C11.2867 1.75707 11.4242 1.72982 11.6151 1.72982H16.2954C16.5587 1.79058 16.6108 1.86196 16.6287 1.88638C16.7045 1.99013 16.7479 2.23555 16.7744 2.42732L16.7784 7.79716C16.7678 8.31193 17.011 9.45361 17.8389 9.76667C17.8457 9.76926 17.8526 9.77168 17.8594 9.77397C18.6132 10.0274 19.1118 9.47996 19.3794 9.18582L19.4271 9.13362C20.6866 7.75821 21.5348 6.15113 22.1974 4.76246C22.5428 4.04537 22.8353 3.30362 23.0826 2.66424C23.2064 2.34358 23.319 2.29077 23.5877 2.29662C23.5914 2.29674 23.595 2.29674 23.5988 2.29674L28.1635 2.3009C28.2697 2.3009 28.3805 2.30216 28.4665 2.3173C28.684 2.3554 28.7736 2.40182 28.8031 2.42105C28.8061 2.45667 28.8054 2.55916 28.7397 2.77305C28.4086 3.84546 27.7687 4.75661 27.0913 5.7213L27.0103 5.83662C26.6584 6.33771 26.2867 6.84188 25.9273 7.32952C25.5131 7.89144 25.0849 8.47241 24.6789 9.05874C23.8109 10.3048 23.8872 11.1316 24.9704 12.2187C25.2264 12.4758 25.4888 12.7316 25.7426 12.9788C26.4622 13.6801 27.1419 14.3425 27.7486 15.0904C28.0661 15.4843 28.4262 15.9574 28.6885 16.4787C28.8254 16.7516 28.7918 16.9982 28.7215 17.1263Z" fill="#691D35"/>
</svg>
