<svg width="45" height="45" viewBox="0 0 45 45" fill="none" xmlns="http://www.w3.org/2000/svg">
<circle cx="22.5" cy="22.5" r="22.5" fill="white"/>
<g clip-path="url(#clip0)">
<path d="M22.5 7.5C17.0723 7.5 12.6562 11.9861 12.6562 17.5C12.6562 19.1553 13.0636 20.7965 13.8381 22.2522L21.9617 37.1777C22.0698 37.3767 22.2759 37.5 22.5 37.5C22.7241 37.5 22.9302 37.3767 23.0383 37.1777L31.1649 22.2473C31.9364 20.7965 32.3437 19.1552 32.3437 17.5C32.3437 11.9861 27.9277 7.5 22.5 7.5ZM22.5 22.5C19.7861 22.5 17.5782 20.257 17.5782 17.5C17.5782 14.7431 19.7861 12.5 22.5 12.5C25.2139 12.5 27.4218 14.7431 27.4218 17.5C27.4218 20.257 25.2139 22.5 22.5 22.5Z" fill="#783349"/>
</g>
<defs>
<clipPath id="clip0">
<rect x="7.5" y="7.5" width="30" height="30" fill="white"/>
</clipPath>
</defs>
</svg>
