<svg width="45" height="45" viewBox="0 0 45 45" fill="none" xmlns="http://www.w3.org/2000/svg">
<circle cx="22.5" cy="22.5" r="22.5" fill="white"/>
<path d="M22.7308 12.3457C24.0466 12.3457 25.3086 12.8684 26.2391 13.7989C27.1696 14.7294 27.6923 15.9914 27.6923 17.3072C27.6923 18.6231 27.1696 19.8851 26.2391 20.8156C25.3086 21.746 24.0466 22.2688 22.7308 22.2688C21.4149 22.2688 20.1529 21.746 19.2224 20.8156C18.2919 19.8851 17.7692 18.6231 17.7692 17.3072C17.7692 15.9914 18.2919 14.7294 19.2224 13.7989C20.1529 12.8684 21.4149 12.3457 22.7308 12.3457V12.3457ZM22.7308 24.7496C28.2133 24.7496 32.6538 26.9698 32.6538 29.7111V32.1919H12.8077V29.7111C12.8077 26.9698 17.2483 24.7496 22.7308 24.7496Z" fill="#783349"/>
</svg>
