<svg width="44" height="44" viewBox="0 0 44 44" fill="none" xmlns="http://www.w3.org/2000/svg">
<path d="M22 0.333496C24.8732 0.333496 27.6287 1.47486 29.6604 3.50651C31.692 5.53815 32.8334 8.29365 32.8334 11.1668C32.8334 14.04 31.692 16.7955 29.6604 18.8272C27.6287 20.8588 24.8732 22.0002 22 22.0002C19.1269 22.0002 16.3714 20.8588 14.3397 18.8272C12.3081 16.7955 11.1667 14.04 11.1667 11.1668C11.1667 8.29365 12.3081 5.53815 14.3397 3.50651C16.3714 1.47486 19.1269 0.333496 22 0.333496ZM22 27.4168C33.9709 27.4168 43.6667 32.2647 43.6667 38.2502V43.6668H0.333374V38.2502C0.333374 32.2647 10.0292 27.4168 22 27.4168Z" fill="#691D35"/>
</svg>
