<svg width="30" height="30" viewBox="0 0 120 120" fill="none" xmlns="http://www.w3.org/2000/svg">
<path d="M60 0C26.8 0 0 26.8 0 60C0 93.2 26.8 120 60 120C93.2 120 120 93.2 120 60C120 26.8 93.2 0 60 0ZM74.4 88.8C76.4 90.8 76.4 94 74.4 96C72.4 98 69.2 98 67.2 96L34 62.8C33.6 62.4 33.2 62 33.2 61.6C32.8 61.2 32.8 60.4 32.8 60C32.8 59.6 32.8 58.8 33.2 58.4C33.6 58 33.6 57.6 34 57.2L67.2 24C67.6 23.6 68.4 23.2 68.8 22.8C69.6 22.4 70 22.4 70.8 22.4C71.6 22.4 72 22.4 72.8 22.8C73.6 23.2 74 23.6 74.4 24C76.4 26 76.4 29.2 74.4 31.2L45.6 60L74.4 88.8Z" fill="white"/>
</svg>
