<svg width="30" height="30" viewBox="0 0 30 30" fill="none" xmlns="http://www.w3.org/2000/svg">
<circle cx="15" cy="15" r="15" fill="white"/>
<path d="M22.875 13.8571C23.1855 13.8571 23.4507 13.9688 23.6704 14.192C23.8901 14.4152 24 14.6845 24 15C24 15.3155 23.8901 15.5848 23.6704 15.808C23.4507 16.0312 23.1855 16.1429 22.875 16.1429H22.7432L21.7324 22.0536C21.6855 22.3274 21.5566 22.5536 21.3457 22.7321C21.1348 22.9107 20.8945 23 20.625 23H9.375C9.10547 23 8.86523 22.9107 8.6543 22.7321C8.44336 22.5536 8.31445 22.3274 8.26758 22.0536L7.25684 16.1429H7.125C6.81445 16.1429 6.54932 16.0312 6.32959 15.808C6.10986 15.5848 6 15.3155 6 15C6 14.6845 6.10986 14.4152 6.32959 14.192C6.54932 13.9688 6.81445 13.8571 7.125 13.8571H22.875ZM10.2627 21C10.415 20.9881 10.5425 20.9211 10.645 20.7991C10.7476 20.6771 10.793 20.5387 10.7812 20.3839L10.5 16.6696C10.4883 16.5149 10.4224 16.3854 10.3022 16.2812C10.1821 16.1771 10.0459 16.131 9.89355 16.1429C9.74121 16.1548 9.61377 16.2217 9.51123 16.3438C9.40869 16.4658 9.36328 16.6042 9.375 16.7589L9.65625 20.4732C9.66797 20.622 9.72803 20.747 9.83643 20.8482C9.94482 20.9494 10.0723 21 10.2188 21H10.2627ZM13.875 20.4286V16.7143C13.875 16.5595 13.8193 16.4256 13.708 16.3125C13.5967 16.1994 13.4648 16.1429 13.3125 16.1429C13.1602 16.1429 13.0283 16.1994 12.917 16.3125C12.8057 16.4256 12.75 16.5595 12.75 16.7143V20.4286C12.75 20.5833 12.8057 20.7173 12.917 20.8304C13.0283 20.9435 13.1602 21 13.3125 21C13.4648 21 13.5967 20.9435 13.708 20.8304C13.8193 20.7173 13.875 20.5833 13.875 20.4286ZM17.25 20.4286V16.7143C17.25 16.5595 17.1943 16.4256 17.083 16.3125C16.9717 16.1994 16.8398 16.1429 16.6875 16.1429C16.5352 16.1429 16.4033 16.1994 16.292 16.3125C16.1807 16.4256 16.125 16.5595 16.125 16.7143V20.4286C16.125 20.5833 16.1807 20.7173 16.292 20.8304C16.4033 20.9435 16.5352 21 16.6875 21C16.8398 21 16.9717 20.9435 17.083 20.8304C17.1943 20.7173 17.25 20.5833 17.25 20.4286ZM20.3438 20.4732L20.625 16.7589C20.6367 16.6042 20.5913 16.4658 20.4888 16.3438C20.3862 16.2217 20.2588 16.1548 20.1064 16.1429C19.9541 16.131 19.8179 16.1771 19.6978 16.2812C19.5776 16.3854 19.5117 16.5149 19.5 16.6696L19.2188 20.3839C19.207 20.5387 19.2524 20.6771 19.355 20.7991C19.4575 20.9211 19.585 20.9881 19.7373 21H19.7812C19.9277 21 20.0552 20.9494 20.1636 20.8482C20.272 20.747 20.332 20.622 20.3438 20.4732ZM10.1836 9.60714L9.36621 13.2857H8.20605L9.09375 9.34821C9.20508 8.8244 9.46582 8.39732 9.87598 8.06696C10.2861 7.73661 10.7549 7.57143 11.2822 7.57143H12.75C12.75 7.41667 12.8057 7.28274 12.917 7.16964C13.0283 7.05655 13.1602 7 13.3125 7H16.6875C16.8398 7 16.9717 7.05655 17.083 7.16964C17.1943 7.28274 17.25 7.41667 17.25 7.57143H18.7178C19.2451 7.57143 19.7139 7.73661 20.124 8.06696C20.5342 8.39732 20.7949 8.8244 20.9062 9.34821L21.7939 13.2857H20.6338L19.8164 9.60714C19.752 9.34524 19.6187 9.13095 19.4165 8.96429C19.2144 8.79762 18.9814 8.71429 18.7178 8.71429H17.25C17.25 8.86905 17.1943 9.00298 17.083 9.11607C16.9717 9.22917 16.8398 9.28571 16.6875 9.28571H13.3125C13.1602 9.28571 13.0283 9.22917 12.917 9.11607C12.8057 9.00298 12.75 8.86905 12.75 8.71429H11.2822C11.0186 8.71429 10.7856 8.79762 10.5835 8.96429C10.3813 9.13095 10.248 9.34524 10.1836 9.60714Z" fill="#481120"/>
</svg>
