<svg width="31" height="30" viewBox="0 0 31 30" fill="none" xmlns="http://www.w3.org/2000/svg">
<path d="M21.8338 16.4125C23.5463 17.575 24.7463 19.15 24.7463 21.25V25H29.7463V21.25C29.7463 18.525 25.2838 16.9125 21.8338 16.4125ZM19.7463 15C22.5088 15 24.7463 12.7625 24.7463 10C24.7463 7.2375 22.5088 5 19.7463 5C19.1588 5 18.6088 5.125 18.0838 5.3C19.1595 6.63027 19.7463 8.28925 19.7463 10C19.7463 11.7107 19.1595 13.3697 18.0838 14.7C18.6088 14.875 19.1588 15 19.7463 15ZM12.2463 15C15.0088 15 17.2463 12.7625 17.2463 10C17.2463 7.2375 15.0088 5 12.2463 5C9.48384 5 7.24634 7.2375 7.24634 10C7.24634 12.7625 9.48384 15 12.2463 15ZM12.2463 7.5C13.6213 7.5 14.7463 8.625 14.7463 10C14.7463 11.375 13.6213 12.5 12.2463 12.5C10.8713 12.5 9.74634 11.375 9.74634 10C9.74634 8.625 10.8713 7.5 12.2463 7.5ZM12.2463 16.25C8.90884 16.25 2.24634 17.925 2.24634 21.25V25H22.2463V21.25C22.2463 17.925 15.5838 16.25 12.2463 16.25ZM19.7463 22.5H4.74634V21.2625C4.99634 20.3625 8.87134 18.75 12.2463 18.75C15.6213 18.75 19.4963 20.3625 19.7463 21.25V22.5Z" fill="#C44403"/>
</svg>
