<svg width="45" height="46" viewBox="0 0 45 46" fill="none" xmlns="http://www.w3.org/2000/svg">
<circle cx="22.5" cy="23" r="22.5" fill="white"/>
<path d="M22.5 8C17.0723 8 12.6562 12.4861 12.6562 18C12.6562 19.6553 13.0636 21.2965 13.8381 22.7522L21.9617 37.6777C22.0698 37.8767 22.2759 38 22.5 38C22.7241 38 22.9302 37.8767 23.0383 37.6777L31.1649 22.7473C31.9364 21.2965 32.3438 19.6552 32.3438 18C32.3438 12.4861 27.9277 8 22.5 8ZM22.5 23C19.7861 23 17.5782 20.757 17.5782 18C17.5782 15.2431 19.7861 13 22.5 13C25.2139 13 27.4218 15.2431 27.4218 18C27.4218 20.757 25.2139 23 22.5 23Z" fill="#783349"/>
</svg>
