<svg width="45" height="46" viewBox="0 0 45 46" fill="none" xmlns="http://www.w3.org/2000/svg">
<circle cx="22.5" cy="23" r="22.5" fill="white"/>
<path d="M22.7308 12.8457C24.0467 12.8457 25.3086 13.3684 26.2391 14.2989C27.1696 15.2294 27.6923 16.4914 27.6923 17.8072C27.6923 19.1231 27.1696 20.3851 26.2391 21.3156C25.3086 22.246 24.0467 22.7688 22.7308 22.7688C21.4149 22.7688 20.1529 22.246 19.2224 21.3156C18.292 20.3851 17.7692 19.1231 17.7692 17.8072C17.7692 16.4914 18.292 15.2294 19.2224 14.2989C20.1529 13.3684 21.4149 12.8457 22.7308 12.8457ZM22.7308 25.2495C28.2133 25.2495 32.6538 27.4698 32.6538 30.2111V32.6919H12.8077V30.2111C12.8077 27.4698 17.2483 25.2495 22.7308 25.2495Z" fill="#783349"/>
</svg>
