<svg width="45" height="46" viewBox="0 0 45 46" fill="none" xmlns="http://www.w3.org/2000/svg">
<circle cx="22.5" cy="23" r="22.5" fill="white"/>
<g clip-path="url(#clip0)">
<path d="M27.5062 10.2734H25.3112C25.0373 10.2649 24.8019 10.0766 24.7335 9.81133C24.5255 8.73068 23.5613 7.96256 22.4615 8.00141C21.3551 7.98202 20.3956 8.7626 20.1895 9.84988C20.1183 10.1079 19.8793 10.2831 19.6118 10.2735H17.4938V14.1244H27.5062V10.2734Z" fill="#783349"/>
<path d="M33.6677 36.2279V14.1623C33.67 13.2903 32.965 12.5815 32.093 12.5791C32.0531 12.5791 32.0131 12.5805 31.9732 12.5833H28.6614V14.5473C28.6614 14.8554 28.4689 15.279 28.1608 15.279H16.8007C16.4925 15.279 16.3386 14.8554 16.3386 14.5473V12.5834H13.0268C12.1571 12.5196 11.4004 13.1729 11.3366 14.0425C11.3337 14.0824 11.3323 14.1224 11.3324 14.1623V36.228C11.3109 37.1848 12.0691 37.9779 13.026 37.9994C13.0262 37.9994 13.0265 37.9994 13.0268 37.9994H31.9733C32.9301 37.9784 33.6887 37.1856 33.6677 36.2288C33.6677 36.2285 33.6677 36.2282 33.6677 36.2279ZM19.3808 31.1448L16.377 33.9559C16.281 34.0709 16.1415 34.1406 15.992 34.1485C15.8311 34.1421 15.679 34.073 15.5684 33.9559L13.9895 32.3385C13.7797 32.1036 13.7969 31.7438 14.028 31.5299C14.2526 31.3097 14.6121 31.3097 14.8367 31.5299L15.9919 32.7622L18.6106 30.2976C18.8731 30.1164 19.2329 30.1823 19.4141 30.4448C19.5619 30.659 19.5482 30.9456 19.3808 31.1448ZM19.3808 24.9833L16.377 27.7945C16.281 27.9094 16.1415 27.9791 15.992 27.987C15.8311 27.9807 15.679 27.9115 15.5684 27.7945L13.9895 26.1771C13.7797 25.9421 13.7969 25.5823 14.028 25.3684C14.2526 25.1483 14.6121 25.1483 14.8367 25.3684L15.9919 26.6007L18.6106 24.1361C18.8731 23.9549 19.2329 24.0208 19.4141 24.2834C19.5619 24.4976 19.5482 24.7841 19.3808 24.9833ZM19.3808 18.8218L16.377 21.633C16.281 21.7479 16.1415 21.8176 15.992 21.8255C15.8311 21.8192 15.679 21.7501 15.5684 21.633L13.9895 20.0156C13.7797 19.7806 13.7969 19.4209 14.028 19.207C14.2526 18.9868 14.6121 18.9868 14.8367 19.207L15.9919 20.4392L18.6106 17.9746C18.8731 17.7934 19.2329 17.8593 19.4141 18.1219C19.5619 18.3361 19.5482 18.6227 19.3808 18.8218ZM30.5869 33.3783H21.7298C21.4108 33.3783 21.1521 33.1196 21.1521 32.8006C21.1521 32.4816 21.4108 32.223 21.7298 32.223H30.5868C30.9059 32.223 31.1645 32.4816 31.1645 32.8006C31.1645 33.1196 30.9059 33.3783 30.5869 33.3783ZM30.5869 27.2168H21.7298C21.4108 27.2168 21.1521 26.9582 21.1521 26.6392C21.1521 26.3202 21.4108 26.0615 21.7298 26.0615H30.5868C30.9059 26.0615 31.1645 26.3202 31.1645 26.6392C31.1645 26.9582 30.9059 27.2168 30.5869 27.2168ZM30.5869 21.0554H21.7298C21.4108 21.0554 21.1521 20.7967 21.1521 20.4777C21.1521 20.1587 21.4108 19.9 21.7298 19.9H30.5868C30.9059 19.9 31.1645 20.1587 31.1645 20.4777C31.1645 20.7968 30.9059 21.0554 30.5869 21.0554Z" fill="#783349"/>
</g>
<defs>
<clipPath id="clip0">
<rect x="7.5" y="8" width="30" height="30" fill="white"/>
</clipPath>
</defs>
</svg>
