<svg width="30" height="31" viewBox="0 0 30 31" fill="none" xmlns="http://www.w3.org/2000/svg">
<g clip-path="url(#clip0)">
<path d="M21.8792 0.5H8.12071C3.64288 0.5 0 4.14288 0 8.62071V22.3795C0 26.8571 3.64288 30.4999 8.12071 30.4999H21.8795C26.3571 30.4999 29.9999 26.8571 29.9999 22.3795V8.62071C29.9999 4.14288 26.3571 0.5 21.8792 0.5V0.5ZM28.2412 22.3795C28.2412 25.8873 25.3873 28.7412 21.8792 28.7412H8.12071C4.61265 28.7412 1.75872 25.8873 1.75872 22.3795V8.62071C1.75872 5.11265 4.61265 2.25872 8.12071 2.25872H21.8795C25.3873 2.25872 28.2412 5.11265 28.2412 8.62071V22.3795Z" fill="#691D35"/>
<path d="M15 7.29688C10.4768 7.29688 6.79709 10.9766 6.79709 15.4998C6.79709 20.0229 10.4768 23.7026 15 23.7026C19.5231 23.7026 23.2028 20.0229 23.2028 15.4998C23.2028 10.9766 19.5231 7.29688 15 7.29688ZM15 21.9439C11.4468 21.9439 8.55581 19.0531 8.55581 15.4998C8.55581 11.9466 11.4468 9.0556 15 9.0556C18.5534 9.0556 21.4441 11.9466 21.4441 15.4998C21.4441 19.0531 18.5534 21.9439 15 21.9439Z" fill="#691D35"/>
<path d="M23.399 4.38477C22.0623 4.38477 20.9752 5.47218 20.9752 6.80862C20.9752 8.14529 22.0623 9.2327 23.399 9.2327C24.7357 9.2327 25.8231 8.14529 25.8231 6.80862C25.8231 5.47195 24.7357 4.38477 23.399 4.38477ZM23.399 7.47375C23.0323 7.47375 22.7339 7.17529 22.7339 6.80862C22.7339 6.44172 23.0323 6.14349 23.399 6.14349C23.7659 6.14349 24.0644 6.44172 24.0644 6.80862C24.0644 7.17529 23.7659 7.47375 23.399 7.47375Z" fill="#691D35"/>
</g>
<defs>
<clipPath id="clip0">
<rect y="0.5" width="30" height="30" fill="white"/>
</clipPath>
</defs>
</svg>
