<svg width="40" height="41" viewBox="0 0 40 41" fill="none" xmlns="http://www.w3.org/2000/svg">
<g clip-path="url(#clip0)">
<path d="M20 0.173752C9 0.173752 0 9.17375 0 20.1738C0 31.1738 9 40.1738 20 40.1738C31 40.1738 40 31.1738 40 20.1738C40 9.17375 31 0.173752 20 0.173752ZM32 29.4738C32 30.9738 30.8 32.1738 29.3 32.1738H10.7C9.2 32.1738 8 30.9738 8 29.4738V21.4738H17.3V26.7738L25.3 20.0738L17.3 13.3738V18.6738H8V10.6738C8 9.37375 9.2 8.17375 10.7 8.17375H29.4C30.9 8.17375 32.1 9.37375 32.1 10.8738V29.4738H32Z" fill="white"/>
</g>
<defs>
<clipPath id="clip0">
<rect y="0.173752" width="40" height="40" fill="white"/>
</clipPath>
</defs>
</svg>
