<svg width="95" height="88" viewBox="0 0 95 88" fill="none" xmlns="http://www.w3.org/2000/svg">
<g opacity="0.5">
<path fill-rule="evenodd" clip-rule="evenodd" d="M52.0481 48.5298C51.5081 48.5298 50.9682 48.5298 50.9682 49.0732C51.0075 49.4889 51.1999 49.8753 51.5082 50.1577C52.0481 50.1577 52.588 50.1577 52.588 49.6143C52.5487 49.1986 52.3563 48.8122 52.0481 48.5298ZM55.8234 39.3391C55.8552 39.1193 55.8354 38.8952 55.7655 38.6843C55.6957 38.4735 55.5776 38.2817 55.4206 38.1242C55.2637 37.9668 55.0723 37.8479 54.8615 37.777C54.6506 37.7061 54.4261 37.6851 54.2057 37.7157H53.6658C54.2057 37.7157 54.2057 38.2591 54.2057 38.7958C54.2057 39.3325 53.6658 39.3391 53.1258 39.3391H52.588V38.7958V39.8781C53.1258 39.8781 53.1258 40.4192 53.6658 40.4192C54.0929 40.4815 54.529 40.4113 54.9149 40.2182C55.3008 40.025 55.6179 39.7181 55.8234 39.3391ZM56.9033 50.1577C57.4432 50.1577 56.9033 49.0732 56.3633 49.0732H54.7457C54.7084 49.3663 54.7373 49.6641 54.8304 49.9446C54.9234 50.2252 55.0783 50.4814 55.2834 50.6944C56.3567 50.6944 56.9033 50.6944 56.9033 50.1577ZM56.3633 43.6617L57.4432 44.2073C57.8706 44.2687 58.3065 44.1979 58.6923 44.0044C59.0781 43.8109 59.3952 43.5039 59.6008 43.125C59.599 42.6388 59.4406 42.166 59.1489 41.7766C58.8572 41.3872 58.4477 41.1018 57.981 40.9626H57.4432V41.5037C57.5145 41.5025 57.5854 41.5157 57.6514 41.5426C57.7175 41.5694 57.7775 41.6093 57.8277 41.6598C57.878 41.7104 57.9175 41.7705 57.9438 41.8367C57.9701 41.9029 57.9828 41.9737 57.981 42.0449C57.981 43.125 57.4432 43.125 56.3633 43.125V42.5838V43.6617ZM53.1258 35.5555C53.125 35.0691 52.9672 34.596 52.6758 34.2061C52.3844 33.8162 51.975 33.5304 51.5082 33.3909H50.9682V33.9321C51.0396 33.9309 51.1106 33.9441 51.1768 33.9709C51.243 33.9977 51.3031 34.0375 51.3535 34.0881C51.4039 34.1386 51.4436 34.1987 51.4701 34.2649C51.4967 34.3311 51.5096 34.402 51.5082 34.4732C51.4897 34.7535 51.3701 35.0175 51.1715 35.2165C50.973 35.4155 50.7089 35.5359 50.4283 35.5555L49.8905 35.0144V35.5555C49.9949 35.7433 50.1535 35.8954 50.3457 35.9919C50.538 36.0885 50.7549 36.125 50.9682 36.0967C51.1396 36.2219 51.3366 36.3078 51.545 36.3484C51.7535 36.389 51.9683 36.3833 52.1743 36.3316C52.3802 36.28 52.5723 36.1837 52.7367 36.0495C52.9012 35.9154 53.0341 35.7467 53.1258 35.5555ZM54.7457 47.4519C55.2834 47.9887 55.8234 47.9887 55.8234 47.4519C56.3633 46.9064 55.8234 46.3674 55.2834 46.3674H54.2057C54.2057 46.9064 54.2057 47.4519 54.7457 47.4519ZM70.3933 63.132C70.3933 62.5886 70.3933 62.5886 69.8533 62.5886C69.3134 62.5886 68.7734 62.5886 68.7734 63.132C68.7924 63.412 68.9121 63.6758 69.1105 63.8747C69.309 64.0736 69.5728 64.1942 69.8533 64.2143C70.3911 64.2143 70.391 63.6709 70.391 63.132H70.3933ZM65.5447 63.6709C65.2547 63.3778 64.8759 63.1884 64.467 63.132C64.3957 63.1305 64.3248 63.1434 64.2586 63.1699C64.1924 63.1965 64.1323 63.2361 64.0818 63.2865C64.0314 63.3368 63.9917 63.3968 63.9651 63.4629C63.9385 63.529 63.9256 63.5997 63.9271 63.6709C63.9271 64.2142 63.9271 64.2143 64.467 64.2143C65.007 64.2143 65.5337 64.2142 65.5337 63.6709H65.5447ZM60.6962 62.5886C60.6977 62.5171 60.6847 62.4461 60.658 62.3798C60.6313 62.3134 60.5914 62.2532 60.5407 62.2026C60.4901 62.1521 60.4297 62.1123 60.3633 62.0856C60.2968 62.059 60.2256 62.046 60.154 62.0475C59.6163 62.0475 59.6162 62.0475 59.6162 62.5886C59.6144 62.6599 59.6271 62.7308 59.6534 62.7971C59.6797 62.8634 59.7192 62.9237 59.7694 62.9744C59.8196 63.0252 59.8795 63.0653 59.9456 63.0923C60.0117 63.1194 60.0826 63.1329 60.154 63.132L60.6962 62.5886ZM60.154 46.9064H60.6962C60.8671 47.032 61.0638 47.1184 61.272 47.1594C61.4803 47.2004 61.695 47.1949 61.901 47.1434C62.1069 47.0919 62.2989 46.9957 62.4632 46.8615C62.6275 46.7274 62.7601 46.5587 62.8516 46.3674C63.3915 45.2896 62.3138 44.7462 61.7738 44.2073H60.6962L61.2339 44.7462C61.2339 44.7462 61.7738 45.2896 61.2339 45.2896C61.2148 45.5692 61.0949 45.8324 60.8964 46.0306C60.6979 46.2287 60.4341 46.3484 60.154 46.3674C60.154 45.8263 60.154 45.8263 59.6162 45.8263V46.3674L60.154 46.9064ZM59.6162 51.2355C59.686 51.3083 59.7698 51.3663 59.8626 51.4059C59.9554 51.4455 60.0553 51.4659 60.1562 51.4659C60.2572 51.4659 60.357 51.4455 60.4498 51.4059C60.5426 51.3663 60.6264 51.3083 60.6962 51.2355C60.6962 50.6944 60.6962 50.1577 60.154 50.1577H59.0763C59.0609 50.6944 59.0609 51.2355 59.6008 51.2355H59.6162ZM57.4587 52.3157H56.3567V53.3979H57.9743C57.9207 52.9889 57.7341 52.6087 57.4432 52.3157H57.4587ZM64.4714 58.2551C65.0113 58.2551 65.5491 58.255 65.5491 57.7117C65.5491 57.1684 65.0113 57.175 64.4714 57.175C64.3264 57.1729 64.1867 57.2284 64.0827 57.3293C63.9788 57.4302 63.9192 57.5681 63.9171 57.7128C63.9151 57.8575 63.9707 57.9971 64.0718 58.1008C64.1728 58.2046 64.311 58.264 64.456 58.266L64.4714 58.2551ZM59.0763 56.6338C59.0745 56.7052 59.0872 56.7762 59.1137 56.8425C59.1401 56.9088 59.1798 56.9691 59.2303 57.0197C59.2808 57.0703 59.341 57.1101 59.4073 57.1368C59.4737 57.1635 59.5447 57.1765 59.6162 57.175C60.154 57.175 60.6962 57.175 60.6962 56.6338C60.6962 56.0927 60.154 56.0861 59.6162 56.0861C59.542 56.0826 59.4678 56.0947 59.3986 56.1216C59.3293 56.1485 59.2665 56.1896 59.2142 56.2422C59.1618 56.2949 59.1211 56.358 59.0947 56.4273C59.0683 56.4966 59.0568 56.5707 59.0609 56.6448L59.0763 56.6338ZM57.4587 27.9751C57.5102 27.7971 57.5222 27.61 57.4939 27.4269C57.4657 27.2438 57.3978 27.069 57.295 26.9147C57.1923 26.7604 57.0571 26.6303 56.8988 26.5335C56.7406 26.4366 56.5631 26.3753 56.3787 26.3538H55.8388C56.3787 26.3538 56.3787 26.895 56.3787 27.4317C55.9267 27.8087 55.3495 28.0026 54.7611 27.9751V27.4317V28.5162H55.8388C55.9719 28.6147 56.1268 28.6797 56.2904 28.7058C56.454 28.732 56.6215 28.7185 56.7788 28.6666C56.9361 28.6146 57.0785 28.5256 57.1942 28.4072C57.3098 28.2888 57.3952 28.1444 57.4432 27.9861L57.4587 27.9751ZM75.7994 15.5353L74.7217 14.4508C74.7217 13.9185 75.7994 13.9185 76.3393 13.9185C76.5814 14.0183 76.8012 14.1649 76.9862 14.3499C77.1711 14.5349 77.3176 14.7546 77.4171 14.9964C77.4017 15.5463 76.8639 15.5463 75.784 15.5463L75.7994 15.5353ZM74.1817 17.1588C74.7463 17.065 75.2923 16.8824 75.7994 16.6176C75.7671 16.4392 75.6992 16.269 75.5997 16.1173C75.5002 15.9656 75.3712 15.8354 75.2203 15.7344C75.0694 15.6335 74.8997 15.5638 74.7213 15.5296C74.5429 15.4954 74.3594 15.4974 74.1817 15.5353C73.6418 15.5353 72.5641 15.5353 72.5641 16.0765C72.5942 16.2551 72.66 16.4259 72.7574 16.5786C72.8549 16.7314 72.9822 16.8631 73.1316 16.9659C73.281 17.0687 73.4496 17.1405 73.6273 17.177C73.8051 17.2135 73.9884 17.2141 74.1663 17.1786L74.1817 17.1588ZM94.1424 22.5658C93.1891 20.4259 91.7037 18.5646 89.8271 17.1588H89.2872C89.265 16.1563 88.8826 15.1952 88.2095 14.4508C86.374 12.5138 83.864 11.3533 81.1967 11.2084H80.1168C77.6651 10.3954 75.0158 10.3954 72.5641 11.2084C68.7866 11.7539 67.7155 14.4508 66.629 17.1588H66.0891C65.6949 17.8268 65.1386 18.3851 64.4714 18.7822C60.6961 18.7822 59.6229 19.3211 58.5363 22.0225C54.2211 21.4857 53.6878 22.5658 52.6035 24.7304C51.4682 24.6611 50.3333 24.8712 49.2984 25.3422C48.2635 25.8133 47.3604 26.5308 46.6684 27.4317C39.1157 30.6764 27.2478 30.1353 22.3926 30.1353H20.7749C17.5374 30.1353 10.5247 32.841 9.44475 38.7848C8.83686 41.2709 8.76292 43.8573 9.22785 46.374C9.69278 48.8907 10.686 51.2807 12.1423 53.3869C13.0754 54.712 13.8028 56.17 14.2999 57.7117C16.9975 66.3634 13.7622 67.9891 11.6024 69.6103C8.90701 70.6882 1.35209 69.0648 1.35209 69.0648H0.814296V69.6103C0.777704 69.9028 0.807016 70.1997 0.900049 70.4794C0.993082 70.7591 1.14753 71.0146 1.35209 71.2271C2.99978 72.1094 4.82302 72.6157 6.69043 72.7097C8.55785 72.8036 10.4229 72.4829 12.1511 71.7705C14.2167 71.2105 16.085 70.0869 17.5462 68.5258C18.4845 69.7389 19.5722 70.829 20.7837 71.7705C23.2657 72.2872 25.8059 72.4699 28.3365 72.3138C29.4362 72.2545 30.491 71.8593 31.3583 71.1818C32.2255 70.5043 32.8632 69.5771 33.185 68.5258C33.3725 68.42 33.524 68.2606 33.6199 68.0681C33.7157 67.8756 33.7515 67.6588 33.7228 67.4457C33.6205 66.8504 33.3691 66.2905 32.9919 65.8182C32.6146 65.3459 32.1238 64.9765 31.5651 64.7444C30.9161 64.4173 30.3415 63.9602 29.8774 63.4015C29.4133 62.8429 29.0695 62.1947 28.8676 61.4975C31.7564 61.6438 34.6525 61.4623 37.5003 60.9564L38.0402 60.4174C38.445 60.1882 38.7977 59.8777 39.0762 59.5055C39.3546 59.1333 39.5526 58.7075 39.6578 58.2551V57.7117C39.2932 57.1964 38.8072 56.7787 38.2426 56.4952C37.678 56.2117 37.0522 56.0712 36.4203 56.0861C35.8804 56.0861 35.8804 55.5515 35.3427 55.5515C35.0123 54.4995 34.8306 53.4067 34.8027 52.3046H35.8605C36.1198 52.2354 36.3563 52.0991 36.5459 51.9094C36.7355 51.7198 36.8716 51.4835 36.9405 51.2246C37.4478 50.9602 37.9937 50.7775 38.5581 50.6834H39.098C43.6162 49.9679 48.2403 50.339 52.5859 51.7657C55.8212 53.3869 56.3611 57.175 56.3611 60.9564V62.0541C56.9011 66.381 56.9011 68.5434 59.0587 70.7058C60.0207 71.7432 61.1898 72.5679 62.4907 73.1267C63.7915 73.6856 65.1952 73.9662 66.6114 73.9505C67.8853 73.897 69.1506 73.7172 70.3888 73.4137C72.0065 73.4137 73.6242 71.2447 74.1641 70.7058H74.7041V68.5434C74.5825 67.8129 74.2687 67.1277 73.7947 66.5579C73.3208 65.9882 72.7036 65.5544 72.0065 65.301V64.2208C72.0065 63.1386 72.5464 60.974 72.5464 60.435H76.8617C78.4815 60.435 79.0193 60.435 79.0193 59.3527C79.6683 59.1921 80.2405 58.8101 80.637 58.2727C80.9459 57.9924 81.1392 57.6073 81.1791 57.1926V56.1037C81.2188 55.9546 81.2184 55.7977 81.1782 55.6488C81.1379 55.4999 81.0592 55.3641 80.9498 55.2552C80.8404 55.1462 80.7042 55.0679 80.5549 55.028C80.4056 54.9881 80.2485 54.9881 80.0992 55.028L79.5592 54.4868C78.9728 53.9021 78.5943 53.1419 78.4816 52.3222V50.1643C78.3483 49.0515 78.5348 47.9239 79.0193 46.913V46.374C79.0193 45.2961 79.5592 44.2139 79.5592 42.0515V39.8847C79.4841 39.5068 79.4936 39.117 79.5869 38.7432C79.6803 38.3694 79.8552 38.0208 80.0992 37.7223V36.0967C80.2098 34.9478 80.579 33.8386 81.1791 32.852C82.9389 33.6653 84.7396 34.3871 86.5742 35.0144L88.7296 32.852V32.3087H89.2696C91.9671 29.0662 94.1181 25.8193 94.1181 22.5768L94.1424 22.5658ZM38.038 58.2551C39.1157 58.2551 38.5757 59.3351 38.038 59.3351H37.4981C37.4981 59.3351 37.4826 58.266 38.0226 58.266L38.038 58.2551ZM91.9847 22.0225C91.9847 22.5658 91.447 22.5658 90.9049 22.5658C90.3627 22.5658 89.8271 22.5658 89.8271 22.0225C89.8084 21.8705 89.8223 21.7162 89.8679 21.57C89.9135 21.4238 89.9899 21.289 90.0919 21.1745C90.1938 21.0601 90.319 20.9686 90.4591 20.9062C90.5992 20.8438 90.7511 20.812 90.9045 20.8128C91.058 20.8135 91.2094 20.847 91.3489 20.9108C91.4884 20.9746 91.6127 21.0673 91.7134 21.1828C91.8142 21.2983 91.8891 21.434 91.9332 21.5806C91.9774 21.7273 91.9897 21.8817 91.9693 22.0335L91.9847 22.0225ZM89.2872 24.7304C89.3047 24.4494 89.4238 24.1843 89.6225 23.9844C89.8211 23.7845 90.0857 23.6634 90.3671 23.6437C90.6606 23.9375 90.8495 24.3192 90.9049 24.7304L90.3671 25.2693C89.9535 25.2191 89.5684 25.0334 89.2718 24.7414L89.2872 24.7304ZM89.8271 26.895C89.7695 27.304 89.58 27.6832 89.2872 27.9751C89.1376 28.0148 88.9802 28.0145 88.8307 27.9743C88.6813 27.934 88.5451 27.8552 88.4358 27.7457C88.3266 27.6362 88.2482 27.5 88.2085 27.3506C88.1687 27.2013 88.1691 27.0441 88.2095 26.895C88.2095 26.3539 88.2095 26.3538 89.2872 26.3538C89.3584 26.3544 89.4287 26.3692 89.494 26.3975C89.5593 26.4258 89.6182 26.467 89.6672 26.5185C89.7162 26.5701 89.7542 26.631 89.779 26.6975C89.8039 26.7641 89.815 26.835 89.8117 26.906L89.8271 26.895ZM88.7472 21.4857L88.2095 22.0225C87.8004 21.9664 87.421 21.7778 87.1296 21.4857C87.4198 21.1908 87.7994 20.9998 88.2095 20.9424L88.7472 21.4857ZM87.6519 24.1959C87.6519 24.7414 87.112 24.7414 86.5742 24.7414C86.0365 24.7414 85.4921 24.7414 85.4921 24.1959C85.6175 24.0279 85.7803 23.8915 85.9678 23.7976C86.1553 23.7036 86.3622 23.6547 86.572 23.6547C86.7818 23.6547 86.9887 23.7036 87.1762 23.7976C87.3637 23.8915 87.5266 24.0279 87.6519 24.1959ZM87.112 17.7087C86.7178 17.0405 86.1605 16.4827 85.4921 16.0875C85.9436 16.7036 86.2303 17.4245 86.3251 18.1819C86.42 18.9394 86.3198 19.7085 86.0342 20.4166C85.7703 21.0224 85.3014 21.5162 84.7096 21.8118C84.1178 22.1073 83.4407 22.1858 82.7967 22.0335C83.8744 21.4967 87.112 19.3322 83.8745 16.6286C83.8745 16.0875 81.7191 16.6286 81.7191 18.7932C81.7191 19.8755 83.8744 20.9534 84.4144 19.3321C84.3249 19.7311 84.1532 20.1072 83.9102 20.4364C83.6672 20.7655 83.3582 21.0407 83.0029 21.2443C82.6477 21.4478 82.2538 21.5754 81.8465 21.6189C81.4392 21.6623 81.0273 21.6207 80.637 21.4967C80.1431 21.2762 79.7094 20.9408 79.372 20.5186C79.0347 20.0963 78.8037 19.5996 78.6981 19.07C78.5926 18.5403 78.6157 17.9932 78.7655 17.4743C78.9153 16.9554 79.1875 16.4798 79.5592 16.0875C80.437 15.5837 81.4683 15.4157 82.4609 15.6149C83.4536 15.814 84.3398 16.3666 84.9543 17.1698C84.8946 16.6182 84.6484 16.1034 84.2561 15.7102C83.8639 15.3171 83.3491 15.0692 82.7967 15.0074C82.3007 14.8566 81.7794 14.8073 81.2639 14.8624C80.7483 14.9175 80.2492 15.0759 79.7965 15.3281C79.3438 15.5804 78.9467 15.9212 78.6291 16.3303C78.3115 16.7393 78.0799 17.2082 77.9482 17.7087C77.7513 18.7807 77.9787 19.8871 78.5825 20.795C79.1864 21.703 80.1196 22.3418 81.1857 22.5768C83.8811 23.6547 85.4987 21.4967 86.0342 21.4967C85.7346 22.2638 85.218 22.9273 84.5473 23.4065C83.8766 23.8857 83.0808 24.16 82.2568 24.1959C80.8031 24.1701 79.3564 23.9887 77.9416 23.6547C77.9216 23.3754 77.8014 23.1127 77.6031 22.9147C77.4047 22.7167 77.1415 22.5968 76.8617 22.5768C76.3217 22.5768 75.7818 22.5768 76.3217 23.118C76.8617 23.118 77.3994 23.6547 76.8617 23.6547C76.3239 23.6547 75.7818 23.6547 75.7818 24.1959L75.244 24.7414L75.7818 25.2804C75.8531 25.2789 75.924 25.2918 75.9902 25.3183C76.0563 25.3449 76.1165 25.3845 76.1669 25.4349C76.2173 25.4852 76.2571 25.5452 76.2837 25.6113C76.3103 25.6774 76.3232 25.7481 76.3217 25.8193C76.5093 25.714 76.6609 25.555 76.7572 25.3629C76.8534 25.1708 76.8898 24.9543 76.8617 24.7414C76.3217 24.7414 76.8616 24.1959 77.3994 24.1959C78.4815 24.1959 79.0193 24.7414 78.4816 25.2804C77.9438 25.8193 77.9416 26.3648 79.0193 26.3648C79.5592 26.3648 79.5592 25.8193 79.5592 25.2804C79.5592 24.7414 80.637 24.7414 80.637 25.2804C80.5952 25.4302 80.5939 25.5885 80.6334 25.739C80.6729 25.8895 80.7516 26.0269 80.8616 26.1371C80.9716 26.2473 81.1089 26.3265 81.2596 26.3665C81.4102 26.4065 81.5687 26.4059 81.7191 26.3648C82.7968 26.3648 82.7967 26.3648 82.7967 25.2804C83.3367 24.1959 83.8745 24.7414 83.8745 24.7414C84.4144 25.2804 85.4921 25.2804 85.4921 24.7414C84.9544 23.6547 84.9543 23.6547 86.0342 23.118C86.5742 23.118 86.5742 23.6547 87.112 23.118C87.6497 22.5812 87.112 22.0335 86.5742 22.0335C86.5742 21.4967 87.112 20.9534 87.112 20.4166C87.6519 20.4166 87.6519 19.8755 87.112 19.3321V17.7087ZM84.9543 26.3648C84.9945 26.5141 84.9945 26.6712 84.9545 26.8205C84.9144 26.9697 84.8357 27.1058 84.7263 27.2151C84.6168 27.3243 84.4805 27.4029 84.3309 27.4429C84.1814 27.4828 84.024 27.4828 83.8745 27.4427C83.5946 27.4237 83.3311 27.3039 83.1329 27.1057C82.9347 26.9075 82.8153 26.6443 82.7967 26.3648C83.0859 26.0694 83.4648 25.8776 83.8745 25.8193C84.9566 25.8193 84.9566 26.3648 84.9566 26.3648H84.9543ZM81.7191 27.4427C81.701 27.7237 81.5814 27.9886 81.3823 28.1881C81.1833 28.3875 80.9184 28.5081 80.637 28.5272C80.4592 28.5652 80.2755 28.5671 80.0969 28.5327C79.9184 28.4984 79.7486 28.4285 79.5977 28.3273C79.4468 28.2262 79.3178 28.0957 79.2184 27.9437C79.1191 27.7917 79.0513 27.6214 79.0193 27.4427C79.473 27.0695 80.0497 26.8782 80.637 26.906C81.0476 26.9613 81.4286 27.15 81.7213 27.4427H81.7191ZM73.0842 22.0335H70.3888C69.8489 22.0335 69.3089 22.0335 69.3089 21.4967C69.327 21.2166 69.4465 20.9525 69.6452 20.7538C69.8439 20.5551 70.1082 20.4353 70.3888 20.4166C70.5384 20.3769 70.6959 20.3772 70.8454 20.4175C70.9948 20.4577 71.131 20.5366 71.2402 20.646C71.3495 20.7555 71.4279 20.8918 71.4676 21.0411C71.5074 21.1904 71.507 21.3476 71.4666 21.4967C72.3544 21.7283 73.2552 21.9075 74.1641 22.0335C74.3716 21.5483 74.7583 21.1615 75.244 20.9534C75.7817 20.9534 76.3217 21.4967 75.7818 22.0335V22.5768C75.7818 23.118 75.244 23.118 74.7041 23.118C74.1957 23.3806 73.6491 23.5618 73.0842 23.6547C72.5465 23.118 74.1641 23.118 74.1641 22.5768C74.1641 22.0357 73.0864 22.0335 73.0864 22.0335H73.0842ZM71.4666 19.8755C71.4666 19.3322 72.5465 19.3321 73.0842 19.3321C74.1641 19.3321 74.7041 19.3322 74.7041 19.8755C74.6713 20.0538 74.6029 20.2236 74.5031 20.375C74.4032 20.5264 74.2739 20.6563 74.1228 20.7568C73.9717 20.8573 73.8019 20.9265 73.6235 20.9603C73.4451 20.9941 73.2617 20.9917 73.0842 20.9534C72.7404 20.9446 72.406 20.8387 72.1201 20.6479C71.8342 20.4571 71.6083 20.1893 71.4688 19.8755H71.4666ZM76.3151 26.3648C76.5119 26.4454 76.6829 26.578 76.81 26.7482C76.9371 26.9184 77.0155 27.1199 77.0366 27.3311C77.0577 27.5424 77.0209 27.7554 76.9301 27.9473C76.8392 28.1393 76.6978 28.3029 76.5209 28.4208C76.344 28.5387 76.1384 28.6063 75.9259 28.6164C75.7135 28.6266 75.5022 28.5788 75.3149 28.4783C75.1275 28.3779 74.9711 28.2284 74.8624 28.046C74.7536 27.8636 74.6966 27.655 74.6975 27.4427C74.7308 27.2641 74.7997 27.0939 74.9001 26.9423C75.0005 26.7907 75.1305 26.6608 75.2822 26.5602C75.4339 26.4597 75.6042 26.3906 75.7832 26.3571C75.9622 26.3235 76.146 26.3261 76.324 26.3648H76.3151ZM81.1637 18.2499C80.9185 19.151 80.3395 19.9255 79.5438 20.4166C79.1772 19.3736 78.9946 18.2751 79.0039 17.1698C79.0039 17.1698 81.7212 17.7087 81.1813 18.2499H81.1637ZM76.3151 12.845C75.9063 12.9014 75.5274 13.0908 75.2374 13.3839C74.1575 13.9295 73.0776 14.4618 71.9999 15.0074C71.2675 15.7776 70.7151 16.7001 70.3822 17.7087C70.3822 18.2499 70.92 18.2499 71.46 18.2499H72.5398C73.6176 18.7932 75.2374 19.3322 75.2374 18.2499H76.3151C76.0357 18.9452 76.0357 19.7213 76.3151 20.4166C76.716 21.2662 77.3185 22.0053 78.0706 22.5696C78.8226 23.1339 79.7013 23.5064 80.6303 23.6547C79.411 23.0903 78.3949 22.1656 77.7196 21.0056C77.0443 19.8457 76.7426 18.5066 76.8551 17.1698C77.1014 16.3686 77.6039 15.6701 78.2857 15.181C78.9675 14.692 79.791 14.4394 80.6303 14.4618V13.3839C80.6303 13.3839 80.6303 12.845 81.1725 13.3839C81.3788 13.8687 81.765 14.2549 82.2502 14.4618C82.7901 14.4618 83.3301 13.3839 83.3301 13.9295C83.8678 13.9295 83.8679 15.0074 84.4078 15.0074C84.8176 14.9497 85.1967 14.7578 85.4855 14.4618C85.7945 14.7438 85.9877 15.1303 86.0276 15.5463C86.0258 15.6177 86.0386 15.6887 86.065 15.755C86.0915 15.8213 86.1312 15.8816 86.1816 15.9322C86.2321 15.9828 86.2923 16.0226 86.3587 16.0493C86.425 16.076 86.4961 16.089 86.5676 16.0875H87.1054C86.5798 15.0685 85.8147 14.1917 84.8755 13.5324C83.9362 12.8731 82.8509 12.4508 81.7124 12.3017H76.324V12.845H76.3151ZM72.5398 13.3839H73.0776C73.08 13.4555 73.0678 13.5268 73.0417 13.5935C73.0157 13.6601 72.9763 13.7209 72.926 13.7719C72.8757 13.8229 72.8155 13.8632 72.7492 13.8903C72.6828 13.9174 72.6116 13.9307 72.5398 13.9295C71.9999 13.9295 71.46 13.9295 71.46 13.3839H72.5398ZM70.3822 14.4618C70.92 14.4618 71.46 14.4618 71.46 15.0074C71.1695 15.3 70.7909 15.4893 70.3822 15.5463C70.2442 15.5365 70.1151 15.4745 70.0211 15.373C69.9272 15.2715 69.8755 15.1381 69.8767 15C69.8778 14.8618 69.9316 14.7292 70.0271 14.6293C70.1227 14.5293 70.2528 14.4694 70.391 14.4618H70.3822ZM69.3024 16.0875C69.3738 16.0863 69.4447 16.0995 69.5109 16.1263C69.5771 16.1531 69.6372 16.1929 69.6876 16.2434C69.738 16.294 69.7777 16.3541 69.8043 16.4203C69.8309 16.4865 69.8438 16.5573 69.8423 16.6286C69.8423 17.1698 69.8423 17.1698 69.3024 17.1698C68.7624 17.1698 68.7624 17.1698 68.7624 16.6286C68.7596 16.5559 68.7719 16.4833 68.7985 16.4155C68.825 16.3476 68.8653 16.286 68.9168 16.2344C68.9683 16.1828 69.0299 16.1423 69.0978 16.1156C69.1656 16.0888 69.2382 16.0762 69.3112 16.0787L69.3024 16.0875ZM68.7624 18.2499C69.1725 18.3073 69.5521 18.4983 69.8423 18.7932C69.8423 19.3321 69.3024 19.3321 68.7624 19.3321C68.2225 19.3321 67.6825 19.3321 67.6825 18.7932C67.975 18.4966 68.358 18.3055 68.7712 18.2499H68.7624ZM64.9871 19.8755L65.5248 19.3321V19.8755C64.9871 20.9534 65.5249 22.0335 67.1447 22.5768C67.7675 22.601 68.366 22.8245 68.8518 23.2143C69.3376 23.6041 69.6848 24.1395 69.8423 24.7414C69.2854 24.7504 68.7372 24.603 68.2602 24.3159C67.7832 24.0289 67.3967 23.6138 67.1447 23.118C70.3822 26.3648 71.46 26.906 73.6176 27.4427C73.0776 26.906 73.0776 25.8193 73.6176 26.3648C73.504 25.627 73.3232 24.901 73.0776 24.1959C73.7691 25.3408 74.142 26.6493 74.1575 27.9861C71.2813 27.2816 68.6631 25.7802 66.6048 23.6547C66.0004 23.2464 65.5271 22.6725 65.2417 22.0021C64.9563 21.3316 64.8709 20.5932 64.9959 19.8755H64.9871ZM73.0776 29.6051C73.0776 30.1463 72.5384 30.1463 71.46 29.6051C70.9744 29.3988 70.588 29.0123 70.3822 28.5272C70.3822 27.9861 71.4599 27.9861 72.5398 27.9861C73.0864 28.5272 73.6263 29.0574 73.0864 29.6051H73.0776ZM60.1297 22.0335C60.2002 21.7753 60.3368 21.5399 60.5262 21.3505C60.7156 21.1611 60.9512 21.0242 61.2097 20.9534C61.5076 20.711 61.8554 20.5371 62.2284 20.4444C62.6013 20.3516 62.9902 20.3421 63.3673 20.4166C62.8273 24.7414 67.6825 28.5272 68.7624 30.1463C69.0037 30.3318 69.184 30.585 69.2802 30.8735C69.3764 31.1619 69.3841 31.4724 69.3024 31.7653C69.2708 32.0148 69.1895 32.2555 69.0633 32.4732C68.937 32.6909 68.7683 32.8811 68.5672 33.0326C68.3661 33.1841 68.1366 33.2939 67.8923 33.3554C67.648 33.417 67.3938 33.4291 67.1447 33.3909C66.8645 33.0834 66.4795 32.8912 66.0649 32.852C64.4472 30.6874 60.1297 26.9126 60.1297 22.0335ZM59.592 23.118C60.3328 26.6889 62.2283 29.918 64.9871 32.3087C64.985 32.38 64.9974 32.4511 65.0236 32.5175C65.0498 32.5839 65.0893 32.6444 65.1395 32.6952C65.1898 32.7459 65.2498 32.786 65.3161 32.813C65.3823 32.8399 65.4533 32.8532 65.5248 32.852C65.9218 33.3898 66.495 33.772 67.1447 33.9321C67.7892 33.9959 68.4329 33.8046 68.9374 33.3993C69.4419 32.9941 69.7669 32.4073 69.8423 31.7653V31.2264C70.3822 30.6874 69.8423 30.1463 69.3024 29.6051V29.0574C68.0868 28.1197 66.9985 27.0283 66.0649 25.8105C64.9073 24.4197 64.1603 22.7349 63.9072 20.9446V20.4078H64.4472V20.9446C64.6008 22.605 65.3703 24.1482 66.6048 25.2715C67.3977 26.7518 68.5022 28.0433 69.8423 29.0574C70.2714 29.6916 70.4626 30.4565 70.3822 31.2176V31.7565C70.3028 32.5401 69.92 33.2617 69.3152 33.7676C68.7104 34.2735 67.9316 34.5235 67.1447 34.4644C66.7269 34.4567 66.3161 34.3554 65.9426 34.1681C65.5692 33.9808 65.2427 33.7122 64.9871 33.3821C64.9886 33.311 64.9757 33.2402 64.9491 33.1741C64.9225 33.1081 64.8827 33.0481 64.8323 32.9977C64.7819 32.9474 64.7217 32.9077 64.6555 32.8812C64.5894 32.8546 64.5185 32.8417 64.4472 32.8432C61.6886 30.4496 59.7932 27.2185 59.0521 23.6459C59.0609 23.118 59.0609 23.118 59.6008 23.118H59.592ZM54.1969 25.2804C54.3012 24.8922 54.5053 24.5379 54.789 24.2528C55.0728 23.9676 55.4264 23.7614 55.8146 23.6547H57.4344C56.8944 29.5941 63.3672 34.4732 65.5248 36.6334C66.0648 36.6334 66.0649 37.179 66.0649 37.7157C66.0279 38.2756 65.7889 38.8031 65.3922 39.2007C64.9955 39.5982 64.468 39.8389 63.9072 39.8781C63.6939 39.9061 63.477 39.8698 63.2846 39.7737C63.0921 39.6777 62.9328 39.5263 62.8273 39.3391C60.1385 37.179 53.6658 31.7653 54.2057 25.2804H54.1969ZM53.657 25.8193C53.657 31.7587 58.5055 36.6334 61.7496 39.3391L62.2896 39.8781C62.5019 40.0828 62.7573 40.2375 63.0371 40.3311C63.317 40.4248 63.6143 40.4548 63.9072 40.4192C64.2679 40.4402 64.6289 40.3845 64.9664 40.2559C65.3039 40.1272 65.6103 39.9286 65.8652 39.6731C66.1202 39.4176 66.3179 39.111 66.4454 38.7736C66.5729 38.4362 66.6272 38.0756 66.6048 37.7157C66.6414 37.4227 66.6119 37.1253 66.5185 36.8451C66.4251 36.565 66.2701 36.3093 66.0649 36.0967L64.9871 35.0144C62.2896 32.852 57.9722 28.5272 57.9722 23.6547H58.5121C58.5121 28.5272 62.8273 32.3087 65.5248 34.4732C65.5433 34.7535 65.663 35.0175 65.8615 35.2165C66.0601 35.4155 66.3241 35.5359 66.6048 35.5555C67.0333 36.19 67.2245 36.9547 67.1447 37.7157C67.1637 38.1458 67.093 38.5752 66.9372 38.9766C66.7814 39.3781 66.5439 39.7429 66.2396 40.048C65.9353 40.3532 65.5709 40.592 65.1695 40.7494C64.768 40.9069 64.3382 40.9794 63.9072 40.9626C63.5298 41.0381 63.1401 41.0285 62.7668 40.9345C62.3935 40.8405 62.046 40.6644 61.7496 40.4192C61.7514 40.3479 61.7387 40.2769 61.7122 40.2106C61.6858 40.1442 61.6461 40.084 61.5956 40.0334C61.5451 39.9828 61.4849 39.9429 61.4186 39.9162C61.3522 39.8896 61.2812 39.8766 61.2097 39.8781C58.5121 37.179 53.117 32.3086 53.117 26.3648C53.1152 26.2925 53.1281 26.2206 53.1551 26.1534C53.182 26.0863 53.2224 26.0253 53.2738 25.9742C53.3251 25.9232 53.3864 25.8831 53.4538 25.8565C53.5212 25.8298 53.5933 25.8172 53.6658 25.8193H53.657ZM48.2618 28.5272C48.468 28.0401 48.855 27.6515 49.3417 27.4427C49.5544 27.2389 49.81 27.0849 50.0898 26.9921C50.3697 26.8992 50.6667 26.8698 50.9594 26.906C50.4194 34.4732 59.592 41.5037 63.3673 44.2073C63.3673 44.7462 63.9072 45.2895 63.9072 45.8263C63.8698 46.386 63.6307 46.9133 63.2341 47.3108C62.8375 47.7082 62.3102 47.949 61.7496 47.9887H61.2097C59.0521 46.9064 48.2618 38.7958 47.7241 29.6051C48.0345 29.3264 48.2294 28.942 48.2707 28.5272H48.2618ZM22.3684 38.7958C22.3684 38.7958 26.1436 40.4192 22.3684 45.2896C23.4571 42.0361 23.9948 40.9626 22.3772 38.7958H22.3684ZM9.96048 71.2382C6.72297 71.7815 7.26293 70.6992 7.26293 70.6992C10.2766 70.691 13.1727 69.5307 15.3556 67.4567C14.9004 68.5257 14.1548 69.4463 13.203 70.1145C12.2511 70.7827 11.1311 71.1719 9.96929 71.2382H9.96048ZM18.5931 66.3744C19.1203 66.7935 19.7251 67.1048 20.3729 67.2905C21.0206 67.4762 21.6987 67.5327 22.3684 67.4567C18.7772 62.6801 16.3736 57.1205 15.3556 51.2355C13.7379 44.7462 15.3556 39.3392 14.2756 38.2569C12.9924 38.0154 11.6651 38.2041 10.5004 38.7936C10.5004 38.7936 12.658 34.471 15.8955 35.0122C19.1308 36.0945 22.3683 40.417 19.6708 50.1555C19.1308 54.478 18.5931 56.6426 19.6708 59.8873L20.7507 57.7205C20.1866 59.6109 20.2493 61.6326 20.9295 63.4845C21.6098 65.3365 22.8712 66.9195 24.5259 67.9979C23.4806 68.2271 22.3951 68.1991 21.3631 67.9163C20.331 67.6334 19.3834 67.1043 18.6019 66.3744H18.5931ZM34.7762 56.6448C34.9256 56.6052 35.0827 56.6056 35.2319 56.6458C35.3811 56.6859 35.5172 56.7646 35.6263 56.8737C35.7355 56.9829 35.814 57.1188 35.8539 57.2678C35.8939 57.4168 35.8939 57.5737 35.8539 57.7227C35.8539 58.2661 35.8539 58.266 34.7762 58.266C34.7046 58.2673 34.6335 58.254 34.5672 58.2271C34.5008 58.2001 34.4406 58.1601 34.3902 58.1093C34.3397 58.0586 34.3001 57.9981 34.2737 57.9317C34.2472 57.8653 34.2345 57.7942 34.2363 57.7227C34.296 57.3131 34.4888 56.9344 34.785 56.6448H34.7762ZM42.3289 45.8263C41.7428 45.7544 41.148 45.8141 40.5878 46.001C40.0277 46.1878 39.5165 46.4972 39.0914 46.9064C38.0137 47.9887 36.3939 47.9887 34.7762 49.0732C33.9762 49.1904 33.2159 49.497 32.5587 49.9673C31.9016 50.4376 31.3667 51.058 30.9988 51.7767C29.7942 52.8307 28.905 54.1966 28.4293 55.7234C27.9537 57.2502 27.9101 58.8785 28.3034 60.4284C27.7635 59.3461 27.2235 57.186 26.6835 59.3461C26.8315 61.1654 27.592 62.8812 28.8412 64.2143C28.9533 65.3622 29.3223 66.4703 29.921 67.4567V69.0758L28.8412 68.5368L27.7635 69.6213C26.6836 69.6213 27.2235 66.92 26.6835 66.3744C26.5799 64.8804 26.2152 63.416 25.6059 62.0475C25.2455 60.2434 25.3011 58.3811 25.7684 56.6017C26.2358 54.8222 27.1027 53.1723 28.3034 51.7767C29.9211 50.1577 32.0787 49.6143 33.6963 47.9887C34.149 47.8827 34.5746 47.6838 34.946 47.4047C35.3175 47.1256 35.6267 46.7723 35.8539 46.3674C36.1105 46.0382 36.4377 45.7706 36.8114 45.5841C37.1852 45.3975 37.596 45.2969 38.0138 45.2896C40.7188 44.9101 43.4733 45.0928 46.1042 45.8263H42.3289ZM53.117 49.6143C53.117 50.1577 52.0393 50.1577 50.9594 50.1577C50.4194 49.6143 49.8817 49.0732 50.4195 48.5298C50.4195 47.9887 50.9594 47.9887 52.0393 47.9887C53.1258 48.5298 53.6658 49.0754 53.1258 49.6143H53.117ZM49.3417 42.575C48.593 41.5222 47.6288 40.6401 46.513 39.9871C45.3971 39.3341 44.155 38.925 42.8689 38.787C40.7091 38.787 30.9988 38.787 30.4611 36.6246C29.9211 35.5467 30.9988 35.5467 32.0787 35.0056C28.8411 35.5467 25.0659 35.5467 29.3811 37.1702C27.7634 37.7069 23.4482 36.6246 26.1436 35.5467C30.1992 34.4242 34.3549 33.6993 38.5515 33.3821C40.7697 33.1142 42.9452 32.568 45.0265 31.7565C46.2449 35.7285 48.2639 39.41 50.9594 42.575C51.5439 43.5762 52.2707 44.4875 53.117 45.2807C51.5082 45.8263 51.5081 44.7462 49.3505 42.5838L49.3417 42.575ZM53.657 48.5144C53.9944 48.1554 54.4355 47.9104 54.919 47.8134C55.4025 47.7164 55.9043 47.7723 56.3545 47.9733C57.4344 48.5144 58.5121 49.5989 57.9722 50.1423C57.9722 51.2202 56.3545 51.2202 55.2746 50.679C54.8524 50.4772 54.4854 50.1763 54.2052 49.802C53.925 49.4277 53.7399 48.9912 53.6658 48.5298L53.657 48.5144ZM53.657 45.8109C53.657 45.2742 54.7369 45.2742 55.2746 45.8109C55.6975 45.8362 56.0962 46.0158 56.3949 46.3156C56.6936 46.6154 56.8714 47.0144 56.8945 47.4365C56.5953 47.6962 56.2121 47.8392 55.8156 47.8392C55.4192 47.8392 55.036 47.6962 54.7368 47.4365C54.5361 47.4656 54.3311 47.4372 54.1459 47.3546C53.9607 47.272 53.8028 47.1386 53.6906 46.9699C53.5784 46.8012 53.5164 46.6041 53.512 46.4017C53.5076 46.1992 53.561 45.9997 53.6658 45.8263L53.657 45.8109ZM56.3545 53.3825C55.8167 52.9838 55.4349 52.4106 55.2746 51.7613C55.572 51.517 55.92 51.3417 56.2935 51.2481C56.667 51.1545 57.0567 51.145 57.4344 51.2202C57.7754 51.3215 58.0701 51.5391 58.267 51.8349C58.4639 52.1307 58.5507 52.4861 58.5121 52.8392C58.5121 53.3825 57.9721 53.3825 57.4344 53.3825C58.8212 53.9262 60.3628 53.9262 61.7496 53.3825C62.8273 52.8392 62.2895 50.679 60.1297 49.0578C59.592 48.5144 57.4344 46.891 55.8146 45.2742C54.6096 44.5347 53.5196 43.6231 52.5792 42.5684C49.5694 39.4156 47.5122 35.4789 46.6442 31.211C46.7497 31.0238 46.9089 30.8724 47.1014 30.7764C47.2938 30.6803 47.5107 30.644 47.7241 30.672C48.5047 34.8605 50.3632 38.7744 53.117 42.0295C55.4029 44.4471 57.9348 46.6205 60.6719 48.5144H61.7496C62.1104 48.5357 62.4716 48.4803 62.8093 48.3518C63.1469 48.2233 63.4534 48.0247 63.7084 47.7691C63.9634 47.5135 64.1612 47.2068 64.2885 46.8692C64.4159 46.5316 64.47 46.1709 64.4472 45.8109C64.4979 45.633 64.5093 45.4463 64.4807 45.2636C64.4521 45.0809 64.3842 44.9066 64.2815 44.7527C64.1789 44.5987 64.0439 44.4689 63.8861 44.3721C63.7282 44.2752 63.5513 44.2138 63.3673 44.1919V43.6463C60.764 41.5836 58.4104 39.2249 56.3545 36.618C53.6263 34.2813 51.8924 30.9948 51.5059 27.4273V26.8906H52.0459V27.4273C52.3486 30.7528 53.8863 33.8451 56.3567 36.0967C59.0543 38.7958 61.7518 41.5037 63.3694 43.125H63.9095V43.6617C64.3203 43.8324 64.6557 44.1453 64.854 44.5429C65.0524 44.9405 65.1004 45.3962 64.9893 45.8263C65.0541 46.2663 65.0151 46.7153 64.8755 47.1376C64.736 47.5599 64.4997 47.944 64.1854 48.2592C63.8711 48.5744 63.4875 48.8121 63.065 48.9534C62.6426 49.0947 62.193 49.1357 61.7518 49.0732C63.3695 50.6944 63.3695 52.8546 62.2918 53.3979C61.3943 53.9316 60.369 54.2133 59.3243 54.2133C58.2796 54.2133 57.2543 53.9316 56.3567 53.3979L56.3545 53.3825ZM58.5121 49.5989C58.5121 49.0578 59.592 49.0578 60.1297 49.5989C61.2096 50.1423 61.7496 50.679 61.2097 51.2202C61.2097 51.7613 60.1298 51.7613 59.592 51.2202C59.3916 51.2495 59.1871 51.2215 59.002 51.1393C58.817 51.0571 58.6591 50.9241 58.5469 50.7558C58.4347 50.5876 58.3727 50.3909 58.3681 50.1888C58.3635 49.9867 58.4165 49.7875 58.5209 49.6143L58.5121 49.5989ZM64.4472 56.0817C64.8685 56.0971 65.2673 56.2751 65.5599 56.578C65.8525 56.881 66.016 57.2854 66.016 57.7062C66.016 58.127 65.8525 58.5314 65.5599 58.8344C65.2673 59.1373 64.8685 59.3153 64.4472 59.3307C64.1941 59.4065 63.9267 59.4221 63.6665 59.3763C63.4062 59.3304 63.1604 59.2244 62.9486 59.0666C62.7368 58.9089 62.565 58.7039 62.4468 58.4679C62.3287 58.232 62.2675 57.9717 62.2682 57.708C62.2689 57.4442 62.3315 57.1843 62.4509 56.949C62.5704 56.7137 62.7434 56.5096 62.956 56.353C63.1687 56.1965 63.4151 56.0917 63.6755 56.0473C63.936 56.0028 64.2033 56.0199 64.456 56.0971L64.4472 56.0817ZM61.2097 56.6294C61.1852 57.0503 61.0071 57.4476 60.709 57.7464C60.411 58.0451 60.0136 58.2245 59.592 58.2507C59.1713 58.2352 58.7729 58.0575 58.4808 57.7549C58.1886 57.4524 58.0254 57.0485 58.0254 56.6283C58.0254 56.2081 58.1886 55.8043 58.4808 55.5017C58.7729 55.1991 59.1713 55.0214 59.592 55.006C60.018 55.0305 60.4199 55.2114 60.7202 55.514C61.0205 55.8166 61.198 56.2194 61.2185 56.6448L61.2097 56.6294ZM56.8945 63.6555V62.5732C58.5781 64.4135 60.883 65.5688 63.3673 65.8179C65.7038 66.3849 68.1602 66.1962 70.3822 65.2789L71.9999 64.1989V65.2789C71.5853 65.3181 71.2002 65.5103 70.92 65.8179C68.3028 66.6317 65.5299 66.8171 62.8273 66.359C61.6935 66.4406 60.5572 66.2374 59.5224 65.7678C58.4876 65.2982 57.5871 64.5773 56.9033 63.6709L56.8945 63.6555ZM57.9722 62.5732C57.9642 62.356 58 62.1394 58.0778 61.9364C58.1555 61.7334 58.2734 61.5481 58.4246 61.3916C58.5757 61.2351 58.7568 61.1106 58.9572 61.0256C59.1576 60.9406 59.3732 60.8968 59.5909 60.8968C59.8087 60.8968 60.0242 60.9406 60.2246 61.0256C60.425 61.1106 60.6061 61.2351 60.7572 61.3916C60.9084 61.5481 61.0263 61.7334 61.104 61.9364C61.1818 62.1394 61.2177 62.356 61.2097 62.5732C61.2292 62.7959 61.2021 63.0202 61.1304 63.232C61.0586 63.4437 60.9437 63.6383 60.7928 63.8035C60.6418 63.9686 60.4583 64.1008 60.2536 64.1915C60.049 64.2823 59.8277 64.3297 59.6037 64.3308C59.3798 64.3318 59.158 64.2865 58.9525 64.1977C58.7469 64.1089 58.5621 63.9786 58.4096 63.8148C58.2571 63.6511 58.1403 63.4576 58.0665 63.2466C57.9928 63.0355 57.9636 62.8115 57.981 62.5886L57.9722 62.5732ZM62.2896 63.6555C62.3131 63.2341 62.4908 62.8359 62.789 62.5367C63.0872 62.2374 63.4852 62.0578 63.9072 62.0321C64.3386 62.0321 64.7523 62.2031 65.0573 62.5076C65.3624 62.812 65.5337 63.225 65.5337 63.6555C65.5337 64.0861 65.3624 64.499 65.0573 64.8035C64.7523 65.1079 64.3386 65.2789 63.9072 65.2789C63.4906 65.2499 63.0987 65.0709 62.8044 64.7751C62.5101 64.4793 62.3334 64.0869 62.3072 63.6709L62.2896 63.6555ZM67.6825 63.1166C67.706 62.6948 67.8841 62.2963 68.1827 61.997C68.4814 61.6977 68.8799 61.5184 69.3024 61.4931C69.5544 61.4207 69.8198 61.4077 70.0778 61.4551C70.3357 61.5026 70.579 61.6093 70.7886 61.7667C70.9982 61.9242 71.1682 62.128 71.2853 62.3623C71.4024 62.5966 71.4634 62.8548 71.4634 63.1166C71.4634 63.3784 71.4024 63.6366 71.2853 63.8708C71.1682 64.1051 70.9982 64.309 70.7886 64.4664C70.579 64.6238 70.3357 64.7305 70.0778 64.778C69.8198 64.8255 69.5544 64.8125 69.3024 64.74C68.8841 64.7126 68.4901 64.5344 68.1937 64.2386C67.8973 63.9427 67.7187 63.5494 67.6913 63.132L67.6825 63.1166ZM71.9999 65.8179C72.1048 66.0053 72.2635 66.157 72.4556 66.2535C72.6477 66.3499 72.8643 66.3867 73.0776 66.359C73.0776 66.9046 73.6176 66.9046 73.6176 67.4413C73.5619 67.8509 73.372 68.2307 73.0776 68.5214C72.7696 68.8037 72.578 69.1903 72.5398 69.6059V70.1427H72.0043C71.4643 70.1427 71.4643 70.1427 71.4643 70.6838C71.4643 71.7661 70.3867 70.6838 69.8467 70.6838C69.8467 70.6838 69.3067 71.2228 68.7668 71.7661C67.6869 72.8484 65.5293 72.3095 63.9183 71.7661C63.2868 71.7821 62.6612 71.6422 62.0968 71.359C61.5324 71.0758 61.0468 70.658 60.6829 70.1427C62.8383 70.6838 66.6158 71.7661 68.2334 71.2227C69.8511 70.6794 68.2334 70.1427 67.6935 70.1427C67.1535 70.1427 66.6158 69.6059 67.6935 69.6059C68.7734 69.0604 71.471 69.0604 71.471 67.4413C70.5499 67.489 69.641 67.6721 68.7734 67.9847C67.9644 68.472 67.0102 68.6618 66.0758 68.5214C65.5359 68.5214 65.5359 68.5214 65.5359 67.9847H66.0758C67.932 67.415 69.7368 66.6902 71.471 65.8179H72.0043H71.9999ZM71.9999 59.3307V60.413C71.4292 60.4794 70.8784 60.6629 70.3822 60.952C67.5307 61.4977 64.6012 61.4977 61.7496 60.952C59.862 60.6588 58.1419 59.7005 56.901 58.2507V57.1706C58.1548 58.7123 59.8442 59.8421 61.7496 60.413H69.8423C70.629 60.2058 71.3638 59.8372 71.9999 59.3307ZM67.6825 58.2507C67.6838 57.9312 67.7799 57.6192 67.9587 57.3542C68.1375 57.0892 68.3909 56.883 68.687 56.7616C68.9831 56.6402 69.3086 56.6092 69.6224 56.6723C69.9361 56.7354 70.2242 56.8899 70.4501 57.1163C70.676 57.3427 70.8295 57.6308 70.8915 57.9442C70.9535 58.2577 70.921 58.5824 70.7982 58.8775C70.6754 59.1726 70.4678 59.4247 70.2016 59.6021C69.9353 59.7794 69.6224 59.8741 69.3024 59.8741C69.0839 59.903 68.8618 59.8814 68.6531 59.8108C68.4444 59.7402 68.2548 59.6226 68.0991 59.4671C67.9433 59.3116 67.8254 59.1224 67.7547 58.9141C67.684 58.7058 67.6623 58.484 67.6913 58.266L67.6825 58.2507ZM72.531 53.3825V52.8392H71.4512C71.5228 52.838 71.5938 52.8512 71.6602 52.8782C71.7265 52.9051 71.7868 52.9452 71.8372 52.9959C71.8877 53.0467 71.9273 53.1071 71.9537 53.1735C71.9801 53.24 71.9929 53.3111 71.9911 53.3825C71.4511 53.9215 71.4511 53.9215 70.9111 53.3825H70.3734C70.5798 53.8683 70.9658 54.2559 71.4512 54.4648H72.531C72.4844 56.0988 72.3039 57.7262 71.9911 59.3307V58.2507V56.0817C70.1777 56.1212 68.3662 55.9417 66.596 55.5471C64.4384 54.4648 63.3585 53.3825 63.8984 51.2202C63.917 50.9404 64.0368 50.6769 64.2354 50.4786C64.434 50.2804 64.698 50.1608 64.9783 50.1423C65.1122 49.9217 65.2906 49.7312 65.502 49.5829C65.7134 49.4346 65.9533 49.3317 66.2066 49.2806C66.4599 49.2296 66.7211 49.2315 66.9736 49.2863C67.2261 49.341 67.4644 49.4475 67.6737 49.5989C69.3708 50.3388 71.2577 50.5289 73.0688 50.1423L73.6088 49.5989V50.1423C74.1806 50.0752 74.7322 49.8901 75.2286 49.5989C75.7663 49.5989 76.8462 49.0578 77.384 49.0578C76.3678 49.583 75.2766 49.9488 74.1487 50.1423C73.5598 50.7228 73.18 51.4816 73.0688 52.3002C73.0379 52.7179 72.8525 53.1091 72.5487 53.3979L72.531 53.3825ZM74.7063 55.0148H74.1663C74.223 54.6042 74.4126 54.2234 74.7063 53.9303C74.9869 53.9505 75.2507 54.0714 75.4489 54.2708C75.647 54.4702 75.7661 54.7345 75.784 55.0148C75.784 55.5559 75.784 56.0905 75.2462 56.0905H74.7063V55.0148ZM73.6264 53.3913C74.9728 53.0835 76.2519 52.5342 77.4016 51.7701V52.309C76.2356 52.9371 74.9483 53.3085 73.6264 53.3979V53.3913ZM75.2462 51.7701C75.2462 51.229 75.2462 51.229 74.7063 51.229C74.6997 51.0835 74.7227 50.9381 74.7739 50.8018C74.8252 50.6654 74.9036 50.5408 75.0044 50.4355C75.1053 50.3302 75.2264 50.2464 75.3606 50.1891C75.4947 50.1319 75.6392 50.1024 75.7851 50.1024C75.931 50.1024 76.0754 50.1319 76.2096 50.1891C76.3438 50.2464 76.4649 50.3302 76.5657 50.4355C76.6666 50.5408 76.745 50.6654 76.7962 50.8018C76.8475 50.9381 76.8705 51.0835 76.8639 51.229C76.8639 51.7701 76.8639 52.309 76.324 52.309H75.2462C75.784 52.3156 75.784 51.7767 75.2462 51.7767V51.7701ZM78.4837 58.7984C77.9438 59.3395 77.9438 59.3395 77.4016 58.7984L76.8639 58.2594C76.8639 58.2594 76.3239 57.7161 76.8639 57.7161C76.8639 57.1794 77.4016 57.1794 77.4016 57.7161L77.9548 58.266C78.0252 58.266 78.0949 58.28 78.1598 58.3073C78.2247 58.3345 78.2835 58.3744 78.3328 58.4246C78.382 58.4748 78.4207 58.5343 78.4467 58.5996C78.4726 58.6649 78.4852 58.7347 78.4837 58.805V58.7984ZM74.1663 57.7161C73.6264 57.1794 73.0864 56.6382 73.0864 56.6382C73.6263 56.6382 73.6264 57.1794 74.1663 57.1794C75.74 56.5241 77.066 55.3893 77.9548 53.9369C77.9548 54.4802 77.9548 55.0214 78.4947 55.0214C77.1508 56.0708 75.7 56.9762 74.1663 57.7227V57.7161ZM78.4837 44.7374C78.2788 44.9507 78.1241 45.2069 78.0307 45.4873C77.9373 45.7677 77.9076 46.0654 77.9438 46.3586C77.153 46.9457 76.2239 47.3192 75.2462 47.4431C73.1216 47.982 70.8958 47.982 68.7712 47.4431C68.3341 47.1579 67.9957 46.745 67.8024 46.2608C67.6092 45.7765 67.5703 45.2445 67.6913 44.7374C67.7279 44.177 67.967 43.6489 68.3643 43.2512C68.7615 42.8535 69.2898 42.6133 69.8511 42.575C72.1571 43.1179 74.5579 43.1179 76.8639 42.575C77.5192 42.1994 78.2662 42.0128 79.0215 42.0361C78.5306 42.849 78.3403 43.8079 78.4837 44.7462V44.7374ZM79.0215 40.9538C78.4838 41.4949 77.4016 41.4949 76.8639 42.0361H69.8511C69.1494 42.0823 68.4886 42.382 67.9921 42.8791C67.4957 43.3763 67.1975 44.0369 67.1535 44.7374C67.0136 45.6743 67.2037 46.6305 67.6913 47.4431C67.6913 47.9799 68.2313 47.9799 68.7712 47.9799C71.0738 48.5508 73.4814 48.5508 75.784 47.9799C76.5575 47.7371 77.2867 47.3717 77.9438 46.8976V47.9799C76.5637 48.5446 75.1099 48.9097 73.6264 49.0644C71.8097 49.2515 69.9739 49.0666 68.2313 48.521C67.6913 48.521 67.6913 47.9799 67.1535 47.9799C66.7135 46.9585 66.5283 45.8459 66.6136 44.7374C66.5448 44.2969 66.5809 43.8464 66.7191 43.4224C66.8573 42.9984 67.0936 42.6129 67.4089 42.2971C67.7242 41.9813 68.1097 41.7441 68.534 41.6047C68.9583 41.4654 69.4095 41.4277 69.8511 41.4949H76.8639C77.4571 40.9246 78.2092 40.5466 79.0215 40.4104V40.9538ZM79.0215 38.2503C76.9434 38.9837 74.7528 39.3493 72.5487 39.3304H72.0043C71.7819 39.2738 71.5743 39.1701 71.3957 39.0263C71.217 38.8825 71.0715 38.7019 70.9691 38.4969C70.8666 38.292 70.8096 38.0674 70.8019 37.8384C70.7942 37.6095 70.8359 37.3815 70.9244 37.1702C70.8925 36.9502 70.9123 36.7257 70.9823 36.5147C71.0523 36.3036 71.1706 36.1118 71.3277 35.9543C71.4849 35.7967 71.6766 35.6779 71.8878 35.6072C72.0989 35.5364 72.3237 35.5157 72.5443 35.5467C74.7155 35.6143 76.8873 35.4328 79.0171 35.0056V38.2503H79.0215ZM79.5614 34.4644H78.4837C77.6551 34.9015 76.7174 35.0894 75.784 35.0056H72.5487C71.9875 35.0448 71.4597 35.2858 71.063 35.6838C70.6663 36.0818 70.4275 36.6099 70.391 37.1702C70.391 38.787 70.9288 39.8693 72.0087 39.8693H75.784C76.5571 39.6256 77.2861 39.2602 77.9438 38.787H79.0215V39.3304H78.4837C77.9438 39.8693 77.9438 39.8693 75.2462 40.4104C73.6192 40.8425 71.889 40.6494 70.3977 39.8693C70.121 39.4834 69.9297 39.0431 69.8366 38.5778C69.7435 38.1124 69.7506 37.6325 69.8577 37.1702V36.0967C69.8559 36.0253 69.8686 35.9543 69.8951 35.888C69.9216 35.8217 69.9612 35.7614 70.0117 35.7108C70.0622 35.6602 70.1224 35.6204 70.1887 35.5937C70.2551 35.567 70.3262 35.554 70.3977 35.5555C70.3977 34.4732 71.4753 34.4732 72.5553 34.4732C74.369 34.513 76.1808 34.3312 77.9504 33.9321H79.568V34.4732L79.5614 34.4644ZM80.6391 30.6786C80.1014 29.5963 79.0215 28.5184 78.4837 30.6786C78.3877 30.4227 78.2394 30.1897 78.0482 29.9942C77.8569 29.7987 77.6269 29.6452 77.3729 29.5434C77.1189 29.4415 76.8464 29.3937 76.5729 29.4028C76.2993 29.4119 76.0306 29.4778 75.784 29.5963C75.2463 29.5963 75.2462 30.6786 76.8639 30.6786L80.1014 31.7565C78.4558 31.5449 76.8329 31.1841 75.2528 30.6786C73.6329 30.1375 74.7129 29.0574 75.7906 29.0574C78.4991 29.1293 81.2084 28.9488 83.8833 28.5184C85.3729 27.7031 86.642 26.5391 87.5817 25.1264C88.5214 23.7137 89.1036 22.0945 89.2784 20.4078C89.0332 19.7033 88.8525 18.9781 88.7384 18.2411L89.2784 18.7844C89.2398 19.1383 89.3266 19.4946 89.5239 19.7912C89.7212 20.0878 90.0165 20.306 90.3583 20.4078C89.2784 21.4879 89.2784 22.0247 90.3583 23.1092C88.2007 23.1092 88.7384 24.7326 89.2784 25.8105C88.7384 25.2716 87.1208 25.8105 87.6607 27.9773C86.583 27.4339 85.5009 27.4339 85.5009 29.5963C83.8833 27.9773 83.3455 28.5184 82.8055 30.1375C82.259 29.0574 81.1813 29.0574 80.6391 30.6874V30.6786ZM87.6541 29.0574C87.5971 29.4666 87.4075 29.846 87.1142 30.1375C86.8342 30.1174 86.571 29.9971 86.3729 29.7986C86.1749 29.6001 86.0554 29.3369 86.0364 29.0574C86.0364 28.5184 86.5764 28.5184 87.1142 28.5184C87.1853 28.5172 87.2559 28.5304 87.3219 28.5571C87.3878 28.5837 87.4477 28.6234 87.4979 28.6737C87.5481 28.7241 87.5876 28.784 87.614 28.8499C87.6405 28.9158 87.6534 28.9864 87.6519 29.0574H87.6541ZM83.8767 32.2999C83.7428 32.4021 83.5858 32.4699 83.4195 32.4974C83.2533 32.5249 83.0828 32.5112 82.923 32.4576C82.7633 32.4039 82.6192 32.3119 82.5034 32.1897C82.3876 32.0674 82.3037 31.9187 82.259 31.7565C82.3919 31.4376 82.6165 31.1651 82.9044 30.9734C83.1923 30.7818 83.5306 30.6795 83.8767 30.6795C84.2227 30.6795 84.561 30.7818 84.8489 30.9734C85.1368 31.1651 85.3613 31.4376 85.4943 31.7565C85.0439 32.1372 84.4663 32.3344 83.8767 32.3087V32.2999ZM87.1142 33.9233V34.4644H86.5764V33.9233H87.1142ZM86.0364 33.9233H84.9566C88.5397 30.4244 91.3033 26.1779 93.0492 21.4879V22.568C91.7796 26.9173 89.3567 30.8435 86.0364 33.9321V33.9233ZM89.8117 31.2176H89.2718V30.6786H89.8117V31.2176ZM91.4316 29.0574H90.3517V28.5184H90.8894L91.4316 29.0574ZM93.0492 25.8105H91.9693C91.9678 25.7393 91.9807 25.6686 92.0073 25.6025C92.034 25.5364 92.0737 25.4764 92.1241 25.4261C92.1745 25.3757 92.2347 25.3361 92.3009 25.3095C92.367 25.283 92.438 25.27 92.5093 25.2715H93.0492V25.8105ZM93.587 24.1871V24.7326H93.0492V24.1959H93.587V24.1871ZM77.9394 13.9207C78.0094 13.9926 78.0932 14.0498 78.1858 14.0888C78.2783 14.1278 78.3777 14.1479 78.4782 14.1479C78.5787 14.1479 78.6781 14.1278 78.7707 14.0888C78.8633 14.0498 78.947 13.9926 79.0171 13.9207C79.557 13.3751 79.0171 13.3751 78.4793 12.8362C77.9394 12.8362 76.8595 12.8362 76.8595 13.3751C77.1517 13.6777 77.5376 13.873 77.9548 13.9295L77.9394 13.9207ZM62.2918 35.0056C62.4013 34.8313 62.4582 34.6292 62.4556 34.4235C62.4529 34.2178 62.3909 34.0173 62.2769 33.8459C62.1629 33.6745 62.0018 33.5396 61.8128 33.4573C61.6239 33.3751 61.4153 33.349 61.2119 33.3821H60.6741C60.8614 33.4887 61.0126 33.6486 61.1084 33.8414C61.2042 34.0342 61.2402 34.2511 61.2119 34.4644C61.1665 34.6261 61.082 34.7743 60.9661 34.8959C60.8501 35.0176 60.7061 35.1091 60.5466 35.1624C60.3871 35.2158 60.2168 35.2294 60.0508 35.2021C59.8848 35.1747 59.7281 35.1073 59.5942 35.0056H59.0543L59.5942 35.5467L60.132 36.0879C60.3338 36.2359 60.5725 36.3257 60.8219 36.3475C61.0714 36.3692 61.3221 36.3222 61.5466 36.2114C61.7711 36.1006 61.9608 35.9303 62.0949 35.7192C62.2291 35.5081 62.3025 35.2643 62.3072 35.0144L62.2918 35.0056ZM70.9222 29.0662C70.9207 29.1374 70.9336 29.2081 70.9602 29.2742C70.9868 29.3403 71.0266 29.4003 71.077 29.4506C71.1274 29.501 71.1876 29.5406 71.2538 29.5672C71.3199 29.5937 71.3908 29.6066 71.4621 29.6051H72.5421C72.5028 29.1913 72.3103 28.8069 72.0021 28.5272C71.4688 28.5272 70.9288 28.5272 70.9288 29.0574L70.9222 29.0662ZM90.8828 22.5768C91.425 22.5768 91.425 22.5768 91.425 22.0335C91.425 21.4901 91.425 21.4967 90.8828 21.4967C90.3406 21.4967 90.3451 21.4967 90.3451 22.0335C90.3451 22.5702 90.3516 22.5768 90.8894 22.5768H90.8828ZM89.2651 26.3648C88.9854 26.3844 88.7222 26.5043 88.5242 26.7024C88.3261 26.9005 88.2065 27.1635 88.1875 27.4427H89.2651V26.3648ZM90.8828 24.7414C90.8828 24.1959 90.3451 24.1959 89.8051 24.1959V25.2804C90.3517 25.2804 90.8894 25.2804 90.8894 24.7414H90.8828ZM61.7518 37.7201V38.2635C62.2918 38.2635 62.2918 38.2635 62.2918 38.8002H63.3694C63.7292 39.0051 64.1542 39.0637 64.5561 38.9638C64.958 38.8638 65.3058 38.6129 65.5271 38.2635C65.5264 37.7773 65.3687 37.3042 65.0772 36.9147C64.7858 36.5251 64.3763 36.2398 63.9095 36.1011H63.3694V36.6378C63.4412 36.6369 63.5123 36.6504 63.5787 36.6776C63.645 36.7048 63.7052 36.7451 63.7556 36.796C63.806 36.8469 63.8456 36.9075 63.8721 36.974C63.8985 37.0406 63.9112 37.1118 63.9095 37.1834C63.7692 37.4973 63.5429 37.7652 63.2567 37.9563C62.9705 38.1474 62.636 38.2539 62.2918 38.2635V37.7201H61.7518ZM70.3845 58.2705C70.3862 58.199 70.3735 58.1279 70.3471 58.0614C70.3206 57.995 70.281 57.9346 70.2306 57.8838C70.1801 57.8331 70.1199 57.793 70.0536 57.7661C69.9872 57.7392 69.9161 57.7259 69.8445 57.7271C69.3046 57.7271 68.7646 57.7271 68.7646 58.2705C68.7836 58.5503 68.9034 58.8138 69.1019 59.0123C69.3004 59.2109 69.5642 59.331 69.8445 59.3505C70.1411 59.0588 70.3332 58.6777 70.391 58.266L70.3845 58.2705ZM59.5854 31.7697C59.6946 31.5957 59.7512 31.3939 59.7484 31.1885C59.7455 30.9832 59.6834 30.783 59.5693 30.6121C59.4553 30.4411 59.2942 30.3067 59.1055 30.2248C58.9168 30.143 58.7085 30.1172 58.5055 30.1507H57.9655C57.9655 30.6918 58.5055 30.6918 58.5055 31.2308C57.9655 31.7697 57.4278 32.313 56.8879 31.7697H56.3567V32.3131C56.6358 32.6228 57.0212 32.8167 57.4366 32.8564C57.6394 33.003 57.8787 33.091 58.1284 33.1108C58.378 33.1307 58.6282 33.0816 58.8517 32.9689C59.0752 32.8562 59.2634 32.6843 59.3955 32.472C59.5276 32.2597 59.5986 32.0152 59.6008 31.7653L59.5854 31.7697ZM68.7558 31.7697C68.7476 31.3522 68.6465 30.9418 68.4598 30.5681C68.273 30.1945 68.0052 29.867 67.6759 29.6095H66.5981V30.1573C67.1381 30.1573 67.6759 30.6984 67.1381 31.2374C67.1381 31.7763 66.5981 31.7763 66.0582 31.7763H65.5183V31.2374V32.3196C65.9284 32.3771 66.308 32.5681 66.5981 32.863C67.6913 32.852 68.7712 32.852 68.7712 31.7653L68.7558 31.7697ZM63.3606 23.6591C63.4006 23.5101 63.4006 23.3532 63.3606 23.2042C63.3207 23.0552 63.2422 22.9193 63.133 22.8102C63.0239 22.701 62.8879 22.6224 62.7387 22.5822C62.5895 22.542 62.4323 22.5417 62.283 22.5812H61.743C62.283 22.5812 62.283 23.1224 62.283 23.6591H60.6653V24.2003C60.7688 24.3891 60.9272 24.5423 61.1195 24.6396C61.3118 24.737 61.5292 24.774 61.743 24.7458C61.9229 24.7992 62.1124 24.8123 62.2979 24.7842C62.4835 24.7562 62.6605 24.6876 62.8165 24.5834C62.9724 24.4792 63.1034 24.3419 63.2002 24.1814C63.2969 24.0209 63.357 23.8411 63.3761 23.6547L63.3606 23.6591ZM64.4406 25.8237H63.3606V26.3692C63.7704 26.4262 64.15 26.6164 64.4406 26.9104C64.0428 27.4474 63.47 27.8293 62.8207 27.9905C62.7493 27.9914 62.6784 27.9779 62.6123 27.9508C62.5462 27.9238 62.4863 27.8837 62.4361 27.8329C62.3858 27.7822 62.3464 27.7219 62.3201 27.6556C62.2938 27.5893 62.2812 27.5184 62.283 27.4471V28.5316H63.3606C63.532 28.6568 63.729 28.7428 63.9374 28.7834C64.1459 28.824 64.3607 28.8183 64.5667 28.7666C64.7727 28.7149 64.9648 28.6186 65.1292 28.4845C65.2937 28.3503 65.4265 28.1817 65.5183 27.9905C65.5128 27.5727 65.4147 27.1614 65.2311 26.786C65.0474 26.4106 64.7827 26.0804 64.456 25.8193L64.4406 25.8237ZM50.9527 31.2308C51.0624 31.0569 51.1195 30.8551 51.1171 30.6496C51.1146 30.4441 51.0527 30.2437 50.9389 30.0725C50.8251 29.9012 50.6641 29.7665 50.4754 29.6843C50.2867 29.6022 50.0782 29.5762 49.8751 29.6095H49.3351C49.8751 29.6095 49.8751 30.1507 49.8751 30.6918C49.5841 30.9848 49.2046 31.1742 48.7952 31.2308C48.7967 31.1596 48.7837 31.0888 48.7571 31.0228C48.7305 30.9567 48.6908 30.8967 48.6404 30.8463C48.5899 30.796 48.5298 30.7563 48.4636 30.7298C48.3974 30.7032 48.3265 30.6903 48.2552 30.6918V31.7697H49.3351C50.4283 32.3086 50.9682 31.7653 50.9682 31.2264L50.9527 31.2308ZM66.0582 52.859L65.5183 52.32C65.6772 52.9699 66.0593 53.5436 66.5981 53.9413C67.6758 54.4846 68.7558 54.4846 68.7558 53.9413C68.9574 53.4907 69.0138 52.9887 68.9171 52.5047C68.8204 52.0208 68.5753 51.5788 68.2158 51.2399H67.1558C67.36 51.4532 67.5141 51.7091 67.6071 51.9891C67.7001 52.2691 67.7296 52.5662 67.6935 52.859H66.0758H66.0582ZM71.9933 36.6378H72.5333C73.071 36.6378 73.071 36.6378 73.071 37.7201C73.0728 37.7914 73.0602 37.8623 73.0339 37.9286C73.0075 37.9949 72.9681 38.0552 72.9179 38.1059C72.8677 38.1566 72.8077 38.1968 72.7416 38.2238C72.6755 38.2509 72.6047 38.2644 72.5333 38.2635C71.9933 38.2635 71.9933 38.2635 71.9933 37.7201C71.9548 37.8975 71.9523 38.0808 71.9859 38.2592C72.0195 38.4376 72.0886 38.6074 72.189 38.7587C72.2895 38.91 72.4193 39.0397 72.5708 39.1402C72.7223 39.2406 72.8923 39.3098 73.071 39.3435C73.5018 39.3435 73.9149 39.1727 74.2195 38.8687C74.5241 38.5647 74.6952 38.1523 74.6952 37.7223C74.6952 37.2923 74.5241 36.88 74.2195 36.5759C73.9149 36.2719 73.5018 36.1011 73.071 36.1011C72.662 36.1417 72.2822 36.3312 72.0043 36.6334L71.9933 36.6378ZM70.3756 43.6661H69.2958C69.5833 43.6661 69.8591 43.7801 70.0624 43.9831C70.2658 44.1861 70.38 44.4614 70.38 44.7484C70.38 45.0354 70.2658 45.3107 70.0624 45.5137C69.8591 45.7167 69.5833 45.8307 69.2958 45.8307L68.7558 45.294C68.7804 45.7147 68.959 46.1118 69.2576 46.4099C69.5562 46.7079 69.9541 46.8862 70.3756 46.9108C70.8073 46.9128 71.2221 46.7436 71.5288 46.4404C71.8354 46.1372 72.0089 45.7248 72.0109 45.294C72.013 44.8631 71.8435 44.4491 71.5397 44.143C71.2359 43.8369 70.8227 43.6637 70.391 43.6617L70.3756 43.6661ZM74.6909 43.6661C74.1509 43.6661 73.6109 43.6661 73.6109 44.2117C74.0204 44.2682 74.3999 44.4576 74.6909 44.7506C74.6728 45.0308 74.5532 45.2948 74.3545 45.4935C74.1558 45.6922 73.8916 45.8121 73.6109 45.8307H73.071C73.1956 46.0331 73.3679 46.2022 73.5729 46.323C73.7779 46.4438 74.0094 46.5128 74.2472 46.524C74.485 46.5352 74.7219 46.4882 74.9374 46.3871C75.1528 46.2861 75.3403 46.134 75.4834 45.9441C75.6266 45.7543 75.7211 45.5323 75.7587 45.2977C75.7964 45.0631 75.776 44.8228 75.6994 44.5978C75.6228 44.3729 75.4923 44.17 75.3192 44.0068C75.1461 43.8437 74.9357 43.7252 74.7063 43.6617L74.6909 43.6661ZM83.8612 31.7697C82.7835 31.7697 82.7835 31.7697 82.7835 32.3131C83.0732 32.6075 83.4519 32.7985 83.8612 32.8564C84.4012 32.8564 84.4011 32.313 84.4011 31.7697H83.8612ZM87.0987 28.5316C86.819 28.5512 86.5558 28.6711 86.3577 28.8692C86.1596 29.0673 86.04 29.3303 86.021 29.6095H87.0987V28.5316ZM67.6759 50.1621H64.9959C64.8082 50.2672 64.6564 50.4261 64.5601 50.6182C64.4638 50.8104 64.4276 51.027 64.456 51.2399C64.3565 52.0191 64.5131 52.8094 64.9022 53.4921C65.2913 54.1747 65.8918 54.7129 66.6136 55.0258C68.3898 55.3828 70.1969 55.5641 72.0087 55.5669V55.0148C70.3757 55.049 68.7453 54.867 67.1601 54.4736C65.0025 53.3913 65.0025 52.848 65.0025 51.7701C65.0025 51.229 65.0026 50.6878 65.5403 50.6878C65.6351 50.5629 65.7575 50.4617 65.898 50.392C66.0385 50.3223 66.1933 50.286 66.3502 50.286C66.5071 50.286 66.6619 50.3223 66.8025 50.392C66.943 50.4617 67.0654 50.5629 67.1601 50.6878C68.8966 51.307 70.7139 51.6716 72.5553 51.7701V50.6878C70.9288 51.2355 68.7712 50.1577 67.6913 50.1577L67.6759 50.1621ZM75.7685 36.1011C76.1777 36.1572 76.557 36.3458 76.8484 36.6378C76.8484 37.7201 76.3085 37.7201 75.7685 37.7201H75.2308C75.2661 37.8969 75.336 38.065 75.4364 38.2149C75.5368 38.3647 75.6657 38.4934 75.816 38.5935C75.9662 38.6936 76.1347 38.7631 76.3118 38.7982C76.489 38.8333 76.6713 38.8332 76.8484 38.798C77.0255 38.7628 77.194 38.693 77.3441 38.5928C77.4942 38.4926 77.6232 38.3638 77.7234 38.2139C77.8237 38.064 77.8934 37.8958 77.9286 37.719C77.9637 37.5422 77.9637 37.3602 77.9284 37.1834C77.9103 36.903 77.7909 36.6387 77.5922 36.4396C77.3936 36.2405 77.1293 36.1202 76.8484 36.1011H75.7685Z" fill="white"/>
<path fill-rule="evenodd" clip-rule="evenodd" d="M79.6773 88H10.0961C8.87768 88 7.67118 87.7605 6.54548 87.2951C5.41978 86.8296 4.39696 86.1475 3.53538 85.2875C2.6738 84.4275 1.99033 83.4066 1.52405 82.283C1.05777 81.1594 0.81778 79.9551 0.81778 78.7389V75.2545C0.81778 74.9476 0.939894 74.6533 1.15729 74.4363C1.3747 74.2193 1.66958 74.0974 1.97703 74.0974C2.28448 74.0974 2.57936 74.2193 2.79676 74.4363C3.01416 74.6533 3.13627 74.9476 3.13627 75.2545V78.7323C3.13656 79.6443 3.31681 80.5473 3.66673 81.3898C4.01666 82.2322 4.52937 82.9977 5.17565 83.6423C5.82194 84.287 6.58916 84.7983 7.43341 85.147C8.27767 85.4958 9.18243 85.6751 10.0961 85.6748H79.6773C80.591 85.6751 81.4958 85.4958 82.34 85.147C83.1843 84.7983 83.9515 84.287 84.5977 83.6423C85.244 82.9977 85.7568 82.2322 86.1067 81.3898C86.4566 80.5473 86.6369 79.6443 86.6372 78.7323V38.2146C86.6372 37.9077 86.7593 37.6134 86.9767 37.3964C87.1941 37.1794 87.489 37.0575 87.7964 37.0575C88.1039 37.0575 88.3988 37.1794 88.6162 37.3964C88.8336 37.6134 88.9557 37.9077 88.9557 38.2146V78.7389C88.9557 79.9551 88.7157 81.1594 88.2494 82.283C87.7831 83.4066 87.0997 84.4275 86.2381 85.2875C85.3765 86.1475 84.3537 86.8296 83.228 87.2951C82.1023 87.7605 80.8958 88 79.6773 88ZM87.7964 13.9026C87.644 13.9026 87.493 13.8726 87.3523 13.8143C87.2115 13.756 87.0836 13.6706 86.976 13.5629C86.8683 13.4553 86.7829 13.3274 86.7248 13.1868C86.6667 13.0462 86.6369 12.8955 86.6372 12.7433V9.26107C86.6372 8.34889 86.4571 7.44566 86.1073 6.60295C85.7575 5.76023 85.2449 4.99455 84.5985 4.34965C83.9522 3.70474 83.185 3.19326 82.3406 2.84438C81.4962 2.49551 80.5912 2.31608 79.6773 2.31637H10.0961C9.18225 2.31608 8.27727 2.49551 7.43287 2.84438C6.58848 3.19326 5.82122 3.70474 5.17491 4.34965C4.5286 4.99455 4.01592 5.76023 3.66613 6.60295C3.31633 7.44566 3.13627 8.34889 3.13627 9.26107V65.9934C3.13627 66.3003 3.01416 66.5946 2.79676 66.8116C2.57936 67.0286 2.28448 67.1505 1.97703 67.1505C1.66958 67.1505 1.3747 67.0286 1.15729 66.8116C0.939894 66.5946 0.81778 66.3003 0.81778 65.9934V9.26107C0.81778 6.80488 1.79535 4.4493 3.53538 2.71252C5.27541 0.975729 7.63535 0 10.0961 0H79.6773C82.1381 0 84.498 0.975729 86.2381 2.71252C87.9781 4.4493 88.9557 6.80488 88.9557 9.26107V12.7367C88.9565 12.8893 88.9272 13.0406 88.8694 13.1819C88.8115 13.3231 88.7263 13.4516 88.6186 13.5599C88.5109 13.6683 88.3828 13.7543 88.2417 13.8131C88.1006 13.8719 87.9493 13.9023 87.7964 13.9026Z" fill="white"/>
</g>
</svg>
