<svg width="181" height="38" viewBox="0 0 181 38" fill="none" xmlns="http://www.w3.org/2000/svg">
<g>
<path d="M72.8315 6.80225L74.4327 0.456055H65.6261L64.0249 6.80225H72.8315Z" fill="white"/>
<path d="M29.4581 11.9252C29.1756 12.5833 28.7046 13.0064 27.8569 13.5704L14.5764 22.0786L20.0864 0.220703H9.91415C9.96124 1.44286 9.77286 2.94706 9.01936 6.04946L2.5204 31.9028C1.7669 34.9582 1.15468 36.5094 0.495361 37.7316H11.1386C11.0915 36.5094 11.2799 35.0052 12.0334 31.9028L13.2107 27.2492L17.7317 24.3819L21.8289 37.7316H33.0373C32.1896 36.5094 31.2948 34.7702 31.0593 33.9241L26.4441 18.7411C35.9571 12.9124 36.9461 12.3953 37.8879 11.9252H29.4581Z" fill="white"/>
<path d="M66.5213 37.7312C66.4742 36.509 66.6626 35.0048 67.4161 31.9024L72.408 11.9248H62.2828C62.3299 13.147 62.1416 14.6512 61.3881 17.7536L57.9031 31.8084C57.5734 33.1716 57.0554 33.6886 55.7839 33.6886H47.6366C46.3651 33.6886 46.1296 33.1716 46.4593 31.8084L51.4041 11.9718H41.2789C41.326 13.194 41.1377 14.6982 40.3842 17.8006L37.1347 30.8683C35.9573 35.6629 37.5114 37.7782 41.8912 37.7782H53.6646C55.2658 37.7782 56.1135 37.1671 57.2909 35.1458H57.3851L56.9612 37.7782H66.5213V37.7312Z" fill="white"/>
<path d="M52.6757 6.80225L54.2769 0.456055H45.4703L43.8691 6.80225H52.6757Z" fill="white"/>
<path d="M91.1048 0.220703H80.9796C81.0267 1.44286 80.8383 2.94706 80.0848 6.04946L73.5859 31.9028C72.8324 34.9582 72.2201 36.5094 71.6079 37.7316H82.2511C82.204 36.5094 82.3924 35.0052 83.1459 31.9028L86.6309 17.848C86.9605 16.4848 87.4786 15.9678 88.7501 15.9678H96.8974C98.1689 15.9678 98.4044 16.4848 98.0747 17.848L94.5897 31.9028C93.8362 34.9582 93.224 36.5094 92.6118 37.7316H103.255C103.208 36.5094 103.396 35.0052 104.15 31.9028L107.399 18.8351C108.577 14.0405 107.023 11.9252 102.643 11.9252H91.0106C89.2681 11.9252 88.4204 12.9594 87.7611 13.8525H87.6198L91.1048 0.220703Z" fill="white"/>
<path d="M114.699 11.9248C114.746 13.147 114.558 14.6512 113.804 17.7536L110.272 31.9024C109.519 34.9578 108.906 36.509 108.247 37.7312H118.89C118.843 36.509 119.032 35.0048 119.785 31.9024L123.27 17.8476C123.6 16.4844 124.118 15.9673 125.389 15.9673H133.537C134.808 15.9673 135.044 16.4844 134.714 17.8476L131.229 31.9024C130.475 34.9578 129.863 36.509 129.251 37.7312H139.894C139.847 36.509 140.035 35.0048 140.789 31.9024L144.038 18.8347C145.216 14.0401 143.662 11.9248 139.282 11.9248H127.508C125.907 11.9248 125.06 12.5359 123.882 14.5572H123.788L124.212 11.9248H114.699Z" fill="white"/>
<path fill-rule="evenodd" clip-rule="evenodd" d="M158.071 23.1121L159.39 17.8474C159.72 16.4843 160.238 15.9672 161.509 15.9672H169.986C171.258 15.9672 171.493 16.4843 171.164 17.8474L169.845 23.1121H158.071ZM178.369 27.2017L180.441 18.8816C181.618 14.0869 180.064 11.9717 175.685 11.9717H157.789C153.409 11.9717 150.772 14.134 149.595 18.8816L146.628 30.8211C145.45 35.6158 147.004 37.731 151.384 37.731H175.025L176.909 33.3595C175.685 33.5945 174.648 33.6885 173.801 33.6885H157.13C155.858 33.6885 155.623 33.1714 155.952 31.8083L157.082 27.2017H178.369Z" fill="white"/>
</g>
</svg>
