<svg width="40" height="41" viewBox="0 0 40 41" fill="none" xmlns="http://www.w3.org/2000/svg">
<path d="M20 0.173737C9 0.173737 0 9.17374 0 20.1737C0 31.1737 9 40.1737 20 40.1737C31 40.1737 40 31.1737 40 20.1737C40 9.17374 31 0.173737 20 0.173737ZM30.2 27.1737L27.3 30.0737C27 30.3737 26.5 30.5737 26.1 30.6737C26 30.6737 25.8 30.6737 25.7 30.6737C24.6 30.6737 20.5 30.2737 15.2 24.9737C9 18.7737 9.5 14.2737 9.6 14.0737C9.7 13.6737 9.9 13.1737 10.2 12.8737L13.2 9.97374C13.4 9.77374 13.7 9.67374 13.9 9.67374C14.3 9.67374 14.6 9.87374 14.8 10.2737L17.2 14.7737C17.4 15.2737 17.3 15.8737 16.9 16.2737L15.8 17.3737C15.7 17.4737 15.7 17.5737 15.7 17.6737C15.7 17.6737 15.8 19.1737 18.5 21.8737C21.2 24.5737 22.7 24.6737 22.7 24.6737C22.8 24.6737 22.9 24.5737 23 24.5737L24.3 23.2737C24.5 23.0737 24.9 22.8737 25.2 22.8737C25.4 22.8737 25.6 22.8737 25.8 22.9737L30.1 25.4737C30.4 25.6737 30.6 25.8737 30.6 26.1737C30.5 26.5737 30.4 26.8737 30.2 27.1737Z" fill="white"/>
</svg>
