<svg width="30" height="30" viewBox="0 0 30 30" fill="none" xmlns="http://www.w3.org/2000/svg">
<circle cx="15" cy="15" r="15" fill="white"/>
<path d="M21.992 19.0474C21.9586 18.841 21.8292 18.6646 21.6354 18.5598L18.7684 16.8706L18.7448 16.8574C18.6246 16.7972 18.4919 16.7663 18.3574 16.7674C18.1172 16.7674 17.8878 16.8584 17.7286 17.018L16.8824 17.8646C16.8462 17.899 16.7282 17.9488 16.6924 17.9506C16.6826 17.9498 15.7078 17.8796 13.9132 16.0848C12.1218 14.2938 12.0452 13.316 12.0452 13.316C12.0462 13.266 12.0954 13.1484 12.1304 13.112L12.852 12.3906C13.1062 12.1358 13.1824 11.7134 13.0316 11.3862L11.438 8.38755C11.3222 8.14915 11.0972 8.00195 10.8476 8.00195C10.671 8.00195 10.5006 8.07515 10.3674 8.20815L8.40043 10.1708C8.21183 10.3584 8.04943 10.6864 8.01403 10.9504C7.99683 11.0766 7.64783 14.089 11.7778 18.2196C15.284 21.7254 18.018 21.9978 18.773 21.9978C18.865 21.9989 18.9569 21.9942 19.0482 21.9836C19.3114 21.9484 19.639 21.7864 19.8264 21.5986L21.7918 19.6334C21.9522 19.4722 22.0254 19.2592 21.992 19.0474Z" fill="#481120"/>
</svg>
