<svg width="30" height="31" viewBox="0 0 30 31" fill="none" xmlns="http://www.w3.org/2000/svg">
<g clip-path="url(#clip0)">
<path d="M18.1255 0.5H11.8743C5.32675 0.5 -0.00012207 5.36812 -0.00012207 11.352V16.4995C-0.00012207 20.9557 2.9955 24.9606 7.49988 26.5917V29.9287C7.49988 30.1549 7.6455 30.3595 7.87175 30.4509C7.953 30.484 8.03925 30.5 8.12488 30.5C8.27675 30.5 8.42738 30.4492 8.54425 30.352L12.1686 27.3515H18.1255C24.673 27.3515 29.9999 22.4834 29.9999 16.4995V11.352C29.9999 5.36812 24.673 0.5 18.1255 0.5ZM28.7499 16.4995C28.7499 21.8532 23.9843 26.2089 18.1255 26.2089H11.9274C11.7724 26.2089 11.623 26.2615 11.508 26.3569L8.74988 28.6404V26.1958C8.74988 25.9535 8.583 25.7376 8.333 25.6576C4.09675 24.2882 1.24988 20.6078 1.24988 16.4995V11.352C1.24988 5.99828 6.01613 1.64262 11.8743 1.64262H18.1255C23.9843 1.64262 28.7499 5.99828 28.7499 11.352V16.4995Z" fill="#691D35"/>
<path d="M23.2599 17.9205L19.4186 15.6399C18.9986 15.3902 18.4986 15.3057 18.0092 15.3982C17.5192 15.4925 17.098 15.757 16.8249 16.1426L16.6442 16.3963C14.9817 15.8941 13.1486 15.2525 12.0511 12.3486L12.5055 11.9875C13.2855 11.3676 13.3674 10.2833 12.6892 9.56915L9.68424 6.40924C9.45799 6.171 9.06299 6.14643 8.80237 6.35268L6.91549 7.85179C5.26049 9.16694 6.03362 11.1123 6.28799 11.7515C6.29924 11.7801 6.31299 11.8075 6.32924 11.8344C6.39487 11.9418 7.96174 14.4978 10.4924 16.8539C13.033 19.2197 17.6199 21.4044 17.7605 21.4678C18.2842 21.7786 18.8736 21.9277 19.4567 21.9277C20.4805 21.9277 21.4842 21.4689 22.083 20.628L23.4442 18.7118C23.6317 18.4461 23.5492 18.0925 23.2599 17.9205ZM21.0342 20.0052C20.4711 20.7982 19.3074 21.0233 18.3886 20.4817C18.343 20.46 13.7861 18.2907 11.3842 16.0541C9.13924 13.9637 7.64862 11.6413 7.44549 11.3174C6.95049 10.0485 7.03799 9.26864 7.73549 8.71447L9.15112 7.59013L11.7461 10.3187C11.9767 10.5609 11.9499 10.9151 11.6861 11.1248L10.9192 11.7338C10.7324 11.8824 10.6586 12.1172 10.7317 12.3331C12.0392 16.2169 14.5817 16.9796 16.438 17.5366L16.7086 17.6183C16.9792 17.7017 17.2755 17.6063 17.4305 17.3881L17.8736 16.7642C17.9649 16.6351 18.1049 16.5477 18.2674 16.5163C18.4305 16.4843 18.5967 16.514 18.738 16.598L22.0555 18.5673L21.0342 20.0052Z" fill="#691D35"/>
<path d="M16.4267 9.78214C16.0942 9.69473 15.7486 9.87126 15.6542 10.1752C15.5599 10.4786 15.7524 10.7945 16.0842 10.8808C17.0155 11.123 17.7574 11.8023 18.0199 12.6541C18.0974 12.9055 18.348 13.0706 18.6211 13.0706C18.6774 13.0706 18.7342 13.0637 18.7911 13.0495C19.123 12.9638 19.3167 12.6484 19.223 12.3445C18.8436 11.1139 17.7717 10.1318 16.4267 9.78214Z" fill="#691D35"/>
<path d="M21.183 13.1947C21.2393 13.1947 21.2961 13.1878 21.353 13.1735C21.6855 13.0878 21.8786 12.7719 21.7849 12.4685C21.0474 10.0787 18.9668 8.17285 16.3543 7.49299C16.0224 7.40558 15.6768 7.58326 15.5824 7.88662C15.488 8.18999 15.6805 8.50592 16.0124 8.59219C18.2105 9.1635 19.9611 10.7683 20.5818 12.7787C20.6599 13.0301 20.9099 13.1947 21.183 13.1947Z" fill="#691D35"/>
<path d="M16.0849 4.83096C15.7524 4.74355 15.4068 4.92009 15.3124 5.2246C15.218 5.52796 15.4105 5.8439 15.7424 5.93016C19.4668 6.89853 22.4336 9.61682 23.4849 13.0235C23.5624 13.2749 23.813 13.44 24.0861 13.44C24.1424 13.44 24.1993 13.4332 24.2561 13.4189C24.588 13.3332 24.7818 13.0172 24.688 12.7139C23.5199 8.92782 20.2236 5.90788 16.0849 4.83096Z" fill="#691D35"/>
</g>
<defs>
<clipPath id="clip0">
<rect x="-0.00012207" y="0.5" width="30" height="30" fill="white"/>
</clipPath>
</defs>
</svg>
