<svg width="45" height="45" viewBox="0 0 45 45" fill="none" xmlns="http://www.w3.org/2000/svg">
<circle cx="22.5" cy="22.5" r="22.5" fill="white"/>
<g clip-path="url(#clip0)">
<path d="M27.5062 9.77341H25.3112C25.0373 9.76493 24.8019 9.57661 24.7335 9.31133C24.5255 8.23068 23.5613 7.46256 22.4615 7.50141C21.3551 7.48202 20.3956 8.2626 20.1895 9.34988C20.1183 9.60786 19.8793 9.78314 19.6119 9.77348H17.4938V13.6244H27.5062V9.77341Z" fill="#783349"/>
<path d="M33.6677 35.7279V13.6623C33.67 12.7903 32.965 12.0815 32.093 12.0791C32.0531 12.0791 32.0131 12.0805 31.9732 12.0833H28.6614V14.0473C28.6614 14.3554 28.4689 14.779 28.1608 14.779H16.8007C16.4925 14.779 16.3386 14.3554 16.3386 14.0473V12.0834H13.0268C12.1571 12.0196 11.4004 12.6729 11.3366 13.5425C11.3337 13.5824 11.3323 13.6224 11.3324 13.6623V35.728C11.3109 36.6848 12.0691 37.4779 13.026 37.4994C13.0262 37.4994 13.0265 37.4994 13.0268 37.4994H31.9733C32.9301 37.4784 33.6887 36.6856 33.6677 35.7288C33.6677 35.7285 33.6677 35.7282 33.6677 35.7279ZM19.3808 30.6448L16.377 33.4559C16.281 33.5709 16.1415 33.6406 15.992 33.6485C15.8311 33.6421 15.679 33.573 15.5684 33.4559L13.9895 31.8385C13.7797 31.6036 13.7969 31.2438 14.028 31.0299C14.2526 30.8097 14.6121 30.8097 14.8367 31.0299L15.9919 32.2622L18.6106 29.7976C18.8731 29.6164 19.2329 29.6823 19.4141 29.9448C19.5619 30.159 19.5482 30.4456 19.3808 30.6448ZM19.3808 24.4833L16.377 27.2945C16.281 27.4094 16.1415 27.4791 15.992 27.487C15.8311 27.4807 15.679 27.4115 15.5684 27.2945L13.9895 25.6771C13.7797 25.4421 13.7969 25.0823 14.028 24.8684C14.2526 24.6483 14.6121 24.6483 14.8367 24.8684L15.9919 26.1007L18.6106 23.6361C18.8731 23.4549 19.2329 23.5208 19.4141 23.7834C19.5619 23.9976 19.5482 24.2841 19.3808 24.4833ZM19.3808 18.3218L16.377 21.133C16.281 21.2479 16.1415 21.3176 15.992 21.3255C15.8311 21.3192 15.679 21.2501 15.5684 21.133L13.9895 19.5156C13.7797 19.2806 13.7969 18.9209 14.028 18.707C14.2526 18.4868 14.6121 18.4868 14.8367 18.707L15.9919 19.9392L18.6106 17.4746C18.8731 17.2934 19.2329 17.3593 19.4141 17.6219C19.5619 17.8361 19.5482 18.1227 19.3808 18.3218ZM30.5869 32.8783H21.7298C21.4108 32.8783 21.1521 32.6196 21.1521 32.3006C21.1521 31.9816 21.4108 31.723 21.7298 31.723H30.5868C30.9059 31.723 31.1645 31.9816 31.1645 32.3006C31.1645 32.6196 30.9059 32.8783 30.5869 32.8783ZM30.5869 26.7168H21.7298C21.4108 26.7168 21.1521 26.4582 21.1521 26.1392C21.1521 25.8202 21.4108 25.5615 21.7298 25.5615H30.5868C30.9059 25.5615 31.1645 25.8202 31.1645 26.1392C31.1645 26.4582 30.9059 26.7168 30.5869 26.7168ZM30.5869 20.5554H21.7298C21.4108 20.5554 21.1521 20.2967 21.1521 19.9777C21.1521 19.6587 21.4108 19.4 21.7298 19.4H30.5868C30.9059 19.4 31.1645 19.6587 31.1645 19.9777C31.1645 20.2968 30.9059 20.5554 30.5869 20.5554Z" fill="#783349"/>
</g>
<defs>
<clipPath id="clip0">
<rect x="7.5" y="7.5" width="30" height="30" fill="white"/>
</clipPath>
</defs>
</svg>
