<svg width="45" height="45" viewBox="0 0 45 45" fill="none" xmlns="http://www.w3.org/2000/svg">
<circle cx="22.5" cy="22.5" r="22.5" fill="white"/>
<g clip-path="url(#clip0)">
<path d="M19.8633 24.2578C19.8633 25.7117 21.0461 26.8945 22.5 26.8945C23.9539 26.8945 25.1367 25.7117 25.1367 24.2578C25.1367 22.804 23.9539 21.6211 22.5 21.6211C21.0461 21.6211 19.8633 22.804 19.8633 24.2578Z" fill="#783349"/>
<path d="M22.5 28.6523C19.5921 28.6523 17.2266 31.0178 17.2266 33.9258V37.5H27.7734V33.9258C27.7734 31.0178 25.4079 28.6523 22.5 28.6523Z" fill="#783349"/>
<path d="M15.4688 26.0156C15.4688 24.5618 14.2859 23.3789 12.832 23.3789C11.3782 23.3789 10.1953 24.5618 10.1953 26.0156C10.1953 27.4695 11.3782 28.6523 12.832 28.6523C14.2859 28.6523 15.4688 27.4695 15.4688 26.0156Z" fill="#783349"/>
<path d="M34.8047 26.0156C34.8047 24.5618 33.6218 23.3789 32.168 23.3789C30.7141 23.3789 29.5312 24.5618 29.5312 26.0156C29.5312 27.4695 30.7141 28.6523 32.168 28.6523C33.6218 28.6523 34.8047 27.4695 34.8047 26.0156Z" fill="#783349"/>
<path d="M11.9531 7.5L10.616 10.6524L7.5 11.0918L9.74739 13.2266L9.23058 16.3477L11.9531 14.9247L14.6757 16.3477L14.1589 13.2266L16.3477 11.0918L13.323 10.6524L11.9531 7.5Z" fill="#783349"/>
<path d="M23.8699 10.6524L22.5 7.5L21.1629 10.6524L18.1055 11.0918L20.2943 13.2266L19.7775 16.3477L22.5 14.9247L25.2225 16.3477L24.7057 13.2266L26.8945 11.0918L23.8699 10.6524Z" fill="#783349"/>
<path d="M33.0469 7.5L31.7097 10.6524L28.6523 11.0918L30.8411 13.2266L30.3243 16.3477L33.0469 14.9247L35.7694 16.3477L35.2526 13.2266L37.5 11.0918L34.4167 10.6524L33.0469 7.5Z" fill="#783349"/>
<path d="M32.168 30.4102C30.9997 30.4102 29.9306 30.8022 29.0568 31.4449C29.3509 32.2192 29.5312 33.0496 29.5312 33.9258V37.5H37.5V35.6836C37.5 32.7711 35.0805 30.4102 32.168 30.4102Z" fill="#783349"/>
<path d="M7.5 35.6836V37.5H15.4688V33.9258C15.4688 33.0496 15.6491 32.2192 15.9432 31.4449C15.0694 30.8022 14.0002 30.4102 12.832 30.4102C9.91951 30.4102 7.5 32.7711 7.5 35.6836Z" fill="#783349"/>
</g>
<defs>
<clipPath id="clip0">
<rect x="7.5" y="7.5" width="30" height="30" fill="white"/>
</clipPath>
</defs>
</svg>
